G04 (created by PCBNEW (2013-mar-30)-stable) date Fri 10 May 2013 05:37:35 PM CDT*
%MOIN*%
G04 Gerber Fmt 3.4, Leading zero omitted, Abs format*
%FSLAX34Y34*%
G01*
G70*
G90*
G04 APERTURE LIST*
%ADD10C,2.3622e-06*%
%ADD11R,0.08X0.08*%
%ADD12C,0.08*%
%ADD13C,0.0808661*%
%ADD14R,0.0808661X0.0808661*%
%ADD15R,0.3919X0.1439*%
%ADD16C,0.0651181*%
%ADD17C,0.135984*%
%ADD18R,0.0769291X0.0769291*%
%ADD19C,0.0769291*%
%ADD20C,0.12811*%
G04 APERTURE END LIST*
G54D10*
G54D11*
X8750Y3750D03*
G54D12*
X8750Y2750D03*
X8750Y1750D03*
G54D13*
X34470Y4385D03*
X37029Y4385D03*
X34470Y2614D03*
X37029Y2614D03*
G54D14*
X20180Y5790D03*
G54D13*
X19180Y5790D03*
X18180Y5790D03*
X17180Y5790D03*
X16180Y5790D03*
X15180Y5790D03*
X14180Y5790D03*
X13180Y5790D03*
X12180Y5790D03*
G54D14*
X29250Y1250D03*
G54D13*
X30250Y1250D03*
X31250Y1250D03*
X32250Y1250D03*
X33250Y1250D03*
X34250Y1250D03*
X35250Y1250D03*
X36250Y1250D03*
X37250Y1250D03*
X38250Y1250D03*
X39250Y1250D03*
X40250Y1250D03*
G54D15*
X30630Y5040D03*
G54D16*
X26500Y3960D03*
X26500Y2039D03*
G54D14*
X11750Y4250D03*
G54D13*
X12750Y4250D03*
X14750Y4250D03*
X15750Y4250D03*
X16750Y4250D03*
X17750Y4250D03*
X18750Y4250D03*
X18750Y1250D03*
X17750Y1250D03*
X16750Y1250D03*
X15750Y1250D03*
X14750Y1250D03*
X13750Y1250D03*
X12750Y1250D03*
X11750Y1250D03*
X13750Y4250D03*
X35750Y10000D03*
X34750Y9500D03*
X35750Y9000D03*
X34750Y8500D03*
X35750Y8000D03*
X34750Y7500D03*
X35750Y7000D03*
X34750Y6500D03*
G54D17*
X38250Y10500D03*
X38250Y6000D03*
G54D13*
X9250Y6500D03*
X10250Y7000D03*
X9250Y7500D03*
X10250Y8000D03*
X9250Y8500D03*
X10250Y9000D03*
X9250Y9500D03*
X10250Y10000D03*
G54D17*
X6750Y6000D03*
X6750Y10500D03*
G54D18*
X38750Y4000D03*
G54D19*
X38750Y3000D03*
X39750Y4000D03*
X39750Y3000D03*
X40750Y4000D03*
X40750Y3000D03*
G54D20*
X43250Y10750D03*
X1750Y10750D03*
X1750Y1750D03*
G54D10*
G36*
X4358Y3545D02*
X4468Y4235D01*
X5032Y4235D01*
X5142Y3545D01*
X4358Y3545D01*
X4358Y3545D01*
G37*
G36*
X3557Y2887D02*
X3147Y3453D01*
X3546Y3852D01*
X4112Y3442D01*
X3557Y2887D01*
X3557Y2887D01*
G37*
G36*
X3455Y1858D02*
X2765Y1968D01*
X2765Y2532D01*
X3455Y2642D01*
X3455Y1858D01*
X3455Y1858D01*
G37*
G36*
X4112Y1057D02*
X3546Y647D01*
X3147Y1046D01*
X3557Y1612D01*
X4112Y1057D01*
X4112Y1057D01*
G37*
G36*
X5387Y3442D02*
X5953Y3852D01*
X6352Y3453D01*
X5942Y2887D01*
X5387Y3442D01*
X5387Y3442D01*
G37*
G36*
X6045Y2642D02*
X6735Y2532D01*
X6735Y1968D01*
X6045Y1858D01*
X6045Y2642D01*
X6045Y2642D01*
G37*
G36*
X5942Y1612D02*
X6352Y1046D01*
X5953Y647D01*
X5387Y1057D01*
X5942Y1612D01*
X5942Y1612D01*
G37*
G36*
X4568Y2692D02*
X4405Y3694D01*
X5094Y3694D01*
X4931Y2692D01*
X4568Y2692D01*
X4568Y2692D01*
G37*
G36*
X4750Y2727D02*
X4983Y3715D01*
X5620Y3452D01*
X5085Y2588D01*
X4750Y2727D01*
X4750Y2727D01*
G37*
G36*
X4414Y2588D02*
X3879Y3452D01*
X4516Y3715D01*
X4749Y2727D01*
X4414Y2588D01*
X4414Y2588D01*
G37*
G36*
X4309Y2433D02*
X3486Y3026D01*
X3973Y3513D01*
X4566Y2690D01*
X4309Y2433D01*
X4309Y2433D01*
G37*
G36*
X4933Y2690D02*
X5526Y3513D01*
X6013Y3026D01*
X5190Y2433D01*
X4933Y2690D01*
X4933Y2690D01*
G37*
G36*
X4272Y2250D02*
X3284Y2483D01*
X3547Y3120D01*
X4411Y2585D01*
X4272Y2250D01*
X4272Y2250D01*
G37*
G36*
X5088Y2585D02*
X5952Y3120D01*
X6215Y2483D01*
X5227Y2250D01*
X5088Y2585D01*
X5088Y2585D01*
G37*
G36*
X4308Y2068D02*
X3306Y1905D01*
X3306Y2594D01*
X4308Y2431D01*
X4308Y2068D01*
X4308Y2068D01*
G37*
G36*
X5192Y2431D02*
X6194Y2594D01*
X6194Y1905D01*
X5192Y2068D01*
X5192Y2431D01*
X5192Y2431D01*
G37*
G36*
X5227Y2249D02*
X6215Y2016D01*
X5952Y1379D01*
X5088Y1914D01*
X5227Y2249D01*
X5227Y2249D01*
G37*
G36*
X4411Y1914D02*
X3547Y1379D01*
X3284Y2016D01*
X4272Y2249D01*
X4411Y1914D01*
X4411Y1914D01*
G37*
G36*
X4566Y1809D02*
X3973Y986D01*
X3486Y1473D01*
X4309Y2066D01*
X4566Y1809D01*
X4566Y1809D01*
G37*
G36*
X5190Y2066D02*
X6013Y1473D01*
X5526Y986D01*
X4933Y1809D01*
X5190Y2066D01*
X5190Y2066D01*
G37*
G36*
X5091Y1946D02*
X5715Y1158D01*
X5386Y939D01*
X4898Y1818D01*
X5091Y1946D01*
X5091Y1946D01*
G37*
G36*
X4601Y1818D02*
X4113Y939D01*
X3784Y1158D01*
X4408Y1946D01*
X4601Y1818D01*
X4601Y1818D01*
G37*
M02*
