G04 (created by PCBNEW (2013-mar-30)-stable) date Fri 10 May 2013 05:26:22 PM CDT*
%MOIN*%
G04 Gerber Fmt 3.4, Leading zero omitted, Abs format*
%FSLAX34Y34*%
G01*
G70*
G90*
G04 APERTURE LIST*
%ADD10C,0.005*%
%ADD11C,0.015*%
%ADD12C,0.00787402*%
%ADD13C,0.011811*%
G04 APERTURE END LIST*
G54D10*
G54D11*
X0Y0D02*
X0Y12500D01*
X45000Y0D02*
X45000Y12500D01*
X45000Y0D02*
X0Y0D01*
X0Y12500D02*
X45000Y12500D01*
G54D12*
X29035Y5610D02*
X29153Y5492D01*
X29153Y5610D02*
X29035Y5492D01*
X29035Y5099D02*
X29153Y4980D01*
X29153Y5099D02*
X29035Y4980D01*
X29035Y4587D02*
X29153Y4469D01*
X29153Y4587D02*
X29035Y4469D01*
X29547Y5610D02*
X29665Y5492D01*
X29665Y5610D02*
X29547Y5492D01*
X29547Y5099D02*
X29665Y4980D01*
X29665Y5099D02*
X29547Y4980D01*
X29547Y4587D02*
X29665Y4469D01*
X29665Y4587D02*
X29547Y4469D01*
X30059Y5610D02*
X30177Y5492D01*
X30177Y5610D02*
X30059Y5492D01*
X30059Y5099D02*
X30177Y4980D01*
X30177Y5099D02*
X30059Y4980D01*
X30059Y4587D02*
X30177Y4469D01*
X30177Y4587D02*
X30059Y4469D01*
X30570Y5610D02*
X30689Y5492D01*
X30689Y5610D02*
X30570Y5492D01*
X30570Y5099D02*
X30689Y4980D01*
X30689Y5099D02*
X30570Y4980D01*
X30570Y4587D02*
X30689Y4469D01*
X30689Y4587D02*
X30570Y4469D01*
X31082Y5610D02*
X31200Y5492D01*
X31200Y5610D02*
X31082Y5492D01*
X31082Y5099D02*
X31200Y4980D01*
X31200Y5099D02*
X31082Y4980D01*
X31082Y4587D02*
X31200Y4469D01*
X31200Y4587D02*
X31082Y4469D01*
X31594Y5610D02*
X31712Y5492D01*
X31712Y5610D02*
X31594Y5492D01*
X31594Y5099D02*
X31712Y4980D01*
X31712Y5099D02*
X31594Y4980D01*
X31633Y4587D02*
X31752Y4469D01*
X31752Y4587D02*
X31633Y4469D01*
X32106Y5610D02*
X32224Y5492D01*
X32224Y5610D02*
X32106Y5492D01*
X32106Y5099D02*
X32224Y4980D01*
X32224Y5099D02*
X32106Y4980D01*
X32106Y4587D02*
X32224Y4469D01*
X32224Y4587D02*
X32106Y4469D01*
X5926Y8974D02*
G75*
G03X5926Y8974I-100J0D01*
G74*
G01*
X6130Y8100D02*
G75*
G03X6130Y8100I-100J0D01*
G74*
G01*
X8170Y7600D02*
G75*
G03X8170Y7600I-100J0D01*
G74*
G01*
X8600Y11250D02*
G75*
G03X8600Y11250I-100J0D01*
G74*
G01*
X10412Y11496D02*
G75*
G03X10412Y11496I-100J0D01*
G74*
G01*
X14430Y11510D02*
G75*
G03X14430Y11510I-100J0D01*
G74*
G01*
X15120Y10760D02*
G75*
G03X15120Y10760I-100J0D01*
G74*
G01*
X15120Y8270D02*
G75*
G03X15120Y8270I-100J0D01*
G74*
G01*
X19200Y8930D02*
G75*
G03X19200Y8930I-100J0D01*
G74*
G01*
X19590Y9995D02*
G75*
G03X19590Y9995I-100J0D01*
G74*
G01*
X19600Y9390D02*
G75*
G03X19600Y9390I-100J0D01*
G74*
G01*
X19810Y1040D02*
G75*
G03X19810Y1040I-100J0D01*
G74*
G01*
X21369Y5516D02*
G75*
G03X21369Y5516I-100J0D01*
G74*
G01*
X21530Y3262D02*
G75*
G03X21530Y3262I-100J0D01*
G74*
G01*
X21838Y2926D02*
G75*
G03X21838Y2926I-100J0D01*
G74*
G01*
X22540Y2026D02*
G75*
G03X22540Y2026I-100J0D01*
G74*
G01*
X22650Y4520D02*
G75*
G03X22650Y4520I-100J0D01*
G74*
G01*
X22868Y2390D02*
G75*
G03X22868Y2390I-100J0D01*
G74*
G01*
X22990Y4160D02*
G75*
G03X22990Y4160I-100J0D01*
G74*
G01*
X23330Y420D02*
G75*
G03X23330Y420I-100J0D01*
G74*
G01*
X23440Y5690D02*
G75*
G03X23440Y5690I-100J0D01*
G74*
G01*
X23721Y2793D02*
G75*
G03X23721Y2793I-100J0D01*
G74*
G01*
X24040Y5310D02*
G75*
G03X24040Y5310I-100J0D01*
G74*
G01*
X24440Y4940D02*
G75*
G03X24440Y4940I-100J0D01*
G74*
G01*
X24461Y1922D02*
G75*
G03X24461Y1922I-100J0D01*
G74*
G01*
X24860Y4680D02*
G75*
G03X24860Y4680I-100J0D01*
G74*
G01*
X24970Y4220D02*
G75*
G03X24970Y4220I-100J0D01*
G74*
G01*
X25090Y5690D02*
G75*
G03X25090Y5690I-100J0D01*
G74*
G01*
X25170Y9660D02*
G75*
G03X25170Y9660I-100J0D01*
G74*
G01*
X25178Y3122D02*
G75*
G03X25178Y3122I-100J0D01*
G74*
G01*
X25980Y5835D02*
G75*
G03X25980Y5835I-100J0D01*
G74*
G01*
X26260Y1084D02*
G75*
G03X26260Y1084I-100J0D01*
G74*
G01*
X26550Y5870D02*
G75*
G03X26550Y5870I-100J0D01*
G74*
G01*
X27125Y5865D02*
G75*
G03X27125Y5865I-100J0D01*
G74*
G01*
X27210Y1470D02*
G75*
G03X27210Y1470I-100J0D01*
G74*
G01*
X27670Y5830D02*
G75*
G03X27670Y5830I-100J0D01*
G74*
G01*
X28020Y2980D02*
G75*
G03X28020Y2980I-100J0D01*
G74*
G01*
X28220Y5825D02*
G75*
G03X28220Y5825I-100J0D01*
G74*
G01*
X28220Y1570D02*
G75*
G03X28220Y1570I-100J0D01*
G74*
G01*
X28440Y1140D02*
G75*
G03X28440Y1140I-100J0D01*
G74*
G01*
X29080Y8480D02*
G75*
G03X29080Y8480I-100J0D01*
G74*
G01*
X29080Y7920D02*
G75*
G03X29080Y7920I-100J0D01*
G74*
G01*
X29450Y8940D02*
G75*
G03X29450Y8940I-100J0D01*
G74*
G01*
X30540Y10630D02*
G75*
G03X30540Y10630I-100J0D01*
G74*
G01*
X30550Y2110D02*
G75*
G03X30550Y2110I-100J0D01*
G74*
G01*
X30855Y9080D02*
G75*
G03X30855Y9080I-100J0D01*
G74*
G01*
X30990Y10340D02*
G75*
G03X30990Y10340I-100J0D01*
G74*
G01*
X31510Y3030D02*
G75*
G03X31510Y3030I-100J0D01*
G74*
G01*
X31740Y7110D02*
G75*
G03X31740Y7110I-100J0D01*
G74*
G01*
X32440Y7340D02*
G75*
G03X32440Y7340I-100J0D01*
G74*
G01*
X32535Y9350D02*
G75*
G03X32535Y9350I-100J0D01*
G74*
G01*
X32820Y7050D02*
G75*
G03X32820Y7050I-100J0D01*
G74*
G01*
X33245Y6795D02*
G75*
G03X33245Y6795I-100J0D01*
G74*
G01*
X33310Y9400D02*
G75*
G03X33310Y9400I-100J0D01*
G74*
G01*
X33890Y3820D02*
G75*
G03X33890Y3820I-100J0D01*
G74*
G01*
X37910Y2090D02*
G75*
G03X37910Y2090I-100J0D01*
G74*
G01*
X37930Y460D02*
G75*
G03X37930Y460I-100J0D01*
G74*
G01*
X38370Y7350D02*
G75*
G03X38370Y7350I-100J0D01*
G74*
G01*
X41810Y3450D02*
G75*
G03X41810Y3450I-100J0D01*
G74*
G01*
X41950Y2650D02*
G75*
G03X41950Y2650I-100J0D01*
G74*
G01*
X42405Y7070D02*
G75*
G03X42405Y7070I-100J0D01*
G74*
G01*
X43630Y5010D02*
G75*
G03X43630Y5010I-100J0D01*
G74*
G01*
X43860Y2600D02*
G75*
G03X43860Y2600I-100J0D01*
G74*
G01*
X44180Y5000D02*
G75*
G03X44180Y5000I-100J0D01*
G74*
G01*
X26500Y4098D02*
X26500Y3822D01*
X26362Y3960D02*
X26637Y3960D01*
X26500Y2177D02*
X26500Y1901D01*
X26362Y2039D02*
X26637Y2039D01*
X9375Y9374D02*
X9375Y9625D01*
X9124Y9625D01*
X9124Y9374D01*
X9375Y9374D01*
X9375Y8374D02*
X9375Y8625D01*
X9124Y8625D01*
X9124Y8374D01*
X9375Y8374D01*
X9375Y7374D02*
X9375Y7625D01*
X9124Y7625D01*
X9124Y7374D01*
X9375Y7374D01*
X9375Y6374D02*
X9375Y6625D01*
X9124Y6625D01*
X9124Y6374D01*
X9375Y6374D01*
X10375Y9874D02*
X10375Y10125D01*
X10124Y10125D01*
X10124Y9874D01*
X10375Y9874D01*
X10375Y8874D02*
X10375Y9125D01*
X10124Y9125D01*
X10124Y8874D01*
X10375Y8874D01*
X10375Y7874D02*
X10375Y8125D01*
X10124Y8125D01*
X10124Y7874D01*
X10375Y7874D01*
X10375Y6874D02*
X10375Y7125D01*
X10124Y7125D01*
X10124Y6874D01*
X10375Y6874D01*
X11875Y4124D02*
X11875Y4375D01*
X11624Y4375D01*
X11624Y4124D01*
X11875Y4124D01*
X11875Y1124D02*
X11875Y1375D01*
X11624Y1375D01*
X11624Y1124D01*
X11875Y1124D01*
X12305Y5664D02*
X12305Y5915D01*
X12054Y5915D01*
X12054Y5664D01*
X12305Y5664D01*
X12875Y4124D02*
X12875Y4375D01*
X12624Y4375D01*
X12624Y4124D01*
X12875Y4124D01*
X12875Y1124D02*
X12875Y1375D01*
X12624Y1375D01*
X12624Y1124D01*
X12875Y1124D01*
X13305Y5664D02*
X13305Y5915D01*
X13054Y5915D01*
X13054Y5664D01*
X13305Y5664D01*
X13875Y4124D02*
X13875Y4375D01*
X13624Y4375D01*
X13624Y4124D01*
X13875Y4124D01*
X13875Y1124D02*
X13875Y1375D01*
X13624Y1375D01*
X13624Y1124D01*
X13875Y1124D01*
X14305Y5664D02*
X14305Y5915D01*
X14054Y5915D01*
X14054Y5664D01*
X14305Y5664D01*
X14875Y4124D02*
X14875Y4375D01*
X14624Y4375D01*
X14624Y4124D01*
X14875Y4124D01*
X14875Y1124D02*
X14875Y1375D01*
X14624Y1375D01*
X14624Y1124D01*
X14875Y1124D01*
X15305Y5664D02*
X15305Y5915D01*
X15054Y5915D01*
X15054Y5664D01*
X15305Y5664D01*
X15875Y4124D02*
X15875Y4375D01*
X15624Y4375D01*
X15624Y4124D01*
X15875Y4124D01*
X15875Y1124D02*
X15875Y1375D01*
X15624Y1375D01*
X15624Y1124D01*
X15875Y1124D01*
X16305Y5664D02*
X16305Y5915D01*
X16054Y5915D01*
X16054Y5664D01*
X16305Y5664D01*
X16875Y4124D02*
X16875Y4375D01*
X16624Y4375D01*
X16624Y4124D01*
X16875Y4124D01*
X16875Y1124D02*
X16875Y1375D01*
X16624Y1375D01*
X16624Y1124D01*
X16875Y1124D01*
X17305Y5664D02*
X17305Y5915D01*
X17054Y5915D01*
X17054Y5664D01*
X17305Y5664D01*
X17875Y4124D02*
X17875Y4375D01*
X17624Y4375D01*
X17624Y4124D01*
X17875Y4124D01*
X17875Y1124D02*
X17875Y1375D01*
X17624Y1375D01*
X17624Y1124D01*
X17875Y1124D01*
X18305Y5664D02*
X18305Y5915D01*
X18054Y5915D01*
X18054Y5664D01*
X18305Y5664D01*
X18875Y4124D02*
X18875Y4375D01*
X18624Y4375D01*
X18624Y4124D01*
X18875Y4124D01*
X18875Y1124D02*
X18875Y1375D01*
X18624Y1375D01*
X18624Y1124D01*
X18875Y1124D01*
X19305Y5664D02*
X19305Y5915D01*
X19054Y5915D01*
X19054Y5664D01*
X19305Y5664D01*
X20305Y5664D02*
X20305Y5915D01*
X20054Y5915D01*
X20054Y5664D01*
X20305Y5664D01*
X29375Y1124D02*
X29375Y1375D01*
X29124Y1375D01*
X29124Y1124D01*
X29375Y1124D01*
X30375Y1124D02*
X30375Y1375D01*
X30124Y1375D01*
X30124Y1124D01*
X30375Y1124D01*
X31375Y1124D02*
X31375Y1375D01*
X31124Y1375D01*
X31124Y1124D01*
X31375Y1124D01*
X32375Y1124D02*
X32375Y1375D01*
X32124Y1375D01*
X32124Y1124D01*
X32375Y1124D01*
X33375Y1124D02*
X33375Y1375D01*
X33124Y1375D01*
X33124Y1124D01*
X33375Y1124D01*
X34375Y1124D02*
X34375Y1375D01*
X34124Y1375D01*
X34124Y1124D01*
X34375Y1124D01*
X34875Y9374D02*
X34875Y9625D01*
X34624Y9625D01*
X34624Y9374D01*
X34875Y9374D01*
X34875Y8374D02*
X34875Y8625D01*
X34624Y8625D01*
X34624Y8374D01*
X34875Y8374D01*
X34875Y7374D02*
X34875Y7625D01*
X34624Y7625D01*
X34624Y7374D01*
X34875Y7374D01*
X34875Y6374D02*
X34875Y6625D01*
X34624Y6625D01*
X34624Y6374D01*
X34875Y6374D01*
X35375Y1124D02*
X35375Y1375D01*
X35124Y1375D01*
X35124Y1124D01*
X35375Y1124D01*
X35875Y9874D02*
X35875Y10125D01*
X35624Y10125D01*
X35624Y9874D01*
X35875Y9874D01*
X35875Y8874D02*
X35875Y9125D01*
X35624Y9125D01*
X35624Y8874D01*
X35875Y8874D01*
X35875Y7874D02*
X35875Y8125D01*
X35624Y8125D01*
X35624Y7874D01*
X35875Y7874D01*
X35875Y6874D02*
X35875Y7125D01*
X35624Y7125D01*
X35624Y6874D01*
X35875Y6874D01*
X36375Y1124D02*
X36375Y1375D01*
X36124Y1375D01*
X36124Y1124D01*
X36375Y1124D01*
X37375Y1124D02*
X37375Y1375D01*
X37124Y1375D01*
X37124Y1124D01*
X37375Y1124D01*
X38375Y1124D02*
X38375Y1375D01*
X38124Y1375D01*
X38124Y1124D01*
X38375Y1124D01*
X38875Y3874D02*
X38875Y4125D01*
X38624Y4125D01*
X38624Y3874D01*
X38875Y3874D01*
X38875Y2874D02*
X38875Y3125D01*
X38624Y3125D01*
X38624Y2874D01*
X38875Y2874D01*
X39375Y1124D02*
X39375Y1375D01*
X39124Y1375D01*
X39124Y1124D01*
X39375Y1124D01*
X39875Y3874D02*
X39875Y4125D01*
X39624Y4125D01*
X39624Y3874D01*
X39875Y3874D01*
X39875Y2874D02*
X39875Y3125D01*
X39624Y3125D01*
X39624Y2874D01*
X39875Y2874D01*
X40375Y1124D02*
X40375Y1375D01*
X40124Y1375D01*
X40124Y1124D01*
X40375Y1124D01*
X40875Y3874D02*
X40875Y4125D01*
X40624Y4125D01*
X40624Y3874D01*
X40875Y3874D01*
X40875Y2874D02*
X40875Y3125D01*
X40624Y3125D01*
X40624Y2874D01*
X40875Y2874D01*
X34470Y4188D02*
X34667Y4385D01*
X34470Y4582D01*
X34273Y4385D01*
X34470Y4188D01*
X34470Y2417D02*
X34667Y2614D01*
X34470Y2811D01*
X34273Y2614D01*
X34470Y2417D01*
X37029Y4188D02*
X37226Y4385D01*
X37029Y4582D01*
X36832Y4385D01*
X37029Y4188D01*
X37029Y2417D02*
X37226Y2614D01*
X37029Y2811D01*
X36832Y2614D01*
X37029Y2417D01*
X8550Y3950D02*
X8950Y3550D01*
X8950Y3950D02*
X8550Y3550D01*
X8950Y3750D02*
G75*
G03X8950Y3750I-200J0D01*
G74*
G01*
X8550Y2950D02*
X8950Y2550D01*
X8950Y2950D02*
X8550Y2550D01*
X8950Y2750D02*
G75*
G03X8950Y2750I-200J0D01*
G74*
G01*
X8550Y1950D02*
X8950Y1550D01*
X8950Y1950D02*
X8550Y1550D01*
X8950Y1750D02*
G75*
G03X8950Y1750I-200J0D01*
G74*
G01*
X1159Y11340D02*
X2340Y10159D01*
X2340Y11340D02*
X1159Y10159D01*
X1750Y11340D02*
X1750Y10159D01*
X1159Y10750D02*
X2340Y10750D01*
X1159Y2340D02*
X2340Y1159D01*
X2340Y2340D02*
X1159Y1159D01*
X1750Y2340D02*
X1750Y1159D01*
X1159Y1750D02*
X2340Y1750D01*
X42659Y11340D02*
X43840Y10159D01*
X43840Y11340D02*
X42659Y10159D01*
X43250Y11340D02*
X43250Y10159D01*
X42659Y10750D02*
X43840Y10750D01*
X6120Y11129D02*
X7379Y9870D01*
X7379Y11129D02*
X6120Y9870D01*
X7195Y10054D02*
X7195Y10945D01*
X6304Y10945D01*
X6304Y10054D01*
X7195Y10054D01*
X6120Y6629D02*
X7379Y5370D01*
X7379Y6629D02*
X6120Y5370D01*
X7195Y5554D02*
X7195Y6445D01*
X6304Y6445D01*
X6304Y5554D01*
X7195Y5554D01*
X37620Y11129D02*
X38879Y9870D01*
X38879Y11129D02*
X37620Y9870D01*
X38695Y10054D02*
X38695Y10945D01*
X37804Y10945D01*
X37804Y10054D01*
X38695Y10054D01*
X37620Y6629D02*
X38879Y5370D01*
X38879Y6629D02*
X37620Y5370D01*
X38695Y5554D02*
X38695Y6445D01*
X37804Y6445D01*
X37804Y5554D01*
X38695Y5554D01*
G54D13*
X993Y-1852D02*
X993Y-671D01*
X1274Y-671D01*
X1443Y-727D01*
X1556Y-839D01*
X1612Y-952D01*
X1668Y-1177D01*
X1668Y-1346D01*
X1612Y-1571D01*
X1556Y-1683D01*
X1443Y-1796D01*
X1274Y-1852D01*
X993Y-1852D01*
X2174Y-1852D02*
X2174Y-1064D01*
X2174Y-1289D02*
X2230Y-1177D01*
X2287Y-1121D01*
X2399Y-1064D01*
X2512Y-1064D01*
X2905Y-1852D02*
X2905Y-1064D01*
X2905Y-671D02*
X2849Y-727D01*
X2905Y-783D01*
X2962Y-727D01*
X2905Y-671D01*
X2905Y-783D01*
X3637Y-1852D02*
X3524Y-1796D01*
X3468Y-1683D01*
X3468Y-671D01*
X4255Y-1852D02*
X4143Y-1796D01*
X4086Y-1683D01*
X4086Y-671D01*
X5605Y-1852D02*
X5605Y-671D01*
X5999Y-1514D01*
X6392Y-671D01*
X6392Y-1852D01*
X7461Y-1852D02*
X7461Y-1233D01*
X7405Y-1121D01*
X7292Y-1064D01*
X7067Y-1064D01*
X6955Y-1121D01*
X7461Y-1796D02*
X7349Y-1852D01*
X7067Y-1852D01*
X6955Y-1796D01*
X6899Y-1683D01*
X6899Y-1571D01*
X6955Y-1458D01*
X7067Y-1402D01*
X7349Y-1402D01*
X7461Y-1346D01*
X8023Y-1064D02*
X8023Y-2245D01*
X8023Y-1121D02*
X8136Y-1064D01*
X8361Y-1064D01*
X8473Y-1121D01*
X8530Y-1177D01*
X8586Y-1289D01*
X8586Y-1627D01*
X8530Y-1739D01*
X8473Y-1796D01*
X8361Y-1852D01*
X8136Y-1852D01*
X8023Y-1796D01*
X9092Y-1739D02*
X9148Y-1796D01*
X9092Y-1852D01*
X9036Y-1796D01*
X9092Y-1739D01*
X9092Y-1852D01*
X9092Y-1121D02*
X9148Y-1177D01*
X9092Y-1233D01*
X9036Y-1177D01*
X9092Y-1121D01*
X9092Y-1233D01*
X-193Y-3795D02*
X-75Y-3913D01*
X-75Y-3795D02*
X-193Y-3913D01*
X1218Y-3151D02*
X1331Y-3151D01*
X1443Y-3207D01*
X1499Y-3263D01*
X1556Y-3376D01*
X1612Y-3601D01*
X1612Y-3882D01*
X1556Y-4107D01*
X1499Y-4220D01*
X1443Y-4276D01*
X1331Y-4332D01*
X1218Y-4332D01*
X1106Y-4276D01*
X1049Y-4220D01*
X993Y-4107D01*
X937Y-3882D01*
X937Y-3601D01*
X993Y-3376D01*
X1049Y-3263D01*
X1106Y-3207D01*
X1218Y-3151D01*
X2118Y-4220D02*
X2174Y-4276D01*
X2118Y-4332D01*
X2062Y-4276D01*
X2118Y-4220D01*
X2118Y-4332D01*
X2568Y-3151D02*
X3299Y-3151D01*
X2905Y-3601D01*
X3074Y-3601D01*
X3187Y-3657D01*
X3243Y-3713D01*
X3299Y-3826D01*
X3299Y-4107D01*
X3243Y-4220D01*
X3187Y-4276D01*
X3074Y-4332D01*
X2737Y-4332D01*
X2624Y-4276D01*
X2568Y-4220D01*
X4030Y-3151D02*
X4143Y-3151D01*
X4255Y-3207D01*
X4311Y-3263D01*
X4368Y-3376D01*
X4424Y-3601D01*
X4424Y-3882D01*
X4368Y-4107D01*
X4311Y-4220D01*
X4255Y-4276D01*
X4143Y-4332D01*
X4030Y-4332D01*
X3918Y-4276D01*
X3862Y-4220D01*
X3805Y-4107D01*
X3749Y-3882D01*
X3749Y-3601D01*
X3805Y-3376D01*
X3862Y-3263D01*
X3918Y-3207D01*
X4030Y-3151D01*
X4930Y-4332D02*
X4930Y-3545D01*
X4930Y-3657D02*
X4986Y-3601D01*
X5099Y-3545D01*
X5268Y-3545D01*
X5380Y-3601D01*
X5436Y-3713D01*
X5436Y-4332D01*
X5436Y-3713D02*
X5493Y-3601D01*
X5605Y-3545D01*
X5774Y-3545D01*
X5886Y-3601D01*
X5942Y-3713D01*
X5942Y-4332D01*
X6505Y-4332D02*
X6505Y-3545D01*
X6505Y-3657D02*
X6561Y-3601D01*
X6674Y-3545D01*
X6842Y-3545D01*
X6955Y-3601D01*
X7011Y-3713D01*
X7011Y-4332D01*
X7011Y-3713D02*
X7067Y-3601D01*
X7180Y-3545D01*
X7349Y-3545D01*
X7461Y-3601D01*
X7517Y-3713D01*
X7517Y-4332D01*
X9823Y-3095D02*
X8811Y-4613D01*
X11342Y-3151D02*
X11454Y-3151D01*
X11567Y-3207D01*
X11623Y-3263D01*
X11679Y-3376D01*
X11736Y-3601D01*
X11736Y-3882D01*
X11679Y-4107D01*
X11623Y-4220D01*
X11567Y-4276D01*
X11454Y-4332D01*
X11342Y-4332D01*
X11229Y-4276D01*
X11173Y-4220D01*
X11117Y-4107D01*
X11061Y-3882D01*
X11061Y-3601D01*
X11117Y-3376D01*
X11173Y-3263D01*
X11229Y-3207D01*
X11342Y-3151D01*
X12242Y-4220D02*
X12298Y-4276D01*
X12242Y-4332D01*
X12185Y-4276D01*
X12242Y-4220D01*
X12242Y-4332D01*
X13029Y-3151D02*
X13142Y-3151D01*
X13254Y-3207D01*
X13310Y-3263D01*
X13367Y-3376D01*
X13423Y-3601D01*
X13423Y-3882D01*
X13367Y-4107D01*
X13310Y-4220D01*
X13254Y-4276D01*
X13142Y-4332D01*
X13029Y-4332D01*
X12917Y-4276D01*
X12860Y-4220D01*
X12804Y-4107D01*
X12748Y-3882D01*
X12748Y-3601D01*
X12804Y-3376D01*
X12860Y-3263D01*
X12917Y-3207D01*
X13029Y-3151D01*
X14548Y-4332D02*
X13873Y-4332D01*
X14210Y-4332D02*
X14210Y-3151D01*
X14098Y-3320D01*
X13985Y-3432D01*
X13873Y-3488D01*
X14998Y-3263D02*
X15054Y-3207D01*
X15166Y-3151D01*
X15448Y-3151D01*
X15560Y-3207D01*
X15616Y-3263D01*
X15673Y-3376D01*
X15673Y-3488D01*
X15616Y-3657D01*
X14941Y-4332D01*
X15673Y-4332D01*
X16122Y-3151D02*
X16122Y-3376D01*
X16572Y-3151D02*
X16572Y-3376D01*
X18316Y-4782D02*
X18260Y-4726D01*
X18147Y-4557D01*
X18091Y-4445D01*
X18035Y-4276D01*
X17978Y-3995D01*
X17978Y-3770D01*
X18035Y-3488D01*
X18091Y-3320D01*
X18147Y-3207D01*
X18260Y-3039D01*
X18316Y-2982D01*
X18710Y-3263D02*
X18766Y-3207D01*
X18878Y-3151D01*
X19160Y-3151D01*
X19272Y-3207D01*
X19328Y-3263D01*
X19385Y-3376D01*
X19385Y-3488D01*
X19328Y-3657D01*
X18653Y-4332D01*
X19385Y-4332D01*
X20509Y-4332D02*
X19835Y-4332D01*
X20172Y-4332D02*
X20172Y-3151D01*
X20059Y-3320D01*
X19947Y-3432D01*
X19835Y-3488D01*
X21916Y-4332D02*
X21916Y-3151D01*
X22422Y-4332D02*
X22422Y-3713D01*
X22365Y-3601D01*
X22253Y-3545D01*
X22084Y-3545D01*
X21972Y-3601D01*
X21916Y-3657D01*
X23153Y-4332D02*
X23040Y-4276D01*
X22984Y-4220D01*
X22928Y-4107D01*
X22928Y-3770D01*
X22984Y-3657D01*
X23040Y-3601D01*
X23153Y-3545D01*
X23322Y-3545D01*
X23434Y-3601D01*
X23490Y-3657D01*
X23547Y-3770D01*
X23547Y-4107D01*
X23490Y-4220D01*
X23434Y-4276D01*
X23322Y-4332D01*
X23153Y-4332D01*
X24221Y-4332D02*
X24109Y-4276D01*
X24053Y-4163D01*
X24053Y-3151D01*
X25121Y-4276D02*
X25009Y-4332D01*
X24784Y-4332D01*
X24671Y-4276D01*
X24615Y-4163D01*
X24615Y-3713D01*
X24671Y-3601D01*
X24784Y-3545D01*
X25009Y-3545D01*
X25121Y-3601D01*
X25178Y-3713D01*
X25178Y-3826D01*
X24615Y-3938D01*
X25628Y-4276D02*
X25740Y-4332D01*
X25965Y-4332D01*
X26077Y-4276D01*
X26134Y-4163D01*
X26134Y-4107D01*
X26077Y-3995D01*
X25965Y-3938D01*
X25796Y-3938D01*
X25684Y-3882D01*
X25628Y-3770D01*
X25628Y-3713D01*
X25684Y-3601D01*
X25796Y-3545D01*
X25965Y-3545D01*
X26077Y-3601D01*
X26527Y-4782D02*
X26584Y-4726D01*
X26696Y-4557D01*
X26752Y-4445D01*
X26809Y-4276D01*
X26865Y-3995D01*
X26865Y-3770D01*
X26809Y-3488D01*
X26752Y-3320D01*
X26696Y-3207D01*
X26584Y-3039D01*
X26527Y-2982D01*
G54D12*
X-75Y-5413D02*
G75*
G03X-75Y-5413I-100J0D01*
G74*
G01*
G54D13*
X1218Y-4710D02*
X1331Y-4710D01*
X1443Y-4766D01*
X1499Y-4823D01*
X1556Y-4935D01*
X1612Y-5160D01*
X1612Y-5441D01*
X1556Y-5666D01*
X1499Y-5779D01*
X1443Y-5835D01*
X1331Y-5891D01*
X1218Y-5891D01*
X1106Y-5835D01*
X1049Y-5779D01*
X993Y-5666D01*
X937Y-5441D01*
X937Y-5160D01*
X993Y-4935D01*
X1049Y-4823D01*
X1106Y-4766D01*
X1218Y-4710D01*
X2118Y-5779D02*
X2174Y-5835D01*
X2118Y-5891D01*
X2062Y-5835D01*
X2118Y-5779D01*
X2118Y-5891D01*
X3243Y-4710D02*
X2680Y-4710D01*
X2624Y-5272D01*
X2680Y-5216D01*
X2793Y-5160D01*
X3074Y-5160D01*
X3187Y-5216D01*
X3243Y-5272D01*
X3299Y-5385D01*
X3299Y-5666D01*
X3243Y-5779D01*
X3187Y-5835D01*
X3074Y-5891D01*
X2793Y-5891D01*
X2680Y-5835D01*
X2624Y-5779D01*
X4424Y-5891D02*
X3749Y-5891D01*
X4086Y-5891D02*
X4086Y-4710D01*
X3974Y-4879D01*
X3862Y-4991D01*
X3749Y-5048D01*
X4930Y-5891D02*
X4930Y-5104D01*
X4930Y-5216D02*
X4986Y-5160D01*
X5099Y-5104D01*
X5268Y-5104D01*
X5380Y-5160D01*
X5436Y-5272D01*
X5436Y-5891D01*
X5436Y-5272D02*
X5493Y-5160D01*
X5605Y-5104D01*
X5774Y-5104D01*
X5886Y-5160D01*
X5942Y-5272D01*
X5942Y-5891D01*
X6505Y-5891D02*
X6505Y-5104D01*
X6505Y-5216D02*
X6561Y-5160D01*
X6674Y-5104D01*
X6842Y-5104D01*
X6955Y-5160D01*
X7011Y-5272D01*
X7011Y-5891D01*
X7011Y-5272D02*
X7067Y-5160D01*
X7180Y-5104D01*
X7349Y-5104D01*
X7461Y-5160D01*
X7517Y-5272D01*
X7517Y-5891D01*
X9823Y-4654D02*
X8811Y-6172D01*
X11342Y-4710D02*
X11454Y-4710D01*
X11567Y-4766D01*
X11623Y-4823D01*
X11679Y-4935D01*
X11736Y-5160D01*
X11736Y-5441D01*
X11679Y-5666D01*
X11623Y-5779D01*
X11567Y-5835D01*
X11454Y-5891D01*
X11342Y-5891D01*
X11229Y-5835D01*
X11173Y-5779D01*
X11117Y-5666D01*
X11061Y-5441D01*
X11061Y-5160D01*
X11117Y-4935D01*
X11173Y-4823D01*
X11229Y-4766D01*
X11342Y-4710D01*
X12242Y-5779D02*
X12298Y-5835D01*
X12242Y-5891D01*
X12185Y-5835D01*
X12242Y-5779D01*
X12242Y-5891D01*
X13029Y-4710D02*
X13142Y-4710D01*
X13254Y-4766D01*
X13310Y-4823D01*
X13367Y-4935D01*
X13423Y-5160D01*
X13423Y-5441D01*
X13367Y-5666D01*
X13310Y-5779D01*
X13254Y-5835D01*
X13142Y-5891D01*
X13029Y-5891D01*
X12917Y-5835D01*
X12860Y-5779D01*
X12804Y-5666D01*
X12748Y-5441D01*
X12748Y-5160D01*
X12804Y-4935D01*
X12860Y-4823D01*
X12917Y-4766D01*
X13029Y-4710D01*
X13873Y-4823D02*
X13929Y-4766D01*
X14041Y-4710D01*
X14323Y-4710D01*
X14435Y-4766D01*
X14491Y-4823D01*
X14548Y-4935D01*
X14548Y-5048D01*
X14491Y-5216D01*
X13817Y-5891D01*
X14548Y-5891D01*
X15279Y-4710D02*
X15391Y-4710D01*
X15504Y-4766D01*
X15560Y-4823D01*
X15616Y-4935D01*
X15673Y-5160D01*
X15673Y-5441D01*
X15616Y-5666D01*
X15560Y-5779D01*
X15504Y-5835D01*
X15391Y-5891D01*
X15279Y-5891D01*
X15166Y-5835D01*
X15110Y-5779D01*
X15054Y-5666D01*
X14998Y-5441D01*
X14998Y-5160D01*
X15054Y-4935D01*
X15110Y-4823D01*
X15166Y-4766D01*
X15279Y-4710D01*
X16122Y-4710D02*
X16122Y-4935D01*
X16572Y-4710D02*
X16572Y-4935D01*
X18316Y-6341D02*
X18260Y-6285D01*
X18147Y-6116D01*
X18091Y-6004D01*
X18035Y-5835D01*
X17978Y-5554D01*
X17978Y-5329D01*
X18035Y-5048D01*
X18091Y-4879D01*
X18147Y-4766D01*
X18260Y-4598D01*
X18316Y-4541D01*
X19272Y-4710D02*
X19047Y-4710D01*
X18935Y-4766D01*
X18878Y-4823D01*
X18766Y-4991D01*
X18710Y-5216D01*
X18710Y-5666D01*
X18766Y-5779D01*
X18822Y-5835D01*
X18935Y-5891D01*
X19160Y-5891D01*
X19272Y-5835D01*
X19328Y-5779D01*
X19385Y-5666D01*
X19385Y-5385D01*
X19328Y-5272D01*
X19272Y-5216D01*
X19160Y-5160D01*
X18935Y-5160D01*
X18822Y-5216D01*
X18766Y-5272D01*
X18710Y-5385D01*
X20397Y-5104D02*
X20397Y-5891D01*
X20116Y-4654D02*
X19835Y-5497D01*
X20566Y-5497D01*
X21916Y-5891D02*
X21916Y-4710D01*
X22422Y-5891D02*
X22422Y-5272D01*
X22365Y-5160D01*
X22253Y-5104D01*
X22084Y-5104D01*
X21972Y-5160D01*
X21916Y-5216D01*
X23153Y-5891D02*
X23040Y-5835D01*
X22984Y-5779D01*
X22928Y-5666D01*
X22928Y-5329D01*
X22984Y-5216D01*
X23040Y-5160D01*
X23153Y-5104D01*
X23322Y-5104D01*
X23434Y-5160D01*
X23490Y-5216D01*
X23547Y-5329D01*
X23547Y-5666D01*
X23490Y-5779D01*
X23434Y-5835D01*
X23322Y-5891D01*
X23153Y-5891D01*
X24221Y-5891D02*
X24109Y-5835D01*
X24053Y-5722D01*
X24053Y-4710D01*
X25121Y-5835D02*
X25009Y-5891D01*
X24784Y-5891D01*
X24671Y-5835D01*
X24615Y-5722D01*
X24615Y-5272D01*
X24671Y-5160D01*
X24784Y-5104D01*
X25009Y-5104D01*
X25121Y-5160D01*
X25178Y-5272D01*
X25178Y-5385D01*
X24615Y-5497D01*
X25628Y-5835D02*
X25740Y-5891D01*
X25965Y-5891D01*
X26077Y-5835D01*
X26134Y-5722D01*
X26134Y-5666D01*
X26077Y-5554D01*
X25965Y-5497D01*
X25796Y-5497D01*
X25684Y-5441D01*
X25628Y-5329D01*
X25628Y-5272D01*
X25684Y-5160D01*
X25796Y-5104D01*
X25965Y-5104D01*
X26077Y-5160D01*
X26527Y-6341D02*
X26584Y-6285D01*
X26696Y-6116D01*
X26752Y-6004D01*
X26809Y-5835D01*
X26865Y-5554D01*
X26865Y-5329D01*
X26809Y-5048D01*
X26752Y-4879D01*
X26696Y-4766D01*
X26584Y-4598D01*
X26527Y-4541D01*
X-212Y-6834D02*
X-212Y-7110D01*
X-350Y-6972D02*
X-75Y-6972D01*
X1218Y-6269D02*
X1331Y-6269D01*
X1443Y-6325D01*
X1499Y-6382D01*
X1556Y-6494D01*
X1612Y-6719D01*
X1612Y-7000D01*
X1556Y-7225D01*
X1499Y-7338D01*
X1443Y-7394D01*
X1331Y-7450D01*
X1218Y-7450D01*
X1106Y-7394D01*
X1049Y-7338D01*
X993Y-7225D01*
X937Y-7000D01*
X937Y-6719D01*
X993Y-6494D01*
X1049Y-6382D01*
X1106Y-6325D01*
X1218Y-6269D01*
X2118Y-7338D02*
X2174Y-7394D01*
X2118Y-7450D01*
X2062Y-7394D01*
X2118Y-7338D01*
X2118Y-7450D01*
X2568Y-6269D02*
X3355Y-6269D01*
X2849Y-7450D01*
X4030Y-6269D02*
X4143Y-6269D01*
X4255Y-6325D01*
X4311Y-6382D01*
X4368Y-6494D01*
X4424Y-6719D01*
X4424Y-7000D01*
X4368Y-7225D01*
X4311Y-7338D01*
X4255Y-7394D01*
X4143Y-7450D01*
X4030Y-7450D01*
X3918Y-7394D01*
X3862Y-7338D01*
X3805Y-7225D01*
X3749Y-7000D01*
X3749Y-6719D01*
X3805Y-6494D01*
X3862Y-6382D01*
X3918Y-6325D01*
X4030Y-6269D01*
X4930Y-7450D02*
X4930Y-6663D01*
X4930Y-6775D02*
X4986Y-6719D01*
X5099Y-6663D01*
X5268Y-6663D01*
X5380Y-6719D01*
X5436Y-6832D01*
X5436Y-7450D01*
X5436Y-6832D02*
X5493Y-6719D01*
X5605Y-6663D01*
X5774Y-6663D01*
X5886Y-6719D01*
X5942Y-6832D01*
X5942Y-7450D01*
X6505Y-7450D02*
X6505Y-6663D01*
X6505Y-6775D02*
X6561Y-6719D01*
X6674Y-6663D01*
X6842Y-6663D01*
X6955Y-6719D01*
X7011Y-6832D01*
X7011Y-7450D01*
X7011Y-6832D02*
X7067Y-6719D01*
X7180Y-6663D01*
X7349Y-6663D01*
X7461Y-6719D01*
X7517Y-6832D01*
X7517Y-7450D01*
X9823Y-6213D02*
X8811Y-7731D01*
X11342Y-6269D02*
X11454Y-6269D01*
X11567Y-6325D01*
X11623Y-6382D01*
X11679Y-6494D01*
X11736Y-6719D01*
X11736Y-7000D01*
X11679Y-7225D01*
X11623Y-7338D01*
X11567Y-7394D01*
X11454Y-7450D01*
X11342Y-7450D01*
X11229Y-7394D01*
X11173Y-7338D01*
X11117Y-7225D01*
X11061Y-7000D01*
X11061Y-6719D01*
X11117Y-6494D01*
X11173Y-6382D01*
X11229Y-6325D01*
X11342Y-6269D01*
X12242Y-7338D02*
X12298Y-7394D01*
X12242Y-7450D01*
X12185Y-7394D01*
X12242Y-7338D01*
X12242Y-7450D01*
X13029Y-6269D02*
X13142Y-6269D01*
X13254Y-6325D01*
X13310Y-6382D01*
X13367Y-6494D01*
X13423Y-6719D01*
X13423Y-7000D01*
X13367Y-7225D01*
X13310Y-7338D01*
X13254Y-7394D01*
X13142Y-7450D01*
X13029Y-7450D01*
X12917Y-7394D01*
X12860Y-7338D01*
X12804Y-7225D01*
X12748Y-7000D01*
X12748Y-6719D01*
X12804Y-6494D01*
X12860Y-6382D01*
X12917Y-6325D01*
X13029Y-6269D01*
X13873Y-6382D02*
X13929Y-6325D01*
X14041Y-6269D01*
X14323Y-6269D01*
X14435Y-6325D01*
X14491Y-6382D01*
X14548Y-6494D01*
X14548Y-6607D01*
X14491Y-6775D01*
X13817Y-7450D01*
X14548Y-7450D01*
X15223Y-6775D02*
X15110Y-6719D01*
X15054Y-6663D01*
X14998Y-6550D01*
X14998Y-6494D01*
X15054Y-6382D01*
X15110Y-6325D01*
X15223Y-6269D01*
X15448Y-6269D01*
X15560Y-6325D01*
X15616Y-6382D01*
X15673Y-6494D01*
X15673Y-6550D01*
X15616Y-6663D01*
X15560Y-6719D01*
X15448Y-6775D01*
X15223Y-6775D01*
X15110Y-6832D01*
X15054Y-6888D01*
X14998Y-7000D01*
X14998Y-7225D01*
X15054Y-7338D01*
X15110Y-7394D01*
X15223Y-7450D01*
X15448Y-7450D01*
X15560Y-7394D01*
X15616Y-7338D01*
X15673Y-7225D01*
X15673Y-7000D01*
X15616Y-6888D01*
X15560Y-6832D01*
X15448Y-6775D01*
X16122Y-6269D02*
X16122Y-6494D01*
X16572Y-6269D02*
X16572Y-6494D01*
X18316Y-7900D02*
X18260Y-7844D01*
X18147Y-7675D01*
X18091Y-7563D01*
X18035Y-7394D01*
X17978Y-7113D01*
X17978Y-6888D01*
X18035Y-6607D01*
X18091Y-6438D01*
X18147Y-6325D01*
X18260Y-6157D01*
X18316Y-6100D01*
X18710Y-6382D02*
X18766Y-6325D01*
X18878Y-6269D01*
X19160Y-6269D01*
X19272Y-6325D01*
X19328Y-6382D01*
X19385Y-6494D01*
X19385Y-6607D01*
X19328Y-6775D01*
X18653Y-7450D01*
X19385Y-7450D01*
X20791Y-7450D02*
X20791Y-6269D01*
X21297Y-7450D02*
X21297Y-6832D01*
X21241Y-6719D01*
X21128Y-6663D01*
X20959Y-6663D01*
X20847Y-6719D01*
X20791Y-6775D01*
X22028Y-7450D02*
X21916Y-7394D01*
X21859Y-7338D01*
X21803Y-7225D01*
X21803Y-6888D01*
X21859Y-6775D01*
X21916Y-6719D01*
X22028Y-6663D01*
X22197Y-6663D01*
X22309Y-6719D01*
X22365Y-6775D01*
X22422Y-6888D01*
X22422Y-7225D01*
X22365Y-7338D01*
X22309Y-7394D01*
X22197Y-7450D01*
X22028Y-7450D01*
X23097Y-7450D02*
X22984Y-7394D01*
X22928Y-7281D01*
X22928Y-6269D01*
X23996Y-7394D02*
X23884Y-7450D01*
X23659Y-7450D01*
X23547Y-7394D01*
X23490Y-7281D01*
X23490Y-6832D01*
X23547Y-6719D01*
X23659Y-6663D01*
X23884Y-6663D01*
X23996Y-6719D01*
X24053Y-6832D01*
X24053Y-6944D01*
X23490Y-7057D01*
X24503Y-7394D02*
X24615Y-7450D01*
X24840Y-7450D01*
X24953Y-7394D01*
X25009Y-7281D01*
X25009Y-7225D01*
X24953Y-7113D01*
X24840Y-7057D01*
X24671Y-7057D01*
X24559Y-7000D01*
X24503Y-6888D01*
X24503Y-6832D01*
X24559Y-6719D01*
X24671Y-6663D01*
X24840Y-6663D01*
X24953Y-6719D01*
X25403Y-7900D02*
X25459Y-7844D01*
X25571Y-7675D01*
X25628Y-7563D01*
X25684Y-7394D01*
X25740Y-7113D01*
X25740Y-6888D01*
X25684Y-6607D01*
X25628Y-6438D01*
X25571Y-6325D01*
X25459Y-6157D01*
X25403Y-6100D01*
G54D12*
X-126Y-8656D02*
X-126Y-8406D01*
X-377Y-8406D01*
X-377Y-8656D01*
X-126Y-8656D01*
G54D13*
X1218Y-7828D02*
X1331Y-7828D01*
X1443Y-7884D01*
X1499Y-7941D01*
X1556Y-8053D01*
X1612Y-8278D01*
X1612Y-8559D01*
X1556Y-8784D01*
X1499Y-8897D01*
X1443Y-8953D01*
X1331Y-9009D01*
X1218Y-9009D01*
X1106Y-8953D01*
X1049Y-8897D01*
X993Y-8784D01*
X937Y-8559D01*
X937Y-8278D01*
X993Y-8053D01*
X1049Y-7941D01*
X1106Y-7884D01*
X1218Y-7828D01*
X2118Y-8897D02*
X2174Y-8953D01*
X2118Y-9009D01*
X2062Y-8953D01*
X2118Y-8897D01*
X2118Y-9009D01*
X2737Y-9009D02*
X2962Y-9009D01*
X3074Y-8953D01*
X3130Y-8897D01*
X3243Y-8728D01*
X3299Y-8503D01*
X3299Y-8053D01*
X3243Y-7941D01*
X3187Y-7884D01*
X3074Y-7828D01*
X2849Y-7828D01*
X2737Y-7884D01*
X2680Y-7941D01*
X2624Y-8053D01*
X2624Y-8334D01*
X2680Y-8447D01*
X2737Y-8503D01*
X2849Y-8559D01*
X3074Y-8559D01*
X3187Y-8503D01*
X3243Y-8447D01*
X3299Y-8334D01*
X4030Y-7828D02*
X4143Y-7828D01*
X4255Y-7884D01*
X4311Y-7941D01*
X4368Y-8053D01*
X4424Y-8278D01*
X4424Y-8559D01*
X4368Y-8784D01*
X4311Y-8897D01*
X4255Y-8953D01*
X4143Y-9009D01*
X4030Y-9009D01*
X3918Y-8953D01*
X3862Y-8897D01*
X3805Y-8784D01*
X3749Y-8559D01*
X3749Y-8278D01*
X3805Y-8053D01*
X3862Y-7941D01*
X3918Y-7884D01*
X4030Y-7828D01*
X4930Y-9009D02*
X4930Y-8222D01*
X4930Y-8334D02*
X4986Y-8278D01*
X5099Y-8222D01*
X5268Y-8222D01*
X5380Y-8278D01*
X5436Y-8391D01*
X5436Y-9009D01*
X5436Y-8391D02*
X5493Y-8278D01*
X5605Y-8222D01*
X5774Y-8222D01*
X5886Y-8278D01*
X5942Y-8391D01*
X5942Y-9009D01*
X6505Y-9009D02*
X6505Y-8222D01*
X6505Y-8334D02*
X6561Y-8278D01*
X6674Y-8222D01*
X6842Y-8222D01*
X6955Y-8278D01*
X7011Y-8391D01*
X7011Y-9009D01*
X7011Y-8391D02*
X7067Y-8278D01*
X7180Y-8222D01*
X7349Y-8222D01*
X7461Y-8278D01*
X7517Y-8391D01*
X7517Y-9009D01*
X9823Y-7772D02*
X8811Y-9290D01*
X11342Y-7828D02*
X11454Y-7828D01*
X11567Y-7884D01*
X11623Y-7941D01*
X11679Y-8053D01*
X11736Y-8278D01*
X11736Y-8559D01*
X11679Y-8784D01*
X11623Y-8897D01*
X11567Y-8953D01*
X11454Y-9009D01*
X11342Y-9009D01*
X11229Y-8953D01*
X11173Y-8897D01*
X11117Y-8784D01*
X11061Y-8559D01*
X11061Y-8278D01*
X11117Y-8053D01*
X11173Y-7941D01*
X11229Y-7884D01*
X11342Y-7828D01*
X12242Y-8897D02*
X12298Y-8953D01*
X12242Y-9009D01*
X12185Y-8953D01*
X12242Y-8897D01*
X12242Y-9009D01*
X13029Y-7828D02*
X13142Y-7828D01*
X13254Y-7884D01*
X13310Y-7941D01*
X13367Y-8053D01*
X13423Y-8278D01*
X13423Y-8559D01*
X13367Y-8784D01*
X13310Y-8897D01*
X13254Y-8953D01*
X13142Y-9009D01*
X13029Y-9009D01*
X12917Y-8953D01*
X12860Y-8897D01*
X12804Y-8784D01*
X12748Y-8559D01*
X12748Y-8278D01*
X12804Y-8053D01*
X12860Y-7941D01*
X12917Y-7884D01*
X13029Y-7828D01*
X13817Y-7828D02*
X14548Y-7828D01*
X14154Y-8278D01*
X14323Y-8278D01*
X14435Y-8334D01*
X14491Y-8391D01*
X14548Y-8503D01*
X14548Y-8784D01*
X14491Y-8897D01*
X14435Y-8953D01*
X14323Y-9009D01*
X13985Y-9009D01*
X13873Y-8953D01*
X13817Y-8897D01*
X15616Y-7828D02*
X15054Y-7828D01*
X14998Y-8391D01*
X15054Y-8334D01*
X15166Y-8278D01*
X15448Y-8278D01*
X15560Y-8334D01*
X15616Y-8391D01*
X15673Y-8503D01*
X15673Y-8784D01*
X15616Y-8897D01*
X15560Y-8953D01*
X15448Y-9009D01*
X15166Y-9009D01*
X15054Y-8953D01*
X14998Y-8897D01*
X16122Y-7828D02*
X16122Y-8053D01*
X16572Y-7828D02*
X16572Y-8053D01*
X18316Y-9459D02*
X18260Y-9403D01*
X18147Y-9234D01*
X18091Y-9122D01*
X18035Y-8953D01*
X17978Y-8672D01*
X17978Y-8447D01*
X18035Y-8166D01*
X18091Y-7997D01*
X18147Y-7884D01*
X18260Y-7716D01*
X18316Y-7659D01*
X19328Y-7828D02*
X18766Y-7828D01*
X18710Y-8391D01*
X18766Y-8334D01*
X18878Y-8278D01*
X19160Y-8278D01*
X19272Y-8334D01*
X19328Y-8391D01*
X19385Y-8503D01*
X19385Y-8784D01*
X19328Y-8897D01*
X19272Y-8953D01*
X19160Y-9009D01*
X18878Y-9009D01*
X18766Y-8953D01*
X18710Y-8897D01*
X19947Y-9009D02*
X20172Y-9009D01*
X20284Y-8953D01*
X20341Y-8897D01*
X20453Y-8728D01*
X20509Y-8503D01*
X20509Y-8053D01*
X20453Y-7941D01*
X20397Y-7884D01*
X20284Y-7828D01*
X20059Y-7828D01*
X19947Y-7884D01*
X19891Y-7941D01*
X19835Y-8053D01*
X19835Y-8334D01*
X19891Y-8447D01*
X19947Y-8503D01*
X20059Y-8559D01*
X20284Y-8559D01*
X20397Y-8503D01*
X20453Y-8447D01*
X20509Y-8334D01*
X21916Y-9009D02*
X21916Y-7828D01*
X22422Y-9009D02*
X22422Y-8391D01*
X22365Y-8278D01*
X22253Y-8222D01*
X22084Y-8222D01*
X21972Y-8278D01*
X21916Y-8334D01*
X23153Y-9009D02*
X23040Y-8953D01*
X22984Y-8897D01*
X22928Y-8784D01*
X22928Y-8447D01*
X22984Y-8334D01*
X23040Y-8278D01*
X23153Y-8222D01*
X23322Y-8222D01*
X23434Y-8278D01*
X23490Y-8334D01*
X23547Y-8447D01*
X23547Y-8784D01*
X23490Y-8897D01*
X23434Y-8953D01*
X23322Y-9009D01*
X23153Y-9009D01*
X24221Y-9009D02*
X24109Y-8953D01*
X24053Y-8841D01*
X24053Y-7828D01*
X25121Y-8953D02*
X25009Y-9009D01*
X24784Y-9009D01*
X24671Y-8953D01*
X24615Y-8841D01*
X24615Y-8391D01*
X24671Y-8278D01*
X24784Y-8222D01*
X25009Y-8222D01*
X25121Y-8278D01*
X25178Y-8391D01*
X25178Y-8503D01*
X24615Y-8616D01*
X25628Y-8953D02*
X25740Y-9009D01*
X25965Y-9009D01*
X26077Y-8953D01*
X26134Y-8841D01*
X26134Y-8784D01*
X26077Y-8672D01*
X25965Y-8616D01*
X25796Y-8616D01*
X25684Y-8559D01*
X25628Y-8447D01*
X25628Y-8391D01*
X25684Y-8278D01*
X25796Y-8222D01*
X25965Y-8222D01*
X26077Y-8278D01*
X26527Y-9459D02*
X26584Y-9403D01*
X26696Y-9234D01*
X26752Y-9122D01*
X26809Y-8953D01*
X26865Y-8672D01*
X26865Y-8447D01*
X26809Y-8166D01*
X26752Y-7997D01*
X26696Y-7884D01*
X26584Y-7716D01*
X26527Y-7659D01*
G54D12*
X-271Y-10287D02*
X-75Y-10090D01*
X-271Y-9893D01*
X-468Y-10090D01*
X-271Y-10287D01*
G54D13*
X1612Y-10568D02*
X937Y-10568D01*
X1274Y-10568D02*
X1274Y-9387D01*
X1162Y-9556D01*
X1049Y-9668D01*
X937Y-9725D01*
X2118Y-10456D02*
X2174Y-10512D01*
X2118Y-10568D01*
X2062Y-10512D01*
X2118Y-10456D01*
X2118Y-10568D01*
X2905Y-9387D02*
X3018Y-9387D01*
X3130Y-9443D01*
X3187Y-9500D01*
X3243Y-9612D01*
X3299Y-9837D01*
X3299Y-10118D01*
X3243Y-10343D01*
X3187Y-10456D01*
X3130Y-10512D01*
X3018Y-10568D01*
X2905Y-10568D01*
X2793Y-10512D01*
X2737Y-10456D01*
X2680Y-10343D01*
X2624Y-10118D01*
X2624Y-9837D01*
X2680Y-9612D01*
X2737Y-9500D01*
X2793Y-9443D01*
X2905Y-9387D01*
X4030Y-9387D02*
X4143Y-9387D01*
X4255Y-9443D01*
X4311Y-9500D01*
X4368Y-9612D01*
X4424Y-9837D01*
X4424Y-10118D01*
X4368Y-10343D01*
X4311Y-10456D01*
X4255Y-10512D01*
X4143Y-10568D01*
X4030Y-10568D01*
X3918Y-10512D01*
X3862Y-10456D01*
X3805Y-10343D01*
X3749Y-10118D01*
X3749Y-9837D01*
X3805Y-9612D01*
X3862Y-9500D01*
X3918Y-9443D01*
X4030Y-9387D01*
X4930Y-10568D02*
X4930Y-9781D01*
X4930Y-9893D02*
X4986Y-9837D01*
X5099Y-9781D01*
X5268Y-9781D01*
X5380Y-9837D01*
X5436Y-9950D01*
X5436Y-10568D01*
X5436Y-9950D02*
X5493Y-9837D01*
X5605Y-9781D01*
X5774Y-9781D01*
X5886Y-9837D01*
X5942Y-9950D01*
X5942Y-10568D01*
X6505Y-10568D02*
X6505Y-9781D01*
X6505Y-9893D02*
X6561Y-9837D01*
X6674Y-9781D01*
X6842Y-9781D01*
X6955Y-9837D01*
X7011Y-9950D01*
X7011Y-10568D01*
X7011Y-9950D02*
X7067Y-9837D01*
X7180Y-9781D01*
X7349Y-9781D01*
X7461Y-9837D01*
X7517Y-9950D01*
X7517Y-10568D01*
X9823Y-9331D02*
X8811Y-10850D01*
X11342Y-9387D02*
X11454Y-9387D01*
X11567Y-9443D01*
X11623Y-9500D01*
X11679Y-9612D01*
X11736Y-9837D01*
X11736Y-10118D01*
X11679Y-10343D01*
X11623Y-10456D01*
X11567Y-10512D01*
X11454Y-10568D01*
X11342Y-10568D01*
X11229Y-10512D01*
X11173Y-10456D01*
X11117Y-10343D01*
X11061Y-10118D01*
X11061Y-9837D01*
X11117Y-9612D01*
X11173Y-9500D01*
X11229Y-9443D01*
X11342Y-9387D01*
X12242Y-10456D02*
X12298Y-10512D01*
X12242Y-10568D01*
X12185Y-10512D01*
X12242Y-10456D01*
X12242Y-10568D01*
X13029Y-9387D02*
X13142Y-9387D01*
X13254Y-9443D01*
X13310Y-9500D01*
X13367Y-9612D01*
X13423Y-9837D01*
X13423Y-10118D01*
X13367Y-10343D01*
X13310Y-10456D01*
X13254Y-10512D01*
X13142Y-10568D01*
X13029Y-10568D01*
X12917Y-10512D01*
X12860Y-10456D01*
X12804Y-10343D01*
X12748Y-10118D01*
X12748Y-9837D01*
X12804Y-9612D01*
X12860Y-9500D01*
X12917Y-9443D01*
X13029Y-9387D01*
X13817Y-9387D02*
X14548Y-9387D01*
X14154Y-9837D01*
X14323Y-9837D01*
X14435Y-9893D01*
X14491Y-9950D01*
X14548Y-10062D01*
X14548Y-10343D01*
X14491Y-10456D01*
X14435Y-10512D01*
X14323Y-10568D01*
X13985Y-10568D01*
X13873Y-10512D01*
X13817Y-10456D01*
X15110Y-10568D02*
X15335Y-10568D01*
X15448Y-10512D01*
X15504Y-10456D01*
X15616Y-10287D01*
X15673Y-10062D01*
X15673Y-9612D01*
X15616Y-9500D01*
X15560Y-9443D01*
X15448Y-9387D01*
X15223Y-9387D01*
X15110Y-9443D01*
X15054Y-9500D01*
X14998Y-9612D01*
X14998Y-9893D01*
X15054Y-10006D01*
X15110Y-10062D01*
X15223Y-10118D01*
X15448Y-10118D01*
X15560Y-10062D01*
X15616Y-10006D01*
X15673Y-9893D01*
X16122Y-9387D02*
X16122Y-9612D01*
X16572Y-9387D02*
X16572Y-9612D01*
X18316Y-11018D02*
X18260Y-10962D01*
X18147Y-10793D01*
X18091Y-10681D01*
X18035Y-10512D01*
X17978Y-10231D01*
X17978Y-10006D01*
X18035Y-9725D01*
X18091Y-9556D01*
X18147Y-9443D01*
X18260Y-9275D01*
X18316Y-9218D01*
X19272Y-9781D02*
X19272Y-10568D01*
X18991Y-9331D02*
X18710Y-10175D01*
X19441Y-10175D01*
X20791Y-10568D02*
X20791Y-9387D01*
X21297Y-10568D02*
X21297Y-9950D01*
X21241Y-9837D01*
X21128Y-9781D01*
X20959Y-9781D01*
X20847Y-9837D01*
X20791Y-9893D01*
X22028Y-10568D02*
X21916Y-10512D01*
X21859Y-10456D01*
X21803Y-10343D01*
X21803Y-10006D01*
X21859Y-9893D01*
X21916Y-9837D01*
X22028Y-9781D01*
X22197Y-9781D01*
X22309Y-9837D01*
X22365Y-9893D01*
X22422Y-10006D01*
X22422Y-10343D01*
X22365Y-10456D01*
X22309Y-10512D01*
X22197Y-10568D01*
X22028Y-10568D01*
X23097Y-10568D02*
X22984Y-10512D01*
X22928Y-10400D01*
X22928Y-9387D01*
X23996Y-10512D02*
X23884Y-10568D01*
X23659Y-10568D01*
X23547Y-10512D01*
X23490Y-10400D01*
X23490Y-9950D01*
X23547Y-9837D01*
X23659Y-9781D01*
X23884Y-9781D01*
X23996Y-9837D01*
X24053Y-9950D01*
X24053Y-10062D01*
X23490Y-10175D01*
X24503Y-10512D02*
X24615Y-10568D01*
X24840Y-10568D01*
X24953Y-10512D01*
X25009Y-10400D01*
X25009Y-10343D01*
X24953Y-10231D01*
X24840Y-10175D01*
X24671Y-10175D01*
X24559Y-10118D01*
X24503Y-10006D01*
X24503Y-9950D01*
X24559Y-9837D01*
X24671Y-9781D01*
X24840Y-9781D01*
X24953Y-9837D01*
X25403Y-11018D02*
X25459Y-10962D01*
X25571Y-10793D01*
X25628Y-10681D01*
X25684Y-10512D01*
X25740Y-10231D01*
X25740Y-10006D01*
X25684Y-9725D01*
X25628Y-9556D01*
X25571Y-9443D01*
X25459Y-9275D01*
X25403Y-9218D01*
X-475Y-11449D02*
X-75Y-11849D01*
X-75Y-11449D02*
X-475Y-11849D01*
G54D12*
X-75Y-11649D02*
G75*
G03X-75Y-11649I-200J0D01*
G74*
G01*
G54D13*
X1612Y-12127D02*
X937Y-12127D01*
X1274Y-12127D02*
X1274Y-10946D01*
X1162Y-11115D01*
X1049Y-11227D01*
X937Y-11284D01*
X2118Y-12015D02*
X2174Y-12071D01*
X2118Y-12127D01*
X2062Y-12071D01*
X2118Y-12015D01*
X2118Y-12127D01*
X2905Y-10946D02*
X3018Y-10946D01*
X3130Y-11003D01*
X3187Y-11059D01*
X3243Y-11171D01*
X3299Y-11396D01*
X3299Y-11677D01*
X3243Y-11902D01*
X3187Y-12015D01*
X3130Y-12071D01*
X3018Y-12127D01*
X2905Y-12127D01*
X2793Y-12071D01*
X2737Y-12015D01*
X2680Y-11902D01*
X2624Y-11677D01*
X2624Y-11396D01*
X2680Y-11171D01*
X2737Y-11059D01*
X2793Y-11003D01*
X2905Y-10946D01*
X3749Y-11059D02*
X3805Y-11003D01*
X3918Y-10946D01*
X4199Y-10946D01*
X4311Y-11003D01*
X4368Y-11059D01*
X4424Y-11171D01*
X4424Y-11284D01*
X4368Y-11452D01*
X3693Y-12127D01*
X4424Y-12127D01*
X4930Y-12127D02*
X4930Y-11340D01*
X4930Y-11452D02*
X4986Y-11396D01*
X5099Y-11340D01*
X5268Y-11340D01*
X5380Y-11396D01*
X5436Y-11509D01*
X5436Y-12127D01*
X5436Y-11509D02*
X5493Y-11396D01*
X5605Y-11340D01*
X5774Y-11340D01*
X5886Y-11396D01*
X5942Y-11509D01*
X5942Y-12127D01*
X6505Y-12127D02*
X6505Y-11340D01*
X6505Y-11452D02*
X6561Y-11396D01*
X6674Y-11340D01*
X6842Y-11340D01*
X6955Y-11396D01*
X7011Y-11509D01*
X7011Y-12127D01*
X7011Y-11509D02*
X7067Y-11396D01*
X7180Y-11340D01*
X7349Y-11340D01*
X7461Y-11396D01*
X7517Y-11509D01*
X7517Y-12127D01*
X9823Y-10890D02*
X8811Y-12409D01*
X11342Y-10946D02*
X11454Y-10946D01*
X11567Y-11003D01*
X11623Y-11059D01*
X11679Y-11171D01*
X11736Y-11396D01*
X11736Y-11677D01*
X11679Y-11902D01*
X11623Y-12015D01*
X11567Y-12071D01*
X11454Y-12127D01*
X11342Y-12127D01*
X11229Y-12071D01*
X11173Y-12015D01*
X11117Y-11902D01*
X11061Y-11677D01*
X11061Y-11396D01*
X11117Y-11171D01*
X11173Y-11059D01*
X11229Y-11003D01*
X11342Y-10946D01*
X12242Y-12015D02*
X12298Y-12071D01*
X12242Y-12127D01*
X12185Y-12071D01*
X12242Y-12015D01*
X12242Y-12127D01*
X13029Y-10946D02*
X13142Y-10946D01*
X13254Y-11003D01*
X13310Y-11059D01*
X13367Y-11171D01*
X13423Y-11396D01*
X13423Y-11677D01*
X13367Y-11902D01*
X13310Y-12015D01*
X13254Y-12071D01*
X13142Y-12127D01*
X13029Y-12127D01*
X12917Y-12071D01*
X12860Y-12015D01*
X12804Y-11902D01*
X12748Y-11677D01*
X12748Y-11396D01*
X12804Y-11171D01*
X12860Y-11059D01*
X12917Y-11003D01*
X13029Y-10946D01*
X14435Y-11340D02*
X14435Y-12127D01*
X14154Y-10890D02*
X13873Y-11734D01*
X14604Y-11734D01*
X15279Y-10946D02*
X15391Y-10946D01*
X15504Y-11003D01*
X15560Y-11059D01*
X15616Y-11171D01*
X15673Y-11396D01*
X15673Y-11677D01*
X15616Y-11902D01*
X15560Y-12015D01*
X15504Y-12071D01*
X15391Y-12127D01*
X15279Y-12127D01*
X15166Y-12071D01*
X15110Y-12015D01*
X15054Y-11902D01*
X14998Y-11677D01*
X14998Y-11396D01*
X15054Y-11171D01*
X15110Y-11059D01*
X15166Y-11003D01*
X15279Y-10946D01*
X16122Y-10946D02*
X16122Y-11171D01*
X16572Y-10946D02*
X16572Y-11171D01*
X18316Y-12577D02*
X18260Y-12521D01*
X18147Y-12352D01*
X18091Y-12240D01*
X18035Y-12071D01*
X17978Y-11790D01*
X17978Y-11565D01*
X18035Y-11284D01*
X18091Y-11115D01*
X18147Y-11003D01*
X18260Y-10834D01*
X18316Y-10778D01*
X18653Y-10946D02*
X19385Y-10946D01*
X18991Y-11396D01*
X19160Y-11396D01*
X19272Y-11452D01*
X19328Y-11509D01*
X19385Y-11621D01*
X19385Y-11902D01*
X19328Y-12015D01*
X19272Y-12071D01*
X19160Y-12127D01*
X18822Y-12127D01*
X18710Y-12071D01*
X18653Y-12015D01*
X20791Y-12127D02*
X20791Y-10946D01*
X21297Y-12127D02*
X21297Y-11509D01*
X21241Y-11396D01*
X21128Y-11340D01*
X20959Y-11340D01*
X20847Y-11396D01*
X20791Y-11452D01*
X22028Y-12127D02*
X21916Y-12071D01*
X21859Y-12015D01*
X21803Y-11902D01*
X21803Y-11565D01*
X21859Y-11452D01*
X21916Y-11396D01*
X22028Y-11340D01*
X22197Y-11340D01*
X22309Y-11396D01*
X22365Y-11452D01*
X22422Y-11565D01*
X22422Y-11902D01*
X22365Y-12015D01*
X22309Y-12071D01*
X22197Y-12127D01*
X22028Y-12127D01*
X23097Y-12127D02*
X22984Y-12071D01*
X22928Y-11959D01*
X22928Y-10946D01*
X23996Y-12071D02*
X23884Y-12127D01*
X23659Y-12127D01*
X23547Y-12071D01*
X23490Y-11959D01*
X23490Y-11509D01*
X23547Y-11396D01*
X23659Y-11340D01*
X23884Y-11340D01*
X23996Y-11396D01*
X24053Y-11509D01*
X24053Y-11621D01*
X23490Y-11734D01*
X24503Y-12071D02*
X24615Y-12127D01*
X24840Y-12127D01*
X24953Y-12071D01*
X25009Y-11959D01*
X25009Y-11902D01*
X24953Y-11790D01*
X24840Y-11734D01*
X24671Y-11734D01*
X24559Y-11677D01*
X24503Y-11565D01*
X24503Y-11509D01*
X24559Y-11396D01*
X24671Y-11340D01*
X24840Y-11340D01*
X24953Y-11396D01*
X25403Y-12577D02*
X25459Y-12521D01*
X25571Y-12352D01*
X25628Y-12240D01*
X25684Y-12071D01*
X25740Y-11790D01*
X25740Y-11565D01*
X25684Y-11284D01*
X25628Y-11115D01*
X25571Y-11003D01*
X25459Y-10834D01*
X25403Y-10778D01*
X-1256Y-12618D02*
X-75Y-13799D01*
X-75Y-12618D02*
X-1256Y-13799D01*
X-665Y-12618D02*
X-665Y-13799D01*
X-1256Y-13208D02*
X-75Y-13208D01*
X881Y-12505D02*
X1612Y-12505D01*
X1218Y-12955D01*
X1387Y-12955D01*
X1499Y-13012D01*
X1556Y-13068D01*
X1612Y-13180D01*
X1612Y-13461D01*
X1556Y-13574D01*
X1499Y-13630D01*
X1387Y-13686D01*
X1049Y-13686D01*
X937Y-13630D01*
X881Y-13574D01*
X2118Y-13574D02*
X2174Y-13630D01*
X2118Y-13686D01*
X2062Y-13630D01*
X2118Y-13574D01*
X2118Y-13686D01*
X2905Y-12505D02*
X3018Y-12505D01*
X3130Y-12562D01*
X3187Y-12618D01*
X3243Y-12730D01*
X3299Y-12955D01*
X3299Y-13236D01*
X3243Y-13461D01*
X3187Y-13574D01*
X3130Y-13630D01*
X3018Y-13686D01*
X2905Y-13686D01*
X2793Y-13630D01*
X2737Y-13574D01*
X2680Y-13461D01*
X2624Y-13236D01*
X2624Y-12955D01*
X2680Y-12730D01*
X2737Y-12618D01*
X2793Y-12562D01*
X2905Y-12505D01*
X4030Y-12505D02*
X4143Y-12505D01*
X4255Y-12562D01*
X4311Y-12618D01*
X4368Y-12730D01*
X4424Y-12955D01*
X4424Y-13236D01*
X4368Y-13461D01*
X4311Y-13574D01*
X4255Y-13630D01*
X4143Y-13686D01*
X4030Y-13686D01*
X3918Y-13630D01*
X3862Y-13574D01*
X3805Y-13461D01*
X3749Y-13236D01*
X3749Y-12955D01*
X3805Y-12730D01*
X3862Y-12618D01*
X3918Y-12562D01*
X4030Y-12505D01*
X4930Y-13686D02*
X4930Y-12899D01*
X4930Y-13012D02*
X4986Y-12955D01*
X5099Y-12899D01*
X5268Y-12899D01*
X5380Y-12955D01*
X5436Y-13068D01*
X5436Y-13686D01*
X5436Y-13068D02*
X5493Y-12955D01*
X5605Y-12899D01*
X5774Y-12899D01*
X5886Y-12955D01*
X5942Y-13068D01*
X5942Y-13686D01*
X6505Y-13686D02*
X6505Y-12899D01*
X6505Y-13012D02*
X6561Y-12955D01*
X6674Y-12899D01*
X6842Y-12899D01*
X6955Y-12955D01*
X7011Y-13068D01*
X7011Y-13686D01*
X7011Y-13068D02*
X7067Y-12955D01*
X7180Y-12899D01*
X7349Y-12899D01*
X7461Y-12955D01*
X7517Y-13068D01*
X7517Y-13686D01*
X9823Y-12449D02*
X8811Y-13968D01*
X11342Y-12505D02*
X11454Y-12505D01*
X11567Y-12562D01*
X11623Y-12618D01*
X11679Y-12730D01*
X11736Y-12955D01*
X11736Y-13236D01*
X11679Y-13461D01*
X11623Y-13574D01*
X11567Y-13630D01*
X11454Y-13686D01*
X11342Y-13686D01*
X11229Y-13630D01*
X11173Y-13574D01*
X11117Y-13461D01*
X11061Y-13236D01*
X11061Y-12955D01*
X11117Y-12730D01*
X11173Y-12618D01*
X11229Y-12562D01*
X11342Y-12505D01*
X12242Y-13574D02*
X12298Y-13630D01*
X12242Y-13686D01*
X12185Y-13630D01*
X12242Y-13574D01*
X12242Y-13686D01*
X13423Y-13686D02*
X12748Y-13686D01*
X13085Y-13686D02*
X13085Y-12505D01*
X12973Y-12674D01*
X12860Y-12787D01*
X12748Y-12843D01*
X14548Y-13686D02*
X13873Y-13686D01*
X14210Y-13686D02*
X14210Y-12505D01*
X14098Y-12674D01*
X13985Y-12787D01*
X13873Y-12843D01*
X15223Y-13012D02*
X15110Y-12955D01*
X15054Y-12899D01*
X14998Y-12787D01*
X14998Y-12730D01*
X15054Y-12618D01*
X15110Y-12562D01*
X15223Y-12505D01*
X15448Y-12505D01*
X15560Y-12562D01*
X15616Y-12618D01*
X15673Y-12730D01*
X15673Y-12787D01*
X15616Y-12899D01*
X15560Y-12955D01*
X15448Y-13012D01*
X15223Y-13012D01*
X15110Y-13068D01*
X15054Y-13124D01*
X14998Y-13236D01*
X14998Y-13461D01*
X15054Y-13574D01*
X15110Y-13630D01*
X15223Y-13686D01*
X15448Y-13686D01*
X15560Y-13630D01*
X15616Y-13574D01*
X15673Y-13461D01*
X15673Y-13236D01*
X15616Y-13124D01*
X15560Y-13068D01*
X15448Y-13012D01*
X16122Y-12505D02*
X16122Y-12730D01*
X16572Y-12505D02*
X16572Y-12730D01*
X18316Y-14136D02*
X18260Y-14080D01*
X18147Y-13911D01*
X18091Y-13799D01*
X18035Y-13630D01*
X17978Y-13349D01*
X17978Y-13124D01*
X18035Y-12843D01*
X18091Y-12674D01*
X18147Y-12562D01*
X18260Y-12393D01*
X18316Y-12337D01*
X18653Y-12505D02*
X19385Y-12505D01*
X18991Y-12955D01*
X19160Y-12955D01*
X19272Y-13012D01*
X19328Y-13068D01*
X19385Y-13180D01*
X19385Y-13461D01*
X19328Y-13574D01*
X19272Y-13630D01*
X19160Y-13686D01*
X18822Y-13686D01*
X18710Y-13630D01*
X18653Y-13574D01*
X20791Y-13686D02*
X20791Y-12505D01*
X21297Y-13686D02*
X21297Y-13068D01*
X21241Y-12955D01*
X21128Y-12899D01*
X20959Y-12899D01*
X20847Y-12955D01*
X20791Y-13012D01*
X22028Y-13686D02*
X21916Y-13630D01*
X21859Y-13574D01*
X21803Y-13461D01*
X21803Y-13124D01*
X21859Y-13012D01*
X21916Y-12955D01*
X22028Y-12899D01*
X22197Y-12899D01*
X22309Y-12955D01*
X22365Y-13012D01*
X22422Y-13124D01*
X22422Y-13461D01*
X22365Y-13574D01*
X22309Y-13630D01*
X22197Y-13686D01*
X22028Y-13686D01*
X23097Y-13686D02*
X22984Y-13630D01*
X22928Y-13518D01*
X22928Y-12505D01*
X23996Y-13630D02*
X23884Y-13686D01*
X23659Y-13686D01*
X23547Y-13630D01*
X23490Y-13518D01*
X23490Y-13068D01*
X23547Y-12955D01*
X23659Y-12899D01*
X23884Y-12899D01*
X23996Y-12955D01*
X24053Y-13068D01*
X24053Y-13180D01*
X23490Y-13293D01*
X24503Y-13630D02*
X24615Y-13686D01*
X24840Y-13686D01*
X24953Y-13630D01*
X25009Y-13518D01*
X25009Y-13461D01*
X24953Y-13349D01*
X24840Y-13293D01*
X24671Y-13293D01*
X24559Y-13236D01*
X24503Y-13124D01*
X24503Y-13068D01*
X24559Y-12955D01*
X24671Y-12899D01*
X24840Y-12899D01*
X24953Y-12955D01*
X25403Y-14136D02*
X25459Y-14080D01*
X25571Y-13911D01*
X25628Y-13799D01*
X25684Y-13630D01*
X25740Y-13349D01*
X25740Y-13124D01*
X25684Y-12843D01*
X25628Y-12674D01*
X25571Y-12562D01*
X25459Y-12393D01*
X25403Y-12337D01*
X-1334Y-14271D02*
X-75Y-15531D01*
X-75Y-14271D02*
X-1334Y-15531D01*
G54D12*
X-259Y-15347D02*
X-259Y-14456D01*
X-1150Y-14456D01*
X-1150Y-15347D01*
X-259Y-15347D01*
G54D13*
X881Y-14198D02*
X1612Y-14198D01*
X1218Y-14648D01*
X1387Y-14648D01*
X1499Y-14704D01*
X1556Y-14761D01*
X1612Y-14873D01*
X1612Y-15154D01*
X1556Y-15267D01*
X1499Y-15323D01*
X1387Y-15379D01*
X1049Y-15379D01*
X937Y-15323D01*
X881Y-15267D01*
X2118Y-15267D02*
X2174Y-15323D01*
X2118Y-15379D01*
X2062Y-15323D01*
X2118Y-15267D01*
X2118Y-15379D01*
X2624Y-14311D02*
X2680Y-14254D01*
X2793Y-14198D01*
X3074Y-14198D01*
X3187Y-14254D01*
X3243Y-14311D01*
X3299Y-14423D01*
X3299Y-14536D01*
X3243Y-14704D01*
X2568Y-15379D01*
X3299Y-15379D01*
X4030Y-14198D02*
X4143Y-14198D01*
X4255Y-14254D01*
X4311Y-14311D01*
X4368Y-14423D01*
X4424Y-14648D01*
X4424Y-14929D01*
X4368Y-15154D01*
X4311Y-15267D01*
X4255Y-15323D01*
X4143Y-15379D01*
X4030Y-15379D01*
X3918Y-15323D01*
X3862Y-15267D01*
X3805Y-15154D01*
X3749Y-14929D01*
X3749Y-14648D01*
X3805Y-14423D01*
X3862Y-14311D01*
X3918Y-14254D01*
X4030Y-14198D01*
X4930Y-15379D02*
X4930Y-14592D01*
X4930Y-14704D02*
X4986Y-14648D01*
X5099Y-14592D01*
X5268Y-14592D01*
X5380Y-14648D01*
X5436Y-14761D01*
X5436Y-15379D01*
X5436Y-14761D02*
X5493Y-14648D01*
X5605Y-14592D01*
X5774Y-14592D01*
X5886Y-14648D01*
X5942Y-14761D01*
X5942Y-15379D01*
X6505Y-15379D02*
X6505Y-14592D01*
X6505Y-14704D02*
X6561Y-14648D01*
X6674Y-14592D01*
X6842Y-14592D01*
X6955Y-14648D01*
X7011Y-14761D01*
X7011Y-15379D01*
X7011Y-14761D02*
X7067Y-14648D01*
X7180Y-14592D01*
X7349Y-14592D01*
X7461Y-14648D01*
X7517Y-14761D01*
X7517Y-15379D01*
X9823Y-14142D02*
X8811Y-15661D01*
X11342Y-14198D02*
X11454Y-14198D01*
X11567Y-14254D01*
X11623Y-14311D01*
X11679Y-14423D01*
X11736Y-14648D01*
X11736Y-14929D01*
X11679Y-15154D01*
X11623Y-15267D01*
X11567Y-15323D01*
X11454Y-15379D01*
X11342Y-15379D01*
X11229Y-15323D01*
X11173Y-15267D01*
X11117Y-15154D01*
X11061Y-14929D01*
X11061Y-14648D01*
X11117Y-14423D01*
X11173Y-14311D01*
X11229Y-14254D01*
X11342Y-14198D01*
X12242Y-15267D02*
X12298Y-15323D01*
X12242Y-15379D01*
X12185Y-15323D01*
X12242Y-15267D01*
X12242Y-15379D01*
X13423Y-15379D02*
X12748Y-15379D01*
X13085Y-15379D02*
X13085Y-14198D01*
X12973Y-14367D01*
X12860Y-14479D01*
X12748Y-14536D01*
X13873Y-14311D02*
X13929Y-14254D01*
X14041Y-14198D01*
X14323Y-14198D01*
X14435Y-14254D01*
X14491Y-14311D01*
X14548Y-14423D01*
X14548Y-14536D01*
X14491Y-14704D01*
X13817Y-15379D01*
X14548Y-15379D01*
X15560Y-14198D02*
X15335Y-14198D01*
X15223Y-14254D01*
X15166Y-14311D01*
X15054Y-14479D01*
X14998Y-14704D01*
X14998Y-15154D01*
X15054Y-15267D01*
X15110Y-15323D01*
X15223Y-15379D01*
X15448Y-15379D01*
X15560Y-15323D01*
X15616Y-15267D01*
X15673Y-15154D01*
X15673Y-14873D01*
X15616Y-14761D01*
X15560Y-14704D01*
X15448Y-14648D01*
X15223Y-14648D01*
X15110Y-14704D01*
X15054Y-14761D01*
X14998Y-14873D01*
X16122Y-14198D02*
X16122Y-14423D01*
X16572Y-14198D02*
X16572Y-14423D01*
X18316Y-15829D02*
X18260Y-15773D01*
X18147Y-15604D01*
X18091Y-15492D01*
X18035Y-15323D01*
X17978Y-15042D01*
X17978Y-14817D01*
X18035Y-14536D01*
X18091Y-14367D01*
X18147Y-14254D01*
X18260Y-14086D01*
X18316Y-14030D01*
X19272Y-14592D02*
X19272Y-15379D01*
X18991Y-14142D02*
X18710Y-14986D01*
X19441Y-14986D01*
X20791Y-15379D02*
X20791Y-14198D01*
X21297Y-15379D02*
X21297Y-14761D01*
X21241Y-14648D01*
X21128Y-14592D01*
X20959Y-14592D01*
X20847Y-14648D01*
X20791Y-14704D01*
X22028Y-15379D02*
X21916Y-15323D01*
X21859Y-15267D01*
X21803Y-15154D01*
X21803Y-14817D01*
X21859Y-14704D01*
X21916Y-14648D01*
X22028Y-14592D01*
X22197Y-14592D01*
X22309Y-14648D01*
X22365Y-14704D01*
X22422Y-14817D01*
X22422Y-15154D01*
X22365Y-15267D01*
X22309Y-15323D01*
X22197Y-15379D01*
X22028Y-15379D01*
X23097Y-15379D02*
X22984Y-15323D01*
X22928Y-15211D01*
X22928Y-14198D01*
X23996Y-15323D02*
X23884Y-15379D01*
X23659Y-15379D01*
X23547Y-15323D01*
X23490Y-15211D01*
X23490Y-14761D01*
X23547Y-14648D01*
X23659Y-14592D01*
X23884Y-14592D01*
X23996Y-14648D01*
X24053Y-14761D01*
X24053Y-14873D01*
X23490Y-14986D01*
X24503Y-15323D02*
X24615Y-15379D01*
X24840Y-15379D01*
X24953Y-15323D01*
X25009Y-15211D01*
X25009Y-15154D01*
X24953Y-15042D01*
X24840Y-14986D01*
X24671Y-14986D01*
X24559Y-14929D01*
X24503Y-14817D01*
X24503Y-14761D01*
X24559Y-14648D01*
X24671Y-14592D01*
X24840Y-14592D01*
X24953Y-14648D01*
X25403Y-15829D02*
X25459Y-15773D01*
X25571Y-15604D01*
X25628Y-15492D01*
X25684Y-15323D01*
X25740Y-15042D01*
X25740Y-14817D01*
X25684Y-14536D01*
X25628Y-14367D01*
X25571Y-14254D01*
X25459Y-14086D01*
X25403Y-14030D01*
M02*
