M48
;DRILL file {Pcbnew (2013-mar-30)-stable} date Tue 14 May 2013 03:09:43 PM CDT
;FORMAT={2:4/ absolute / inch / suppress trailing zeros}
FMAT,2
INCH,LZ
T1C0.012
T2C0.020
T3C0.028
T4C0.035
T5C0.039
T6C0.040
T7C0.118
T8C0.126
%
G90
G05
M72
T1
X029095Y005552
X029095Y00504
X029095Y004528
X029606Y005552
X029606Y00504
X029606Y004528
X030118Y005552
X030118Y00504
X030118Y004528
X03063Y005552
X03063Y00504
X03063Y004528
X031142Y005552
X031142Y00504
X031142Y004528
X031654Y005552
X031654Y00504
X031693Y004528
X032165Y005552
X032165Y00504
X032165Y004528
T2
X005826Y008974
X00603Y0081
X00807Y0076
X0085Y01125
X010312Y011496
X01433Y01151
X01502Y01076
X01502Y00827
X0191Y00893
X01949Y009995
X0195Y00939
X01971Y00104
X021269Y005516
X02143Y003262
X021738Y002926
X02244Y002026
X02255Y00452
X022768Y00239
X02289Y00416
X02323Y00042
X02334Y00569
X023621Y002793
X02394Y00531
X02434Y00494
X024361Y001922
X02476Y00468
X02487Y00422
X02499Y00569
X02507Y00966
X025078Y003122
X02588Y005835
X02616Y001084
X02645Y00587
X027025Y005865
X02711Y00147
X02757Y00583
X02792Y00298
X02812Y005825
X02812Y00157
X02834Y00114
X02898Y00848
X02898Y00792
X02935Y00894
X03044Y01063
X03045Y00211
X030755Y00908
X03089Y01034
X03141Y00303
X03164Y00711
X03234Y00734
X032435Y00935
X03272Y00705
X033145Y006795
X03321Y0094
X03379Y00382
X03781Y00209
X03783Y00046
X03827Y00735
X04171Y00345
X04185Y00265
X042305Y00707
X04353Y00501
X04376Y0026
X04408Y005
T3
X0265Y003961
X0265Y002039
T4
X00925Y0095
X00925Y0085
X00925Y0075
X00925Y0065
X01025Y01
X01025Y009
X01025Y008
X01025Y007
X01175Y00425
X01175Y00125
X01218Y00579
X01275Y00425
X01275Y00125
X01318Y00579
X01375Y00425
X01375Y00125
X01418Y00579
X01475Y00425
X01475Y00125
X01518Y00579
X01575Y00425
X01575Y00125
X01618Y00579
X01675Y00425
X01675Y00125
X01718Y00579
X01775Y00425
X01775Y00125
X01818Y00579
X01875Y00425
X01875Y00125
X01918Y00579
X02018Y00579
X02925Y00125
X03025Y00125
X03125Y00125
X03225Y00125
X03325Y00125
X03425Y00125
X03475Y0095
X03475Y0085
X03475Y0075
X03475Y0065
X03525Y00125
X03575Y01
X03575Y009
X03575Y008
X03575Y007
X03625Y00125
X03725Y00125
X03825Y00125
X03875Y004
X03875Y003
X03925Y00125
X03975Y004
X03975Y003
X04025Y00125
X04075Y004
X04075Y003
T5
X03447Y004386
X03447Y002614
X03703Y004386
X03703Y002614
T6
X00875Y00375
X00875Y00275
X00875Y00175
T7
X00175Y01075
X00175Y00175
X04325Y01075
T8
X00675Y0105
X00675Y006
X03825Y0105
X03825Y006
T0
M30
