G04 (created by PCBNEW (2013-mar-30)-stable) date Fri 10 May 2013 06:00:25 PM CDT*
%MOIN*%
G04 Gerber Fmt 3.4, Leading zero omitted, Abs format*
%FSLAX34Y34*%
G01*
G70*
G90*
G04 APERTURE LIST*
%ADD10C,0.0006*%
%ADD11C,0.012*%
%ADD12C,0.0075*%
%ADD13C,0.008*%
%ADD14C,0.015*%
%ADD15R,0.08X0.08*%
%ADD16C,0.08*%
%ADD17C,0.0808661*%
%ADD18R,0.0808661X0.0808661*%
%ADD19R,0.3919X0.1439*%
%ADD20C,0.0651181*%
%ADD21C,0.135984*%
%ADD22R,0.0769291X0.0769291*%
%ADD23C,0.0769291*%
%ADD24C,0.12811*%
G04 APERTURE END LIST*
G54D10*
G54D11*
X5572Y3476D02*
X5629Y3514D01*
X5658Y3552D01*
X5687Y3628D01*
X5687Y3857D01*
X5658Y3933D01*
X5629Y3971D01*
X5572Y4009D01*
X5487Y4009D01*
X5429Y3971D01*
X5401Y3933D01*
X5372Y3857D01*
X5372Y3628D01*
X5401Y3552D01*
X5429Y3514D01*
X5487Y3476D01*
X5572Y3476D01*
X5115Y4009D02*
X5115Y3209D01*
X5115Y3971D02*
X5058Y4009D01*
X4944Y4009D01*
X4887Y3971D01*
X4858Y3933D01*
X4830Y3857D01*
X4830Y3628D01*
X4858Y3552D01*
X4887Y3514D01*
X4944Y3476D01*
X5058Y3476D01*
X5115Y3514D01*
X4344Y3514D02*
X4401Y3476D01*
X4515Y3476D01*
X4572Y3514D01*
X4601Y3590D01*
X4601Y3895D01*
X4572Y3971D01*
X4515Y4009D01*
X4401Y4009D01*
X4344Y3971D01*
X4315Y3895D01*
X4315Y3819D01*
X4601Y3742D01*
X4058Y4009D02*
X4058Y3476D01*
X4058Y3933D02*
X4029Y3971D01*
X3972Y4009D01*
X3887Y4009D01*
X3829Y3971D01*
X3801Y3895D01*
X3801Y3476D01*
X6101Y2274D02*
X6044Y2236D01*
X5930Y2236D01*
X5872Y2274D01*
X5844Y2350D01*
X5844Y2388D01*
X5872Y2464D01*
X5930Y2502D01*
X6015Y2502D01*
X6072Y2540D01*
X6101Y2617D01*
X6101Y2655D01*
X6072Y2731D01*
X6015Y2769D01*
X5930Y2769D01*
X5872Y2731D01*
X5501Y2236D02*
X5558Y2274D01*
X5587Y2312D01*
X5615Y2388D01*
X5615Y2617D01*
X5587Y2693D01*
X5558Y2731D01*
X5501Y2769D01*
X5415Y2769D01*
X5358Y2731D01*
X5330Y2693D01*
X5301Y2617D01*
X5301Y2388D01*
X5330Y2312D01*
X5358Y2274D01*
X5415Y2236D01*
X5501Y2236D01*
X4787Y2769D02*
X4787Y2236D01*
X5044Y2769D02*
X5044Y2350D01*
X5015Y2274D01*
X4958Y2236D01*
X4872Y2236D01*
X4815Y2274D01*
X4787Y2312D01*
X4501Y2236D02*
X4501Y2769D01*
X4501Y2617D02*
X4472Y2693D01*
X4444Y2731D01*
X4387Y2769D01*
X4330Y2769D01*
X3872Y2274D02*
X3930Y2236D01*
X4044Y2236D01*
X4101Y2274D01*
X4130Y2312D01*
X4158Y2388D01*
X4158Y2617D01*
X4130Y2693D01*
X4101Y2731D01*
X4044Y2769D01*
X3930Y2769D01*
X3872Y2731D01*
X3387Y2274D02*
X3444Y2236D01*
X3558Y2236D01*
X3615Y2274D01*
X3644Y2350D01*
X3644Y2655D01*
X3615Y2731D01*
X3558Y2769D01*
X3444Y2769D01*
X3387Y2731D01*
X3358Y2655D01*
X3358Y2579D01*
X3644Y2502D01*
X6615Y996D02*
X6615Y1796D01*
X6358Y996D02*
X6358Y1415D01*
X6387Y1491D01*
X6444Y1529D01*
X6530Y1529D01*
X6587Y1491D01*
X6615Y1453D01*
X5815Y996D02*
X5815Y1415D01*
X5844Y1491D01*
X5901Y1529D01*
X6015Y1529D01*
X6072Y1491D01*
X5815Y1034D02*
X5872Y996D01*
X6015Y996D01*
X6072Y1034D01*
X6101Y1110D01*
X6101Y1186D01*
X6072Y1262D01*
X6015Y1300D01*
X5872Y1300D01*
X5815Y1339D01*
X5530Y996D02*
X5530Y1529D01*
X5530Y1377D02*
X5501Y1453D01*
X5472Y1491D01*
X5415Y1529D01*
X5358Y1529D01*
X4901Y996D02*
X4901Y1796D01*
X4901Y1034D02*
X4958Y996D01*
X5072Y996D01*
X5129Y1034D01*
X5158Y1072D01*
X5187Y1148D01*
X5187Y1377D01*
X5158Y1453D01*
X5129Y1491D01*
X5072Y1529D01*
X4958Y1529D01*
X4901Y1491D01*
X4672Y1529D02*
X4558Y996D01*
X4444Y1377D01*
X4330Y996D01*
X4215Y1529D01*
X3730Y996D02*
X3730Y1415D01*
X3758Y1491D01*
X3815Y1529D01*
X3930Y1529D01*
X3987Y1491D01*
X3730Y1034D02*
X3787Y996D01*
X3930Y996D01*
X3987Y1034D01*
X4015Y1110D01*
X4015Y1186D01*
X3987Y1262D01*
X3930Y1300D01*
X3787Y1300D01*
X3730Y1339D01*
X3444Y996D02*
X3444Y1529D01*
X3444Y1377D02*
X3415Y1453D01*
X3387Y1491D01*
X3330Y1529D01*
X3272Y1529D01*
X2844Y1034D02*
X2901Y996D01*
X3015Y996D01*
X3072Y1034D01*
X3101Y1110D01*
X3101Y1415D01*
X3072Y1491D01*
X3015Y1529D01*
X2901Y1529D01*
X2844Y1491D01*
X2815Y1415D01*
X2815Y1339D01*
X3101Y1262D01*
X22682Y2537D02*
X22625Y2537D01*
X22567Y2508D01*
X22539Y2480D01*
X22510Y2422D01*
X22482Y2308D01*
X22482Y2165D01*
X22510Y2051D01*
X22539Y1994D01*
X22567Y1965D01*
X22625Y1937D01*
X22682Y1937D01*
X22739Y1965D01*
X22767Y1994D01*
X22796Y2051D01*
X22825Y2165D01*
X22825Y2308D01*
X22796Y2422D01*
X22767Y2480D01*
X22739Y2508D01*
X22682Y2537D01*
X22225Y2165D02*
X21767Y2165D01*
X21510Y2480D02*
X21482Y2508D01*
X21425Y2537D01*
X21282Y2537D01*
X21225Y2508D01*
X21196Y2480D01*
X21167Y2422D01*
X21167Y2365D01*
X21196Y2280D01*
X21539Y1937D01*
X21167Y1937D01*
X20625Y2537D02*
X20910Y2537D01*
X20939Y2251D01*
X20910Y2280D01*
X20853Y2308D01*
X20710Y2308D01*
X20653Y2280D01*
X20625Y2251D01*
X20596Y2194D01*
X20596Y2051D01*
X20625Y1994D01*
X20653Y1965D01*
X20710Y1937D01*
X20853Y1937D01*
X20910Y1965D01*
X20939Y1994D01*
X20053Y2537D02*
X20339Y2537D01*
X20367Y2251D01*
X20339Y2280D01*
X20282Y2308D01*
X20139Y2308D01*
X20082Y2280D01*
X20053Y2251D01*
X20024Y2194D01*
X20024Y2051D01*
X20053Y1994D01*
X20082Y1965D01*
X20139Y1937D01*
X20282Y1937D01*
X20339Y1965D01*
X20367Y1994D01*
G54D12*
X40310Y258D02*
X40410Y401D01*
X40481Y258D02*
X40481Y558D01*
X40367Y558D01*
X40338Y544D01*
X40324Y530D01*
X40310Y501D01*
X40310Y458D01*
X40324Y430D01*
X40338Y415D01*
X40367Y401D01*
X40481Y401D01*
X40210Y558D02*
X40010Y258D01*
X40010Y558D02*
X40210Y258D01*
X39468Y558D02*
X39297Y558D01*
X39382Y258D02*
X39382Y558D01*
X39225Y558D02*
X39025Y258D01*
X39025Y558D02*
X39225Y258D01*
X34438Y307D02*
X34452Y292D01*
X34495Y278D01*
X34524Y278D01*
X34567Y292D01*
X34595Y321D01*
X34609Y350D01*
X34624Y407D01*
X34624Y450D01*
X34609Y507D01*
X34595Y535D01*
X34567Y564D01*
X34524Y578D01*
X34495Y578D01*
X34452Y564D01*
X34438Y550D01*
X34167Y278D02*
X34309Y278D01*
X34309Y578D01*
X34067Y278D02*
X34067Y578D01*
X33895Y278D02*
X34024Y450D01*
X33895Y578D02*
X34067Y407D01*
X35639Y433D02*
X35539Y433D01*
X35496Y276D02*
X35639Y276D01*
X35639Y576D01*
X35496Y576D01*
X35196Y276D02*
X35296Y419D01*
X35367Y276D02*
X35367Y576D01*
X35253Y576D01*
X35224Y562D01*
X35210Y548D01*
X35196Y519D01*
X35196Y476D01*
X35210Y448D01*
X35224Y433D01*
X35253Y419D01*
X35367Y419D01*
X34896Y276D02*
X34996Y419D01*
X35067Y276D02*
X35067Y576D01*
X34953Y576D01*
X34924Y562D01*
X34910Y548D01*
X34896Y519D01*
X34896Y476D01*
X34910Y448D01*
X34924Y433D01*
X34953Y419D01*
X35067Y419D01*
X36532Y302D02*
X36490Y288D01*
X36418Y288D01*
X36390Y302D01*
X36375Y317D01*
X36361Y345D01*
X36361Y374D01*
X36375Y402D01*
X36390Y417D01*
X36418Y431D01*
X36475Y445D01*
X36504Y460D01*
X36518Y474D01*
X36532Y502D01*
X36532Y531D01*
X36518Y560D01*
X36504Y574D01*
X36475Y588D01*
X36404Y588D01*
X36361Y574D01*
X36175Y588D02*
X36118Y588D01*
X36090Y574D01*
X36061Y545D01*
X36047Y488D01*
X36047Y388D01*
X36061Y331D01*
X36090Y302D01*
X36118Y288D01*
X36175Y288D01*
X36204Y302D01*
X36232Y331D01*
X36247Y388D01*
X36247Y488D01*
X36232Y545D01*
X36204Y574D01*
X36175Y588D01*
X37468Y258D02*
X37468Y558D01*
X37397Y558D01*
X37354Y544D01*
X37325Y515D01*
X37311Y487D01*
X37297Y430D01*
X37297Y387D01*
X37311Y330D01*
X37325Y301D01*
X37354Y272D01*
X37397Y258D01*
X37468Y258D01*
X36997Y287D02*
X37011Y272D01*
X37054Y258D01*
X37082Y258D01*
X37125Y272D01*
X37154Y301D01*
X37168Y330D01*
X37182Y387D01*
X37182Y430D01*
X37168Y487D01*
X37154Y515D01*
X37125Y544D01*
X37082Y558D01*
X37054Y558D01*
X37011Y544D01*
X36997Y530D01*
X38645Y282D02*
X38602Y268D01*
X38531Y268D01*
X38502Y282D01*
X38488Y297D01*
X38474Y325D01*
X38474Y354D01*
X38488Y382D01*
X38502Y397D01*
X38531Y411D01*
X38588Y425D01*
X38617Y440D01*
X38631Y454D01*
X38645Y482D01*
X38645Y511D01*
X38631Y540D01*
X38617Y554D01*
X38588Y568D01*
X38517Y568D01*
X38474Y554D01*
X38174Y297D02*
X38188Y282D01*
X38231Y268D01*
X38260Y268D01*
X38302Y282D01*
X38331Y311D01*
X38345Y340D01*
X38360Y397D01*
X38360Y440D01*
X38345Y497D01*
X38331Y525D01*
X38302Y554D01*
X38260Y568D01*
X38231Y568D01*
X38188Y554D01*
X38174Y540D01*
X38045Y268D02*
X38045Y568D01*
X37874Y268D02*
X38002Y440D01*
X37874Y568D02*
X38045Y397D01*
X33373Y476D02*
X33331Y462D01*
X33316Y448D01*
X33302Y419D01*
X33302Y376D01*
X33316Y348D01*
X33331Y333D01*
X33359Y319D01*
X33473Y319D01*
X33473Y619D01*
X33373Y619D01*
X33345Y605D01*
X33331Y591D01*
X33316Y562D01*
X33316Y533D01*
X33331Y505D01*
X33345Y491D01*
X33373Y476D01*
X33473Y476D01*
X33031Y319D02*
X33173Y319D01*
X33173Y619D01*
X32308Y284D02*
X32451Y284D01*
X32451Y584D01*
X32251Y584D02*
X32079Y584D01*
X32165Y284D02*
X32165Y584D01*
X31550Y270D02*
X31550Y570D01*
X31450Y356D01*
X31350Y570D01*
X31350Y270D01*
X31150Y570D02*
X31093Y570D01*
X31064Y556D01*
X31035Y527D01*
X31021Y470D01*
X31021Y370D01*
X31035Y313D01*
X31064Y284D01*
X31093Y270D01*
X31150Y270D01*
X31178Y284D01*
X31207Y313D01*
X31221Y370D01*
X31221Y470D01*
X31207Y527D01*
X31178Y556D01*
X31150Y570D01*
X30449Y270D02*
X30449Y570D01*
X30349Y356D01*
X30249Y570D01*
X30249Y270D01*
X30106Y270D02*
X30106Y570D01*
X29655Y284D02*
X29612Y270D01*
X29541Y270D01*
X29512Y284D01*
X29498Y299D01*
X29484Y327D01*
X29484Y356D01*
X29498Y384D01*
X29512Y399D01*
X29541Y413D01*
X29598Y427D01*
X29627Y442D01*
X29641Y456D01*
X29655Y484D01*
X29655Y513D01*
X29641Y542D01*
X29627Y556D01*
X29598Y570D01*
X29527Y570D01*
X29484Y556D01*
X29184Y299D02*
X29198Y284D01*
X29241Y270D01*
X29270Y270D01*
X29312Y284D01*
X29341Y313D01*
X29355Y342D01*
X29370Y399D01*
X29370Y442D01*
X29355Y499D01*
X29341Y527D01*
X29312Y556D01*
X29270Y570D01*
X29241Y570D01*
X29198Y556D01*
X29184Y542D01*
X29055Y270D02*
X29055Y570D01*
X28884Y270D02*
X29012Y442D01*
X28884Y570D02*
X29055Y399D01*
G54D13*
X9906Y1938D02*
X10096Y1938D01*
X10115Y1747D01*
X10096Y1766D01*
X10058Y1785D01*
X9963Y1785D01*
X9925Y1766D01*
X9906Y1747D01*
X9887Y1709D01*
X9887Y1614D01*
X9906Y1576D01*
X9925Y1557D01*
X9963Y1538D01*
X10058Y1538D01*
X10096Y1557D01*
X10115Y1576D01*
X9772Y1938D02*
X9639Y1538D01*
X9506Y1938D01*
X10334Y2909D02*
X10372Y2928D01*
X10430Y2928D01*
X10487Y2909D01*
X10525Y2870D01*
X10544Y2832D01*
X10563Y2756D01*
X10563Y2699D01*
X10544Y2623D01*
X10525Y2585D01*
X10487Y2547D01*
X10430Y2528D01*
X10391Y2528D01*
X10334Y2547D01*
X10315Y2566D01*
X10315Y2699D01*
X10391Y2699D01*
X10144Y2528D02*
X10144Y2928D01*
X9915Y2528D01*
X9915Y2928D01*
X9725Y2528D02*
X9725Y2928D01*
X9629Y2928D01*
X9572Y2909D01*
X9534Y2870D01*
X9515Y2832D01*
X9496Y2756D01*
X9496Y2699D01*
X9515Y2623D01*
X9534Y2585D01*
X9572Y2547D01*
X9629Y2528D01*
X9725Y2528D01*
X10933Y4008D02*
X10799Y3608D01*
X10666Y4008D01*
X10400Y3817D02*
X10342Y3798D01*
X10323Y3779D01*
X10304Y3741D01*
X10304Y3684D01*
X10323Y3646D01*
X10342Y3627D01*
X10380Y3608D01*
X10533Y3608D01*
X10533Y4008D01*
X10400Y4008D01*
X10361Y3989D01*
X10342Y3970D01*
X10323Y3931D01*
X10323Y3893D01*
X10342Y3855D01*
X10361Y3836D01*
X10400Y3817D01*
X10533Y3817D01*
X10133Y4008D02*
X10133Y3684D01*
X10114Y3646D01*
X10095Y3627D01*
X10057Y3608D01*
X9980Y3608D01*
X9942Y3627D01*
X9923Y3646D01*
X9904Y3684D01*
X9904Y4008D01*
X9733Y3627D02*
X9676Y3608D01*
X9580Y3608D01*
X9542Y3627D01*
X9523Y3646D01*
X9504Y3684D01*
X9504Y3722D01*
X9523Y3760D01*
X9542Y3779D01*
X9580Y3798D01*
X9657Y3817D01*
X9695Y3836D01*
X9714Y3855D01*
X9733Y3893D01*
X9733Y3931D01*
X9714Y3970D01*
X9695Y3989D01*
X9657Y4008D01*
X9561Y4008D01*
X9504Y3989D01*
G54D11*
X42523Y11442D02*
X41723Y11442D01*
X42523Y11099D01*
X41723Y11099D01*
X41723Y10699D02*
X41723Y10585D01*
X41761Y10528D01*
X41838Y10471D01*
X41990Y10442D01*
X42257Y10442D01*
X42409Y10471D01*
X42485Y10528D01*
X42523Y10585D01*
X42523Y10699D01*
X42485Y10757D01*
X42409Y10814D01*
X42257Y10842D01*
X41990Y10842D01*
X41838Y10814D01*
X41761Y10757D01*
X41723Y10699D01*
X41723Y10271D02*
X41723Y9928D01*
X42523Y10100D02*
X41723Y10100D01*
X42104Y9271D02*
X42104Y9071D01*
X42523Y8985D02*
X42523Y9271D01*
X41723Y9271D01*
X41723Y8985D01*
X41723Y8814D02*
X41723Y8471D01*
X42523Y8642D02*
X41723Y8642D01*
X42523Y8271D02*
X41723Y8271D01*
X42104Y8271D02*
X42104Y7928D01*
X42523Y7928D02*
X41723Y7928D01*
X42104Y7642D02*
X42104Y7442D01*
X42523Y7357D02*
X42523Y7642D01*
X41723Y7642D01*
X41723Y7357D01*
X42523Y6757D02*
X42142Y6957D01*
X42523Y7100D02*
X41723Y7100D01*
X41723Y6871D01*
X41761Y6814D01*
X41800Y6785D01*
X41876Y6757D01*
X41990Y6757D01*
X42066Y6785D01*
X42104Y6814D01*
X42142Y6871D01*
X42142Y7100D01*
X42523Y6500D02*
X41723Y6500D01*
X42523Y6157D01*
X41723Y6157D01*
X42104Y5871D02*
X42104Y5671D01*
X42523Y5585D02*
X42523Y5871D01*
X41723Y5871D01*
X41723Y5585D01*
X41723Y5414D02*
X41723Y5071D01*
X42523Y5242D02*
X41723Y5242D01*
X3299Y11330D02*
X2499Y11330D01*
X3299Y10987D01*
X2499Y10987D01*
X2499Y10587D02*
X2499Y10473D01*
X2537Y10416D01*
X2614Y10359D01*
X2766Y10330D01*
X3033Y10330D01*
X3185Y10359D01*
X3261Y10416D01*
X3299Y10473D01*
X3299Y10587D01*
X3261Y10645D01*
X3185Y10702D01*
X3033Y10730D01*
X2766Y10730D01*
X2614Y10702D01*
X2537Y10645D01*
X2499Y10587D01*
X2499Y10159D02*
X2499Y9816D01*
X3299Y9988D02*
X2499Y9988D01*
X2880Y9159D02*
X2880Y8959D01*
X3299Y8873D02*
X3299Y9159D01*
X2499Y9159D01*
X2499Y8873D01*
X2499Y8702D02*
X2499Y8359D01*
X3299Y8530D02*
X2499Y8530D01*
X3299Y8159D02*
X2499Y8159D01*
X2880Y8159D02*
X2880Y7816D01*
X3299Y7816D02*
X2499Y7816D01*
X2880Y7530D02*
X2880Y7330D01*
X3299Y7245D02*
X3299Y7530D01*
X2499Y7530D01*
X2499Y7245D01*
X3299Y6645D02*
X2918Y6845D01*
X3299Y6988D02*
X2499Y6988D01*
X2499Y6759D01*
X2537Y6702D01*
X2576Y6673D01*
X2652Y6645D01*
X2766Y6645D01*
X2842Y6673D01*
X2880Y6702D01*
X2918Y6759D01*
X2918Y6988D01*
X3299Y6388D02*
X2499Y6388D01*
X3299Y6045D01*
X2499Y6045D01*
X2880Y5759D02*
X2880Y5559D01*
X3299Y5473D02*
X3299Y5759D01*
X2499Y5759D01*
X2499Y5473D01*
X2499Y5302D02*
X2499Y4959D01*
X3299Y5130D02*
X2499Y5130D01*
X32711Y6214D02*
X32711Y7014D01*
X32711Y6633D02*
X32368Y6633D01*
X32368Y6214D02*
X32368Y7014D01*
X32082Y6633D02*
X31882Y6633D01*
X31797Y6214D02*
X32082Y6214D01*
X32082Y7014D01*
X31797Y7014D01*
X31568Y6442D02*
X31282Y6442D01*
X31625Y6214D02*
X31425Y7014D01*
X31225Y6214D01*
X31111Y7014D02*
X30768Y7014D01*
X30940Y6214D02*
X30940Y7014D01*
X30597Y6252D02*
X30511Y6214D01*
X30368Y6214D01*
X30311Y6252D01*
X30282Y6290D01*
X30254Y6366D01*
X30254Y6442D01*
X30282Y6518D01*
X30311Y6557D01*
X30368Y6595D01*
X30482Y6633D01*
X30539Y6671D01*
X30568Y6709D01*
X30597Y6785D01*
X30597Y6861D01*
X30568Y6938D01*
X30539Y6976D01*
X30482Y7014D01*
X30339Y7014D01*
X30254Y6976D01*
X29997Y6214D02*
X29997Y7014D01*
X29711Y6214D02*
X29711Y7014D01*
X29368Y6214D01*
X29368Y7014D01*
X29082Y6214D02*
X29082Y7014D01*
X28740Y6214D02*
X28997Y6671D01*
X28740Y7014D02*
X29082Y6557D01*
G54D14*
X8950Y4450D02*
G75*
G03X8950Y4450I-200J0D01*
G74*
G01*
X8250Y4750D02*
X8250Y750D01*
X7750Y750D02*
X9250Y750D01*
X9250Y750D02*
X9250Y4750D01*
X9250Y4750D02*
X7750Y4750D01*
X7750Y4750D02*
X7750Y750D01*
X36931Y4681D02*
X37521Y4681D01*
X37521Y4681D02*
X37521Y3893D01*
X37521Y3893D02*
X36931Y3893D01*
X36931Y2318D02*
X37521Y2318D01*
X37521Y2318D02*
X37521Y3106D01*
X37521Y3106D02*
X36931Y3106D01*
X34568Y4681D02*
X33978Y4681D01*
X33978Y4681D02*
X33978Y3893D01*
X33978Y3893D02*
X34568Y3893D01*
X34568Y3106D02*
X33978Y3106D01*
X34568Y2318D02*
X33978Y2318D01*
X33978Y2318D02*
X33978Y3106D01*
X36340Y3500D02*
G75*
G03X36340Y3500I-590J0D01*
G74*
G01*
X34568Y2318D02*
X34568Y4681D01*
X34568Y4681D02*
X36931Y4681D01*
X36931Y4681D02*
X36931Y2318D01*
X36931Y2318D02*
X34568Y2318D01*
X21180Y5290D02*
X11180Y5290D01*
X11180Y5290D02*
X11180Y6290D01*
X11180Y6290D02*
X21180Y6290D01*
X20680Y5790D02*
G75*
G02X21180Y6290I500J0D01*
G74*
G01*
X21180Y5290D02*
G75*
G02X20680Y5790I0J500D01*
G74*
G01*
X21180Y6290D02*
X21180Y5290D01*
X28250Y750D02*
X41250Y750D01*
X41250Y750D02*
X41250Y1750D01*
X41250Y1750D02*
X28250Y1750D01*
X28750Y1250D02*
G75*
G02X28250Y750I-500J0D01*
G74*
G01*
X28250Y1750D02*
G75*
G02X28750Y1250I0J-500D01*
G74*
G01*
X28250Y750D02*
X28250Y1750D01*
X27484Y1818D02*
X27484Y4181D01*
X25515Y4181D02*
X25515Y1818D01*
X25515Y4181D02*
G75*
G02X26500Y5165I984J0D01*
G74*
G01*
X26500Y5165D02*
G75*
G02X27484Y4181I0J-984D01*
G74*
G01*
X27484Y1818D02*
G75*
G02X26500Y834I-984J0D01*
G74*
G01*
X26500Y834D02*
G75*
G02X25515Y1818I0J984D01*
G74*
G01*
X11750Y2750D02*
G75*
G02X11250Y2250I-500J0D01*
G74*
G01*
X11250Y3250D02*
G75*
G02X11750Y2750I0J-500D01*
G74*
G01*
X11250Y750D02*
X11250Y4750D01*
X11250Y4750D02*
X19250Y4750D01*
X19250Y4750D02*
X19250Y750D01*
X19250Y750D02*
X11250Y750D01*
X41340Y5257D02*
X34253Y5257D01*
X34253Y5257D02*
X34253Y11242D01*
X34253Y11242D02*
X41340Y11242D01*
X41340Y11242D02*
X41340Y5257D01*
X3659Y11242D02*
X10746Y11242D01*
X10746Y11242D02*
X10746Y5257D01*
X10746Y5257D02*
X3659Y5257D01*
X3659Y5257D02*
X3659Y11242D01*
X38291Y4600D02*
G75*
G03X38291Y4600I-141J0D01*
G74*
G01*
X38250Y2500D02*
X38250Y4500D01*
X38250Y4500D02*
X41250Y4500D01*
X41250Y4500D02*
X41250Y2500D01*
X41250Y2500D02*
X38250Y2500D01*
G54D11*
X33349Y3193D02*
X33549Y3478D01*
X33692Y3193D02*
X33692Y3793D01*
X33463Y3793D01*
X33406Y3764D01*
X33378Y3736D01*
X33349Y3678D01*
X33349Y3593D01*
X33378Y3536D01*
X33406Y3507D01*
X33463Y3478D01*
X33692Y3478D01*
X33092Y3507D02*
X32892Y3507D01*
X32806Y3193D02*
X33092Y3193D01*
X33092Y3793D01*
X32806Y3793D01*
X32578Y3221D02*
X32492Y3193D01*
X32349Y3193D01*
X32292Y3221D01*
X32263Y3250D01*
X32235Y3307D01*
X32235Y3364D01*
X32263Y3421D01*
X32292Y3450D01*
X32349Y3478D01*
X32463Y3507D01*
X32520Y3536D01*
X32549Y3564D01*
X32578Y3621D01*
X32578Y3678D01*
X32549Y3736D01*
X32520Y3764D01*
X32463Y3793D01*
X32320Y3793D01*
X32235Y3764D01*
X31978Y3507D02*
X31778Y3507D01*
X31692Y3193D02*
X31978Y3193D01*
X31978Y3793D01*
X31692Y3793D01*
X31520Y3793D02*
X31178Y3793D01*
X31349Y3193D02*
X31349Y3793D01*
X12180Y6527D02*
X12380Y6812D01*
X12522Y6527D02*
X12522Y7127D01*
X12294Y7127D01*
X12237Y7098D01*
X12208Y7070D01*
X12180Y7012D01*
X12180Y6927D01*
X12208Y6870D01*
X12237Y6841D01*
X12294Y6812D01*
X12522Y6812D01*
X11980Y7127D02*
X11608Y7127D01*
X11808Y6898D01*
X11722Y6898D01*
X11665Y6870D01*
X11637Y6841D01*
X11608Y6784D01*
X11608Y6641D01*
X11637Y6584D01*
X11665Y6555D01*
X11722Y6527D01*
X11894Y6527D01*
X11951Y6555D01*
X11980Y6584D01*
X20793Y6602D02*
X21136Y6602D01*
X20965Y6602D02*
X20965Y7202D01*
X21022Y7116D01*
X21079Y7059D01*
X21136Y7030D01*
X20422Y7202D02*
X20365Y7202D01*
X20307Y7173D01*
X20279Y7145D01*
X20250Y7087D01*
X20222Y6973D01*
X20222Y6830D01*
X20250Y6716D01*
X20279Y6659D01*
X20307Y6630D01*
X20365Y6602D01*
X20422Y6602D01*
X20479Y6630D01*
X20507Y6659D01*
X20536Y6716D01*
X20565Y6830D01*
X20565Y6973D01*
X20536Y7087D01*
X20507Y7145D01*
X20479Y7173D01*
X20422Y7202D01*
X19965Y6602D02*
X19965Y7202D01*
X19907Y6830D02*
X19736Y6602D01*
X19736Y7002D02*
X19965Y6773D01*
X19622Y6545D02*
X19165Y6545D01*
X18765Y6602D02*
X18765Y6916D01*
X18793Y6973D01*
X18850Y7002D01*
X18965Y7002D01*
X19022Y6973D01*
X18765Y6630D02*
X18822Y6602D01*
X18965Y6602D01*
X19022Y6630D01*
X19050Y6687D01*
X19050Y6745D01*
X19022Y6802D01*
X18965Y6830D01*
X18822Y6830D01*
X18765Y6859D01*
X18479Y6602D02*
X18479Y7002D01*
X18479Y6887D02*
X18450Y6945D01*
X18422Y6973D01*
X18365Y7002D01*
X18307Y7002D01*
X18107Y6602D02*
X18107Y7002D01*
X18107Y6887D02*
X18079Y6945D01*
X18050Y6973D01*
X17993Y7002D01*
X17936Y7002D01*
X31627Y2067D02*
X31627Y2667D01*
X31485Y2667D01*
X31399Y2638D01*
X31342Y2581D01*
X31313Y2524D01*
X31285Y2410D01*
X31285Y2324D01*
X31313Y2210D01*
X31342Y2152D01*
X31399Y2095D01*
X31485Y2067D01*
X31627Y2067D01*
X31027Y2381D02*
X30827Y2381D01*
X30742Y2067D02*
X31027Y2067D01*
X31027Y2667D01*
X30742Y2667D01*
X30285Y2381D02*
X30199Y2352D01*
X30170Y2324D01*
X30142Y2267D01*
X30142Y2181D01*
X30170Y2124D01*
X30199Y2095D01*
X30256Y2067D01*
X30485Y2067D01*
X30485Y2667D01*
X30285Y2667D01*
X30227Y2638D01*
X30199Y2610D01*
X30170Y2552D01*
X30170Y2495D01*
X30199Y2438D01*
X30227Y2410D01*
X30285Y2381D01*
X30485Y2381D01*
X29885Y2667D02*
X29885Y2181D01*
X29856Y2124D01*
X29827Y2095D01*
X29770Y2067D01*
X29656Y2067D01*
X29599Y2095D01*
X29570Y2124D01*
X29542Y2181D01*
X29542Y2667D01*
X28942Y2638D02*
X28999Y2667D01*
X29085Y2667D01*
X29170Y2638D01*
X29227Y2581D01*
X29256Y2524D01*
X29285Y2410D01*
X29285Y2324D01*
X29256Y2210D01*
X29227Y2152D01*
X29170Y2095D01*
X29085Y2067D01*
X29027Y2067D01*
X28942Y2095D01*
X28913Y2124D01*
X28913Y2324D01*
X29027Y2324D01*
X27449Y5567D02*
X27792Y5567D01*
X27620Y5567D02*
X27620Y6167D01*
X27677Y6081D01*
X27734Y6024D01*
X27792Y5995D01*
X26934Y6167D02*
X27049Y6167D01*
X27106Y6138D01*
X27134Y6110D01*
X27192Y6024D01*
X27220Y5910D01*
X27220Y5681D01*
X27192Y5624D01*
X27163Y5595D01*
X27106Y5567D01*
X26992Y5567D01*
X26934Y5595D01*
X26906Y5624D01*
X26877Y5681D01*
X26877Y5824D01*
X26906Y5881D01*
X26934Y5910D01*
X26992Y5938D01*
X27106Y5938D01*
X27163Y5910D01*
X27192Y5881D01*
X27220Y5824D01*
X26620Y5567D02*
X26620Y6167D01*
X26420Y5738D01*
X26220Y6167D01*
X26220Y5567D01*
X25934Y5567D02*
X25934Y6167D01*
X25934Y5881D02*
X25592Y5881D01*
X25592Y5567D02*
X25592Y6167D01*
X25363Y5967D02*
X25049Y5967D01*
X25363Y5567D01*
X25049Y5567D01*
X23385Y3083D02*
X23100Y3083D01*
X23442Y2912D02*
X23242Y3512D01*
X23042Y2912D01*
X22842Y2912D02*
X22842Y3512D01*
X22700Y3512D01*
X22614Y3483D01*
X22557Y3426D01*
X22528Y3369D01*
X22500Y3255D01*
X22500Y3169D01*
X22528Y3055D01*
X22557Y2997D01*
X22614Y2940D01*
X22700Y2912D01*
X22842Y2912D01*
X22242Y2912D02*
X22242Y3512D01*
X22100Y3512D01*
X22014Y3483D01*
X21957Y3426D01*
X21928Y3369D01*
X21900Y3255D01*
X21900Y3169D01*
X21928Y3055D01*
X21957Y2997D01*
X22014Y2940D01*
X22100Y2912D01*
X22242Y2912D01*
X21300Y2912D02*
X21500Y3197D01*
X21642Y2912D02*
X21642Y3512D01*
X21414Y3512D01*
X21357Y3483D01*
X21328Y3455D01*
X21300Y3397D01*
X21300Y3312D01*
X21328Y3255D01*
X21357Y3226D01*
X21414Y3197D01*
X21642Y3197D01*
X21042Y3226D02*
X20842Y3226D01*
X20757Y2912D02*
X21042Y2912D01*
X21042Y3512D01*
X20757Y3512D01*
X20528Y2940D02*
X20442Y2912D01*
X20300Y2912D01*
X20242Y2940D01*
X20214Y2969D01*
X20185Y3026D01*
X20185Y3083D01*
X20214Y3140D01*
X20242Y3169D01*
X20300Y3197D01*
X20414Y3226D01*
X20471Y3255D01*
X20500Y3283D01*
X20528Y3340D01*
X20528Y3397D01*
X20500Y3455D01*
X20471Y3483D01*
X20414Y3512D01*
X20271Y3512D01*
X20185Y3483D01*
X19957Y2940D02*
X19871Y2912D01*
X19728Y2912D01*
X19671Y2940D01*
X19642Y2969D01*
X19614Y3026D01*
X19614Y3083D01*
X19642Y3140D01*
X19671Y3169D01*
X19728Y3197D01*
X19842Y3226D01*
X19899Y3255D01*
X19928Y3283D01*
X19957Y3340D01*
X19957Y3397D01*
X19928Y3455D01*
X19899Y3483D01*
X19842Y3512D01*
X19699Y3512D01*
X19614Y3483D01*
X42262Y4040D02*
X41662Y4040D01*
X42234Y3783D02*
X42262Y3697D01*
X42262Y3555D01*
X42234Y3497D01*
X42205Y3469D01*
X42148Y3440D01*
X42091Y3440D01*
X42034Y3469D01*
X42005Y3497D01*
X41977Y3555D01*
X41948Y3669D01*
X41920Y3726D01*
X41891Y3755D01*
X41834Y3783D01*
X41777Y3783D01*
X41720Y3755D01*
X41691Y3726D01*
X41662Y3669D01*
X41662Y3526D01*
X41691Y3440D01*
X42262Y3183D02*
X41662Y3183D01*
X41662Y2954D01*
X41691Y2897D01*
X41720Y2869D01*
X41777Y2840D01*
X41862Y2840D01*
X41920Y2869D01*
X41948Y2897D01*
X41977Y2954D01*
X41977Y3183D01*
%LPC*%
G54D15*
X8750Y3750D03*
G54D16*
X8750Y2750D03*
X8750Y1750D03*
G54D17*
X34470Y4385D03*
X37029Y4385D03*
X34470Y2614D03*
X37029Y2614D03*
G54D18*
X20180Y5790D03*
G54D17*
X19180Y5790D03*
X18180Y5790D03*
X17180Y5790D03*
X16180Y5790D03*
X15180Y5790D03*
X14180Y5790D03*
X13180Y5790D03*
X12180Y5790D03*
G54D18*
X29250Y1250D03*
G54D17*
X30250Y1250D03*
X31250Y1250D03*
X32250Y1250D03*
X33250Y1250D03*
X34250Y1250D03*
X35250Y1250D03*
X36250Y1250D03*
X37250Y1250D03*
X38250Y1250D03*
X39250Y1250D03*
X40250Y1250D03*
G54D19*
X30630Y5040D03*
G54D20*
X26500Y3960D03*
X26500Y2039D03*
G54D18*
X11750Y4250D03*
G54D17*
X12750Y4250D03*
X14750Y4250D03*
X15750Y4250D03*
X16750Y4250D03*
X17750Y4250D03*
X18750Y4250D03*
X18750Y1250D03*
X17750Y1250D03*
X16750Y1250D03*
X15750Y1250D03*
X14750Y1250D03*
X13750Y1250D03*
X12750Y1250D03*
X11750Y1250D03*
X13750Y4250D03*
X35750Y10000D03*
X34750Y9500D03*
X35750Y9000D03*
X34750Y8500D03*
X35750Y8000D03*
X34750Y7500D03*
X35750Y7000D03*
X34750Y6500D03*
G54D21*
X38250Y10500D03*
X38250Y6000D03*
G54D17*
X9250Y6500D03*
X10250Y7000D03*
X9250Y7500D03*
X10250Y8000D03*
X9250Y8500D03*
X10250Y9000D03*
X9250Y9500D03*
X10250Y10000D03*
G54D21*
X6750Y6000D03*
X6750Y10500D03*
G54D22*
X38750Y4000D03*
G54D23*
X38750Y3000D03*
X39750Y4000D03*
X39750Y3000D03*
X40750Y4000D03*
X40750Y3000D03*
G54D24*
X43250Y10750D03*
X1750Y10750D03*
X1750Y1750D03*
G54D10*
G36*
X4358Y3545D02*
X4468Y4235D01*
X5032Y4235D01*
X5142Y3545D01*
X4358Y3545D01*
X4358Y3545D01*
G37*
G36*
X3557Y2887D02*
X3147Y3453D01*
X3546Y3852D01*
X4112Y3442D01*
X3557Y2887D01*
X3557Y2887D01*
G37*
G36*
X3455Y1858D02*
X2765Y1968D01*
X2765Y2532D01*
X3455Y2642D01*
X3455Y1858D01*
X3455Y1858D01*
G37*
G36*
X4112Y1057D02*
X3546Y647D01*
X3147Y1046D01*
X3557Y1612D01*
X4112Y1057D01*
X4112Y1057D01*
G37*
G36*
X5387Y3442D02*
X5953Y3852D01*
X6352Y3453D01*
X5942Y2887D01*
X5387Y3442D01*
X5387Y3442D01*
G37*
G36*
X6045Y2642D02*
X6735Y2532D01*
X6735Y1968D01*
X6045Y1858D01*
X6045Y2642D01*
X6045Y2642D01*
G37*
G36*
X5942Y1612D02*
X6352Y1046D01*
X5953Y647D01*
X5387Y1057D01*
X5942Y1612D01*
X5942Y1612D01*
G37*
G36*
X4568Y2692D02*
X4405Y3694D01*
X5094Y3694D01*
X4931Y2692D01*
X4568Y2692D01*
X4568Y2692D01*
G37*
G36*
X4750Y2727D02*
X4983Y3715D01*
X5620Y3452D01*
X5085Y2588D01*
X4750Y2727D01*
X4750Y2727D01*
G37*
G36*
X4414Y2588D02*
X3879Y3452D01*
X4516Y3715D01*
X4749Y2727D01*
X4414Y2588D01*
X4414Y2588D01*
G37*
G36*
X4309Y2433D02*
X3486Y3026D01*
X3973Y3513D01*
X4566Y2690D01*
X4309Y2433D01*
X4309Y2433D01*
G37*
G36*
X4933Y2690D02*
X5526Y3513D01*
X6013Y3026D01*
X5190Y2433D01*
X4933Y2690D01*
X4933Y2690D01*
G37*
G36*
X4272Y2250D02*
X3284Y2483D01*
X3547Y3120D01*
X4411Y2585D01*
X4272Y2250D01*
X4272Y2250D01*
G37*
G36*
X5088Y2585D02*
X5952Y3120D01*
X6215Y2483D01*
X5227Y2250D01*
X5088Y2585D01*
X5088Y2585D01*
G37*
G36*
X4308Y2068D02*
X3306Y1905D01*
X3306Y2594D01*
X4308Y2431D01*
X4308Y2068D01*
X4308Y2068D01*
G37*
G36*
X5192Y2431D02*
X6194Y2594D01*
X6194Y1905D01*
X5192Y2068D01*
X5192Y2431D01*
X5192Y2431D01*
G37*
G36*
X5227Y2249D02*
X6215Y2016D01*
X5952Y1379D01*
X5088Y1914D01*
X5227Y2249D01*
X5227Y2249D01*
G37*
G36*
X4411Y1914D02*
X3547Y1379D01*
X3284Y2016D01*
X4272Y2249D01*
X4411Y1914D01*
X4411Y1914D01*
G37*
G36*
X4566Y1809D02*
X3973Y986D01*
X3486Y1473D01*
X4309Y2066D01*
X4566Y1809D01*
X4566Y1809D01*
G37*
G36*
X5190Y2066D02*
X6013Y1473D01*
X5526Y986D01*
X4933Y1809D01*
X5190Y2066D01*
X5190Y2066D01*
G37*
G36*
X5091Y1946D02*
X5715Y1158D01*
X5386Y939D01*
X4898Y1818D01*
X5091Y1946D01*
X5091Y1946D01*
G37*
G36*
X4601Y1818D02*
X4113Y939D01*
X3784Y1158D01*
X4408Y1946D01*
X4601Y1818D01*
X4601Y1818D01*
G37*
M02*
