G04 (created by PCBNEW (2013-mar-30)-stable) date Tue 14 May 2013 03:43:35 PM CDT*
%MOIN*%
G04 Gerber Fmt 3.4, Leading zero omitted, Abs format*
%FSLAX34Y34*%
G01*
G70*
G90*
G04 APERTURE LIST*
%ADD10C,0.0006*%
%ADD11C,0.007*%
%ADD12C,0.01*%
%ADD13C,0.015*%
%ADD14C,0.012*%
%ADD15C,0.0075*%
%ADD16R,0.0651X0.0238*%
%ADD17R,0.08X0.08*%
%ADD18C,0.08*%
%ADD19C,0.0808661*%
%ADD20R,0.0808661X0.0808661*%
%ADD21R,0.0769X0.1163*%
%ADD22R,0.0612X0.1163*%
%ADD23R,0.0218X0.073*%
%ADD24R,0.269843X0.112362*%
%ADD25C,0.0651181*%
%ADD26C,0.135984*%
%ADD27R,0.0769291X0.0769291*%
%ADD28C,0.0769291*%
%ADD29R,0.0808661X0.0729921*%
%ADD30R,0.0375591X0.0375591*%
%ADD31C,0.12811*%
G04 APERTURE END LIST*
G54D10*
G54D11*
X604Y3402D02*
X887Y3402D01*
X921Y3385D01*
X937Y3369D01*
X954Y3335D01*
X954Y3285D01*
X937Y3252D01*
X821Y3402D02*
X837Y3369D01*
X837Y3302D01*
X821Y3269D01*
X804Y3252D01*
X771Y3235D01*
X671Y3235D01*
X637Y3252D01*
X621Y3269D01*
X604Y3302D01*
X604Y3369D01*
X621Y3402D01*
X837Y3569D02*
X604Y3569D01*
X487Y3569D02*
X504Y3552D01*
X521Y3569D01*
X504Y3585D01*
X487Y3569D01*
X521Y3569D01*
X604Y3685D02*
X604Y3819D01*
X487Y3735D02*
X787Y3735D01*
X821Y3752D01*
X837Y3785D01*
X837Y3819D01*
X837Y3935D02*
X487Y3935D01*
X837Y4085D02*
X654Y4085D01*
X621Y4069D01*
X604Y4035D01*
X604Y3985D01*
X621Y3952D01*
X637Y3935D01*
X604Y4402D02*
X837Y4402D01*
X604Y4252D02*
X787Y4252D01*
X821Y4269D01*
X837Y4302D01*
X837Y4352D01*
X821Y4385D01*
X804Y4402D01*
X837Y4569D02*
X487Y4569D01*
X621Y4569D02*
X604Y4602D01*
X604Y4669D01*
X621Y4702D01*
X637Y4719D01*
X671Y4735D01*
X771Y4735D01*
X804Y4719D01*
X821Y4702D01*
X837Y4669D01*
X837Y4602D01*
X821Y4569D01*
X804Y4885D02*
X821Y4902D01*
X837Y4885D01*
X821Y4869D01*
X804Y4885D01*
X837Y4885D01*
X821Y5202D02*
X837Y5169D01*
X837Y5102D01*
X821Y5069D01*
X804Y5052D01*
X771Y5035D01*
X671Y5035D01*
X637Y5052D01*
X621Y5069D01*
X604Y5102D01*
X604Y5169D01*
X621Y5202D01*
X837Y5402D02*
X821Y5369D01*
X804Y5352D01*
X771Y5335D01*
X671Y5335D01*
X637Y5352D01*
X621Y5369D01*
X604Y5402D01*
X604Y5452D01*
X621Y5485D01*
X637Y5502D01*
X671Y5519D01*
X771Y5519D01*
X804Y5502D01*
X821Y5485D01*
X837Y5452D01*
X837Y5402D01*
X837Y5669D02*
X604Y5669D01*
X637Y5669D02*
X621Y5685D01*
X604Y5719D01*
X604Y5769D01*
X621Y5802D01*
X654Y5819D01*
X837Y5819D01*
X654Y5819D02*
X621Y5835D01*
X604Y5869D01*
X604Y5919D01*
X621Y5952D01*
X654Y5969D01*
X837Y5969D01*
X471Y6385D02*
X921Y6085D01*
X837Y6502D02*
X604Y6502D01*
X637Y6502D02*
X621Y6519D01*
X604Y6552D01*
X604Y6602D01*
X621Y6635D01*
X654Y6652D01*
X837Y6652D01*
X654Y6652D02*
X621Y6669D01*
X604Y6702D01*
X604Y6752D01*
X621Y6785D01*
X654Y6802D01*
X837Y6802D01*
X821Y7119D02*
X837Y7085D01*
X837Y7019D01*
X821Y6985D01*
X804Y6969D01*
X771Y6952D01*
X671Y6952D01*
X637Y6969D01*
X621Y6985D01*
X604Y7019D01*
X604Y7085D01*
X621Y7119D01*
X837Y7319D02*
X821Y7285D01*
X804Y7269D01*
X771Y7252D01*
X671Y7252D01*
X637Y7269D01*
X621Y7285D01*
X604Y7319D01*
X604Y7369D01*
X621Y7402D01*
X637Y7419D01*
X671Y7435D01*
X771Y7435D01*
X804Y7419D01*
X821Y7402D01*
X837Y7369D01*
X837Y7319D01*
X604Y7735D02*
X837Y7735D01*
X604Y7585D02*
X787Y7585D01*
X821Y7602D01*
X837Y7635D01*
X837Y7685D01*
X821Y7718D01*
X804Y7735D01*
X821Y7885D02*
X837Y7918D01*
X837Y7985D01*
X821Y8018D01*
X787Y8035D01*
X771Y8035D01*
X737Y8018D01*
X721Y7985D01*
X721Y7935D01*
X704Y7902D01*
X671Y7885D01*
X654Y7885D01*
X621Y7902D01*
X604Y7935D01*
X604Y7985D01*
X621Y8018D01*
X471Y8435D02*
X921Y8135D01*
X837Y8552D02*
X604Y8552D01*
X671Y8552D02*
X637Y8568D01*
X621Y8585D01*
X604Y8618D01*
X604Y8652D01*
X604Y8918D02*
X887Y8918D01*
X921Y8902D01*
X937Y8885D01*
X954Y8852D01*
X954Y8802D01*
X937Y8768D01*
X821Y8918D02*
X837Y8885D01*
X837Y8818D01*
X821Y8785D01*
X804Y8768D01*
X771Y8752D01*
X671Y8752D01*
X637Y8768D01*
X621Y8785D01*
X604Y8818D01*
X604Y8885D01*
X621Y8918D01*
X837Y9085D02*
X487Y9085D01*
X621Y9085D02*
X604Y9118D01*
X604Y9185D01*
X621Y9218D01*
X637Y9235D01*
X671Y9252D01*
X771Y9252D01*
X804Y9235D01*
X821Y9218D01*
X837Y9185D01*
X837Y9118D01*
X821Y9085D01*
G54D12*
X39762Y5557D02*
X39429Y5557D01*
X39476Y5557D02*
X39452Y5581D01*
X39429Y5629D01*
X39429Y5700D01*
X39452Y5748D01*
X39500Y5771D01*
X39762Y5771D01*
X39500Y5771D02*
X39452Y5795D01*
X39429Y5843D01*
X39429Y5914D01*
X39452Y5962D01*
X39500Y5986D01*
X39762Y5986D01*
X39762Y6224D02*
X39429Y6224D01*
X39262Y6224D02*
X39286Y6200D01*
X39310Y6224D01*
X39286Y6248D01*
X39262Y6224D01*
X39310Y6224D01*
X39738Y6676D02*
X39762Y6629D01*
X39762Y6533D01*
X39738Y6486D01*
X39714Y6462D01*
X39667Y6438D01*
X39524Y6438D01*
X39476Y6462D01*
X39452Y6486D01*
X39429Y6533D01*
X39429Y6629D01*
X39452Y6676D01*
X39762Y6890D02*
X39262Y6890D01*
X39762Y7105D02*
X39500Y7105D01*
X39452Y7081D01*
X39429Y7033D01*
X39429Y6962D01*
X39452Y6914D01*
X39476Y6890D01*
X39762Y7557D02*
X39500Y7557D01*
X39452Y7533D01*
X39429Y7486D01*
X39429Y7390D01*
X39452Y7343D01*
X39738Y7557D02*
X39762Y7510D01*
X39762Y7390D01*
X39738Y7343D01*
X39690Y7319D01*
X39643Y7319D01*
X39595Y7343D01*
X39571Y7390D01*
X39571Y7510D01*
X39548Y7557D01*
X39738Y7986D02*
X39762Y7938D01*
X39762Y7843D01*
X39738Y7795D01*
X39690Y7771D01*
X39500Y7771D01*
X39452Y7795D01*
X39429Y7843D01*
X39429Y7938D01*
X39452Y7986D01*
X39500Y8010D01*
X39548Y8010D01*
X39595Y7771D01*
X39762Y8295D02*
X39738Y8248D01*
X39690Y8224D01*
X39262Y8224D01*
X39738Y9081D02*
X39762Y9033D01*
X39762Y8938D01*
X39738Y8890D01*
X39714Y8867D01*
X39667Y8843D01*
X39524Y8843D01*
X39476Y8867D01*
X39452Y8890D01*
X39429Y8938D01*
X39429Y9033D01*
X39452Y9081D01*
X39762Y9367D02*
X39738Y9319D01*
X39714Y9295D01*
X39667Y9271D01*
X39524Y9271D01*
X39476Y9295D01*
X39452Y9319D01*
X39429Y9367D01*
X39429Y9438D01*
X39452Y9486D01*
X39476Y9510D01*
X39524Y9533D01*
X39667Y9533D01*
X39714Y9510D01*
X39738Y9486D01*
X39762Y9438D01*
X39762Y9367D01*
X39429Y9962D02*
X39762Y9962D01*
X39429Y9748D02*
X39690Y9748D01*
X39738Y9771D01*
X39762Y9819D01*
X39762Y9890D01*
X39738Y9938D01*
X39714Y9962D01*
X39738Y10176D02*
X39762Y10224D01*
X39762Y10319D01*
X39738Y10367D01*
X39690Y10390D01*
X39667Y10390D01*
X39619Y10367D01*
X39595Y10319D01*
X39595Y10248D01*
X39571Y10200D01*
X39524Y10176D01*
X39500Y10176D01*
X39452Y10200D01*
X39429Y10248D01*
X39429Y10319D01*
X39452Y10367D01*
X39762Y10605D02*
X39429Y10605D01*
X39262Y10605D02*
X39286Y10581D01*
X39310Y10605D01*
X39286Y10629D01*
X39262Y10605D01*
X39310Y10605D01*
X39429Y10843D02*
X39762Y10843D01*
X39476Y10843D02*
X39452Y10867D01*
X39429Y10914D01*
X39429Y10986D01*
X39452Y11033D01*
X39500Y11057D01*
X39762Y11057D01*
X39738Y11271D02*
X39762Y11319D01*
X39762Y11414D01*
X39738Y11462D01*
X39690Y11486D01*
X39667Y11486D01*
X39619Y11462D01*
X39595Y11414D01*
X39595Y11343D01*
X39571Y11295D01*
X39524Y11271D01*
X39500Y11271D01*
X39452Y11295D01*
X39429Y11343D01*
X39429Y11414D01*
X39452Y11462D01*
X40538Y5974D02*
X40562Y5926D01*
X40562Y5831D01*
X40538Y5783D01*
X40514Y5760D01*
X40467Y5736D01*
X40324Y5736D01*
X40276Y5760D01*
X40252Y5783D01*
X40229Y5831D01*
X40229Y5926D01*
X40252Y5974D01*
X40562Y6260D02*
X40538Y6212D01*
X40514Y6188D01*
X40467Y6164D01*
X40324Y6164D01*
X40276Y6188D01*
X40252Y6212D01*
X40229Y6260D01*
X40229Y6331D01*
X40252Y6379D01*
X40276Y6402D01*
X40324Y6426D01*
X40467Y6426D01*
X40514Y6402D01*
X40538Y6379D01*
X40562Y6331D01*
X40562Y6260D01*
X40229Y6640D02*
X40729Y6640D01*
X40252Y6640D02*
X40229Y6688D01*
X40229Y6783D01*
X40252Y6831D01*
X40276Y6855D01*
X40324Y6879D01*
X40467Y6879D01*
X40514Y6855D01*
X40538Y6831D01*
X40562Y6783D01*
X40562Y6688D01*
X40538Y6640D01*
X40229Y7045D02*
X40562Y7164D01*
X40229Y7283D02*
X40562Y7164D01*
X40681Y7117D01*
X40705Y7093D01*
X40729Y7045D01*
X40562Y7474D02*
X40229Y7474D01*
X40324Y7474D02*
X40276Y7498D01*
X40252Y7521D01*
X40229Y7569D01*
X40229Y7617D01*
X40562Y7783D02*
X40229Y7783D01*
X40062Y7783D02*
X40086Y7760D01*
X40110Y7783D01*
X40086Y7807D01*
X40062Y7783D01*
X40110Y7783D01*
X40229Y8236D02*
X40633Y8236D01*
X40681Y8212D01*
X40705Y8188D01*
X40729Y8140D01*
X40729Y8069D01*
X40705Y8021D01*
X40538Y8236D02*
X40562Y8188D01*
X40562Y8093D01*
X40538Y8045D01*
X40514Y8021D01*
X40467Y7998D01*
X40324Y7998D01*
X40276Y8021D01*
X40252Y8045D01*
X40229Y8093D01*
X40229Y8188D01*
X40252Y8236D01*
X40562Y8474D02*
X40062Y8474D01*
X40562Y8688D02*
X40300Y8688D01*
X40252Y8664D01*
X40229Y8617D01*
X40229Y8545D01*
X40252Y8498D01*
X40276Y8474D01*
X40229Y8855D02*
X40229Y9045D01*
X40062Y8926D02*
X40490Y8926D01*
X40538Y8950D01*
X40562Y8998D01*
X40562Y9045D01*
X40110Y9569D02*
X40086Y9593D01*
X40062Y9640D01*
X40062Y9760D01*
X40086Y9807D01*
X40110Y9831D01*
X40157Y9855D01*
X40205Y9855D01*
X40276Y9831D01*
X40562Y9545D01*
X40562Y9855D01*
X40062Y10164D02*
X40062Y10212D01*
X40086Y10260D01*
X40110Y10283D01*
X40157Y10307D01*
X40252Y10331D01*
X40371Y10331D01*
X40467Y10307D01*
X40514Y10283D01*
X40538Y10260D01*
X40562Y10212D01*
X40562Y10164D01*
X40538Y10117D01*
X40514Y10093D01*
X40467Y10069D01*
X40371Y10045D01*
X40252Y10045D01*
X40157Y10069D01*
X40110Y10093D01*
X40086Y10117D01*
X40062Y10164D01*
X40562Y10807D02*
X40562Y10521D01*
X40562Y10664D02*
X40062Y10664D01*
X40133Y10617D01*
X40181Y10569D01*
X40205Y10521D01*
X40062Y10974D02*
X40062Y11283D01*
X40252Y11117D01*
X40252Y11188D01*
X40276Y11236D01*
X40300Y11260D01*
X40348Y11283D01*
X40467Y11283D01*
X40514Y11260D01*
X40538Y11236D01*
X40562Y11188D01*
X40562Y11045D01*
X40538Y10998D01*
X40514Y10974D01*
X41338Y6283D02*
X41362Y6236D01*
X41362Y6140D01*
X41338Y6093D01*
X41314Y6069D01*
X41267Y6045D01*
X41124Y6045D01*
X41076Y6069D01*
X41052Y6093D01*
X41029Y6140D01*
X41029Y6236D01*
X41052Y6283D01*
X41338Y6712D02*
X41362Y6664D01*
X41362Y6569D01*
X41338Y6521D01*
X41314Y6498D01*
X41267Y6474D01*
X41124Y6474D01*
X41076Y6498D01*
X41052Y6521D01*
X41029Y6569D01*
X41029Y6664D01*
X41052Y6712D01*
X41362Y7307D02*
X40862Y7307D01*
X41052Y7307D02*
X41029Y7355D01*
X41029Y7450D01*
X41052Y7498D01*
X41076Y7521D01*
X41124Y7545D01*
X41267Y7545D01*
X41314Y7521D01*
X41338Y7498D01*
X41362Y7450D01*
X41362Y7355D01*
X41338Y7307D01*
X41029Y7712D02*
X41362Y7831D01*
X41029Y7950D02*
X41362Y7831D01*
X41481Y7783D01*
X41505Y7760D01*
X41529Y7712D01*
X41171Y8140D02*
X41171Y8521D01*
X41338Y8736D02*
X41362Y8783D01*
X41362Y8879D01*
X41338Y8926D01*
X41290Y8950D01*
X41267Y8950D01*
X41219Y8926D01*
X41195Y8879D01*
X41195Y8807D01*
X41171Y8760D01*
X41124Y8736D01*
X41100Y8736D01*
X41052Y8760D01*
X41029Y8807D01*
X41029Y8879D01*
X41052Y8926D01*
X41362Y9379D02*
X41100Y9379D01*
X41052Y9355D01*
X41029Y9307D01*
X41029Y9212D01*
X41052Y9164D01*
X41338Y9379D02*
X41362Y9331D01*
X41362Y9212D01*
X41338Y9164D01*
X41290Y9140D01*
X41243Y9140D01*
X41195Y9164D01*
X41171Y9212D01*
X41171Y9331D01*
X41148Y9379D01*
X40862Y9950D02*
X40862Y10260D01*
X41052Y10093D01*
X41052Y10164D01*
X41076Y10212D01*
X41100Y10236D01*
X41148Y10260D01*
X41267Y10260D01*
X41314Y10236D01*
X41338Y10212D01*
X41362Y10164D01*
X41362Y10021D01*
X41338Y9974D01*
X41314Y9950D01*
X41314Y10474D02*
X41338Y10498D01*
X41362Y10474D01*
X41338Y10450D01*
X41314Y10474D01*
X41362Y10474D01*
X40862Y10807D02*
X40862Y10855D01*
X40886Y10902D01*
X40910Y10926D01*
X40957Y10950D01*
X41052Y10974D01*
X41171Y10974D01*
X41267Y10950D01*
X41314Y10926D01*
X41338Y10902D01*
X41362Y10855D01*
X41362Y10807D01*
X41338Y10760D01*
X41314Y10736D01*
X41267Y10712D01*
X41171Y10688D01*
X41052Y10688D01*
X40957Y10712D01*
X40910Y10736D01*
X40886Y10760D01*
X40862Y10807D01*
G54D13*
X5425Y8899D02*
G75*
G03X5425Y8899I-197J0D01*
G74*
G01*
X6586Y9194D02*
X4854Y9194D01*
X4854Y9194D02*
X4854Y7226D01*
X4854Y7226D02*
X6586Y7226D01*
X6586Y7226D02*
X6586Y9194D01*
X22696Y1858D02*
G75*
G03X22696Y1858I-196J0D01*
G74*
G01*
X22778Y1022D02*
X22221Y1022D01*
X22221Y1022D02*
X19994Y3250D01*
X19994Y3250D02*
X22500Y5755D01*
X22500Y5755D02*
X25005Y3250D01*
X25005Y3250D02*
X22778Y1022D01*
X12205Y9303D02*
G75*
G03X12205Y9303I-197J0D01*
G74*
G01*
X11614Y8614D02*
X11614Y10386D01*
X11614Y10386D02*
X13386Y10386D01*
X13386Y10386D02*
X13386Y8614D01*
X13386Y8614D02*
X11614Y8614D01*
X17205Y9303D02*
G75*
G03X17205Y9303I-197J0D01*
G74*
G01*
X16614Y8614D02*
X16614Y10386D01*
X16614Y10386D02*
X18386Y10386D01*
X18386Y10386D02*
X18386Y8614D01*
X18386Y8614D02*
X16614Y8614D01*
X22205Y9303D02*
G75*
G03X22205Y9303I-197J0D01*
G74*
G01*
X21614Y8614D02*
X21614Y10386D01*
X21614Y10386D02*
X23386Y10386D01*
X23386Y10386D02*
X23386Y8614D01*
X23386Y8614D02*
X21614Y8614D01*
X27205Y9303D02*
G75*
G03X27205Y9303I-197J0D01*
G74*
G01*
X26614Y8614D02*
X26614Y10386D01*
X26614Y10386D02*
X28386Y10386D01*
X28386Y10386D02*
X28386Y8614D01*
X28386Y8614D02*
X26614Y8614D01*
X32205Y9303D02*
G75*
G03X32205Y9303I-197J0D01*
G74*
G01*
X31614Y8614D02*
X31614Y10386D01*
X31614Y10386D02*
X33386Y10386D01*
X33386Y10386D02*
X33386Y8614D01*
X33386Y8614D02*
X31614Y8614D01*
X32402Y5434D02*
G75*
G03X32402Y5434I-197J0D01*
G74*
G01*
X28721Y5827D02*
X28721Y5906D01*
X28721Y5906D02*
X32539Y5906D01*
X28721Y5827D02*
X28721Y4174D01*
X28721Y4174D02*
X32539Y4174D01*
X32539Y5906D02*
X32539Y4174D01*
X10564Y4629D02*
X10564Y3370D01*
X10564Y3370D02*
X9935Y3370D01*
X9935Y3370D02*
X9935Y4629D01*
X9935Y4629D02*
X10564Y4629D01*
X9935Y1120D02*
X9935Y2379D01*
X9935Y2379D02*
X10564Y2379D01*
X10564Y2379D02*
X10564Y1120D01*
X10564Y1120D02*
X9935Y1120D01*
X25967Y2584D02*
X25967Y1955D01*
X25967Y1955D02*
X25652Y1955D01*
X25652Y1955D02*
X25652Y2584D01*
X25652Y2584D02*
X25967Y2584D01*
X44214Y3654D02*
X43585Y3654D01*
X43585Y3654D02*
X43585Y3969D01*
X43585Y3969D02*
X44214Y3969D01*
X44214Y3969D02*
X44214Y3654D01*
X44214Y3092D02*
X43585Y3092D01*
X43585Y3092D02*
X43585Y3407D01*
X43585Y3407D02*
X44214Y3407D01*
X44214Y3407D02*
X44214Y3092D01*
X15233Y7424D02*
X15233Y6795D01*
X15233Y6795D02*
X14918Y6795D01*
X14918Y6795D02*
X14918Y7424D01*
X14918Y7424D02*
X15233Y7424D01*
X10205Y5787D02*
X10834Y5787D01*
X10834Y5787D02*
X10834Y5472D01*
X10834Y5472D02*
X10205Y5472D01*
X10205Y5472D02*
X10205Y5787D01*
X32852Y3935D02*
X32852Y4564D01*
X32852Y4564D02*
X33167Y4564D01*
X33167Y4564D02*
X33167Y3935D01*
X33167Y3935D02*
X32852Y3935D01*
X32764Y3027D02*
X32135Y3027D01*
X32135Y3027D02*
X32135Y3342D01*
X32135Y3342D02*
X32764Y3342D01*
X32764Y3342D02*
X32764Y3027D01*
X23835Y1208D02*
X24281Y1654D01*
X24281Y1654D02*
X24504Y1431D01*
X24504Y1431D02*
X24058Y985D01*
X24058Y985D02*
X23835Y1208D01*
X3512Y8435D02*
X3512Y9064D01*
X3512Y9064D02*
X3827Y9064D01*
X3827Y9064D02*
X3827Y8435D01*
X3827Y8435D02*
X3512Y8435D01*
X24992Y1955D02*
X24992Y2584D01*
X24992Y2584D02*
X25307Y2584D01*
X25307Y2584D02*
X25307Y1955D01*
X25307Y1955D02*
X24992Y1955D01*
X5015Y6807D02*
X5644Y6807D01*
X5644Y6807D02*
X5644Y6492D01*
X5644Y6492D02*
X5015Y6492D01*
X5015Y6492D02*
X5015Y6807D01*
X20274Y1362D02*
X19645Y1362D01*
X19645Y1362D02*
X19645Y1677D01*
X19645Y1677D02*
X20274Y1677D01*
X20274Y1677D02*
X20274Y1362D01*
X25637Y4694D02*
X25637Y4065D01*
X25637Y4065D02*
X25322Y4065D01*
X25322Y4065D02*
X25322Y4694D01*
X25322Y4694D02*
X25637Y4694D01*
X4915Y9887D02*
X5544Y9887D01*
X5544Y9887D02*
X5544Y9572D01*
X5544Y9572D02*
X4915Y9572D01*
X4915Y9572D02*
X4915Y9887D01*
X3827Y7934D02*
X3827Y7305D01*
X3827Y7305D02*
X3512Y7305D01*
X3512Y7305D02*
X3512Y7934D01*
X3512Y7934D02*
X3827Y7934D01*
X7512Y8815D02*
X7512Y9444D01*
X7512Y9444D02*
X7827Y9444D01*
X7827Y9444D02*
X7827Y8815D01*
X7827Y8815D02*
X7512Y8815D01*
X42265Y10750D02*
G75*
G03X43250Y9765I984J0D01*
G74*
G01*
X42462Y10750D02*
G75*
G03X43250Y9962I787J0D01*
G74*
G01*
X42659Y10750D02*
G75*
G03X43250Y10159I590J0D01*
G74*
G01*
X42856Y10750D02*
G75*
G03X43250Y10356I393J0D01*
G74*
G01*
X43053Y10750D02*
G75*
G03X43250Y10553I196J0D01*
G74*
G01*
X44234Y10750D02*
G75*
G03X43250Y11734I-984J0D01*
G74*
G01*
X44037Y10750D02*
G75*
G03X43250Y11537I-787J0D01*
G74*
G01*
X43840Y10750D02*
G75*
G03X43250Y11340I-590J0D01*
G74*
G01*
X43643Y10750D02*
G75*
G03X43250Y11143I-393J0D01*
G74*
G01*
X43446Y10750D02*
G75*
G03X43250Y10946I-196J0D01*
G74*
G01*
X43250Y10750D02*
X43250Y9568D01*
X43250Y10750D02*
X42068Y10750D01*
X43250Y10750D02*
X44431Y10750D01*
X43250Y10750D02*
X43250Y11931D01*
X44431Y10750D02*
G75*
G03X44431Y10750I-1181J0D01*
G74*
G01*
X765Y10750D02*
G75*
G03X1750Y9765I984J0D01*
G74*
G01*
X962Y10750D02*
G75*
G03X1750Y9962I787J0D01*
G74*
G01*
X1159Y10750D02*
G75*
G03X1750Y10159I590J0D01*
G74*
G01*
X1356Y10750D02*
G75*
G03X1750Y10356I393J0D01*
G74*
G01*
X1553Y10750D02*
G75*
G03X1750Y10553I196J0D01*
G74*
G01*
X2734Y10750D02*
G75*
G03X1750Y11734I-984J0D01*
G74*
G01*
X2537Y10750D02*
G75*
G03X1750Y11537I-787J0D01*
G74*
G01*
X2340Y10750D02*
G75*
G03X1750Y11340I-590J0D01*
G74*
G01*
X2143Y10750D02*
G75*
G03X1750Y11143I-393J0D01*
G74*
G01*
X1946Y10750D02*
G75*
G03X1750Y10946I-196J0D01*
G74*
G01*
X1750Y10750D02*
X1750Y9568D01*
X1750Y10750D02*
X568Y10750D01*
X1750Y10750D02*
X2931Y10750D01*
X1750Y10750D02*
X1750Y11931D01*
X2931Y10750D02*
G75*
G03X2931Y10750I-1181J0D01*
G74*
G01*
X765Y1750D02*
G75*
G03X1750Y765I984J0D01*
G74*
G01*
X962Y1750D02*
G75*
G03X1750Y962I787J0D01*
G74*
G01*
X1159Y1750D02*
G75*
G03X1750Y1159I590J0D01*
G74*
G01*
X1356Y1750D02*
G75*
G03X1750Y1356I393J0D01*
G74*
G01*
X1553Y1750D02*
G75*
G03X1750Y1553I196J0D01*
G74*
G01*
X2734Y1750D02*
G75*
G03X1750Y2734I-984J0D01*
G74*
G01*
X2537Y1750D02*
G75*
G03X1750Y2537I-787J0D01*
G74*
G01*
X2340Y1750D02*
G75*
G03X1750Y2340I-590J0D01*
G74*
G01*
X2143Y1750D02*
G75*
G03X1750Y2143I-393J0D01*
G74*
G01*
X1946Y1750D02*
G75*
G03X1750Y1946I-196J0D01*
G74*
G01*
X1750Y1750D02*
X1750Y568D01*
X1750Y1750D02*
X568Y1750D01*
X1750Y1750D02*
X2931Y1750D01*
X1750Y1750D02*
X1750Y2931D01*
X2931Y1750D02*
G75*
G03X2931Y1750I-1181J0D01*
G74*
G01*
G54D14*
X18892Y3010D02*
X19094Y3212D01*
X18973Y2848D02*
X18690Y3414D01*
X19255Y3131D01*
X18912Y3636D02*
X19154Y3879D01*
X19458Y3333D02*
X19033Y3757D01*
X19720Y3596D02*
X19296Y4020D01*
X19740Y3858D01*
X19579Y4303D01*
X20003Y3879D01*
X19983Y4303D02*
X20124Y4444D01*
X20407Y4283D02*
X20205Y4081D01*
X19781Y4505D01*
X19983Y4707D01*
X20407Y5091D02*
X20346Y5071D01*
X20286Y5010D01*
X20245Y4929D01*
X20245Y4848D01*
X20266Y4788D01*
X20326Y4687D01*
X20387Y4626D01*
X20488Y4565D01*
X20548Y4545D01*
X20629Y4545D01*
X20710Y4586D01*
X20751Y4626D01*
X20791Y4707D01*
X20791Y4747D01*
X20649Y4889D01*
X20569Y4808D01*
X20872Y4990D02*
X21074Y5192D01*
X20953Y4828D02*
X20670Y5394D01*
X21235Y5111D01*
X20912Y5636D02*
X21175Y5899D01*
X21195Y5596D01*
X21256Y5656D01*
X21316Y5677D01*
X21357Y5677D01*
X21417Y5656D01*
X21518Y5555D01*
X21538Y5495D01*
X21538Y5454D01*
X21518Y5394D01*
X21397Y5273D01*
X21336Y5252D01*
X21296Y5252D01*
X21377Y6020D02*
X21377Y6060D01*
X21397Y6121D01*
X21498Y6222D01*
X21559Y6242D01*
X21599Y6242D01*
X21660Y6222D01*
X21700Y6182D01*
X21740Y6101D01*
X21740Y5616D01*
X22003Y5879D01*
X22003Y6364D02*
X21942Y6343D01*
X21902Y6343D01*
X21841Y6364D01*
X21821Y6384D01*
X21801Y6444D01*
X21801Y6485D01*
X21821Y6545D01*
X21902Y6626D01*
X21963Y6646D01*
X22003Y6646D01*
X22064Y6626D01*
X22084Y6606D01*
X22104Y6545D01*
X22104Y6505D01*
X22084Y6444D01*
X22003Y6364D01*
X21983Y6303D01*
X21983Y6262D01*
X22003Y6202D01*
X22084Y6121D01*
X22145Y6101D01*
X22185Y6101D01*
X22246Y6121D01*
X22326Y6202D01*
X22347Y6262D01*
X22347Y6303D01*
X22326Y6364D01*
X22246Y6444D01*
X22185Y6465D01*
X22145Y6465D01*
X22084Y6444D01*
X22589Y6465D02*
X22165Y6889D01*
X22326Y7050D01*
X22387Y7071D01*
X22427Y7071D01*
X22488Y7050D01*
X22549Y6990D01*
X22569Y6929D01*
X22569Y6889D01*
X22549Y6828D01*
X22387Y6667D01*
X11846Y11531D02*
X11646Y11816D01*
X11503Y11531D02*
X11503Y12131D01*
X11731Y12131D01*
X11788Y12102D01*
X11817Y12074D01*
X11846Y12016D01*
X11846Y11931D01*
X11817Y11874D01*
X11788Y11845D01*
X11731Y11816D01*
X11503Y11816D01*
X12417Y12102D02*
X12360Y12131D01*
X12274Y12131D01*
X12188Y12102D01*
X12131Y12045D01*
X12103Y11988D01*
X12074Y11874D01*
X12074Y11788D01*
X12103Y11674D01*
X12131Y11616D01*
X12188Y11559D01*
X12274Y11531D01*
X12331Y11531D01*
X12417Y11559D01*
X12446Y11588D01*
X12446Y11788D01*
X12331Y11788D01*
X12903Y11845D02*
X12988Y11816D01*
X13017Y11788D01*
X13046Y11731D01*
X13046Y11645D01*
X13017Y11588D01*
X12988Y11559D01*
X12931Y11531D01*
X12703Y11531D01*
X12703Y12131D01*
X12903Y12131D01*
X12960Y12102D01*
X12988Y12074D01*
X13017Y12016D01*
X13017Y11959D01*
X12988Y11902D01*
X12960Y11874D01*
X12903Y11845D01*
X12703Y11845D01*
X13617Y11531D02*
X13274Y11531D01*
X13446Y11531D02*
X13446Y12131D01*
X13388Y12045D01*
X13331Y11988D01*
X13274Y11959D01*
X16774Y11509D02*
X16574Y11794D01*
X16431Y11509D02*
X16431Y12109D01*
X16659Y12109D01*
X16716Y12080D01*
X16745Y12052D01*
X16774Y11994D01*
X16774Y11909D01*
X16745Y11852D01*
X16716Y11823D01*
X16659Y11794D01*
X16431Y11794D01*
X17345Y12080D02*
X17288Y12109D01*
X17202Y12109D01*
X17116Y12080D01*
X17059Y12023D01*
X17031Y11966D01*
X17002Y11852D01*
X17002Y11766D01*
X17031Y11652D01*
X17059Y11594D01*
X17116Y11537D01*
X17202Y11509D01*
X17259Y11509D01*
X17345Y11537D01*
X17374Y11566D01*
X17374Y11766D01*
X17259Y11766D01*
X17831Y11823D02*
X17916Y11794D01*
X17945Y11766D01*
X17974Y11709D01*
X17974Y11623D01*
X17945Y11566D01*
X17916Y11537D01*
X17859Y11509D01*
X17631Y11509D01*
X17631Y12109D01*
X17831Y12109D01*
X17888Y12080D01*
X17916Y12052D01*
X17945Y11994D01*
X17945Y11937D01*
X17916Y11880D01*
X17888Y11852D01*
X17831Y11823D01*
X17631Y11823D01*
X18202Y12052D02*
X18231Y12080D01*
X18288Y12109D01*
X18431Y12109D01*
X18488Y12080D01*
X18516Y12052D01*
X18545Y11994D01*
X18545Y11937D01*
X18516Y11852D01*
X18174Y11509D01*
X18545Y11509D01*
X21768Y11487D02*
X21568Y11772D01*
X21425Y11487D02*
X21425Y12087D01*
X21653Y12087D01*
X21710Y12058D01*
X21739Y12030D01*
X21768Y11972D01*
X21768Y11887D01*
X21739Y11830D01*
X21710Y11801D01*
X21653Y11772D01*
X21425Y11772D01*
X22339Y12058D02*
X22282Y12087D01*
X22196Y12087D01*
X22110Y12058D01*
X22053Y12001D01*
X22025Y11944D01*
X21996Y11830D01*
X21996Y11744D01*
X22025Y11630D01*
X22053Y11572D01*
X22110Y11515D01*
X22196Y11487D01*
X22253Y11487D01*
X22339Y11515D01*
X22368Y11544D01*
X22368Y11744D01*
X22253Y11744D01*
X22825Y11801D02*
X22910Y11772D01*
X22939Y11744D01*
X22968Y11687D01*
X22968Y11601D01*
X22939Y11544D01*
X22910Y11515D01*
X22853Y11487D01*
X22625Y11487D01*
X22625Y12087D01*
X22825Y12087D01*
X22882Y12058D01*
X22910Y12030D01*
X22939Y11972D01*
X22939Y11915D01*
X22910Y11858D01*
X22882Y11830D01*
X22825Y11801D01*
X22625Y11801D01*
X23168Y12087D02*
X23539Y12087D01*
X23339Y11858D01*
X23425Y11858D01*
X23482Y11830D01*
X23510Y11801D01*
X23539Y11744D01*
X23539Y11601D01*
X23510Y11544D01*
X23482Y11515D01*
X23425Y11487D01*
X23253Y11487D01*
X23196Y11515D01*
X23168Y11544D01*
X26815Y11537D02*
X26615Y11822D01*
X26472Y11537D02*
X26472Y12137D01*
X26700Y12137D01*
X26757Y12108D01*
X26786Y12080D01*
X26815Y12022D01*
X26815Y11937D01*
X26786Y11880D01*
X26757Y11851D01*
X26700Y11822D01*
X26472Y11822D01*
X27386Y12108D02*
X27329Y12137D01*
X27243Y12137D01*
X27157Y12108D01*
X27100Y12051D01*
X27072Y11994D01*
X27043Y11880D01*
X27043Y11794D01*
X27072Y11680D01*
X27100Y11622D01*
X27157Y11565D01*
X27243Y11537D01*
X27300Y11537D01*
X27386Y11565D01*
X27415Y11594D01*
X27415Y11794D01*
X27300Y11794D01*
X27872Y11851D02*
X27957Y11822D01*
X27986Y11794D01*
X28015Y11737D01*
X28015Y11651D01*
X27986Y11594D01*
X27957Y11565D01*
X27900Y11537D01*
X27672Y11537D01*
X27672Y12137D01*
X27872Y12137D01*
X27929Y12108D01*
X27957Y12080D01*
X27986Y12022D01*
X27986Y11965D01*
X27957Y11908D01*
X27929Y11880D01*
X27872Y11851D01*
X27672Y11851D01*
X28529Y11937D02*
X28529Y11537D01*
X28386Y12165D02*
X28243Y11737D01*
X28615Y11737D01*
X31750Y11522D02*
X31550Y11807D01*
X31407Y11522D02*
X31407Y12122D01*
X31635Y12122D01*
X31692Y12093D01*
X31721Y12065D01*
X31750Y12007D01*
X31750Y11922D01*
X31721Y11865D01*
X31692Y11836D01*
X31635Y11807D01*
X31407Y11807D01*
X32321Y12093D02*
X32264Y12122D01*
X32178Y12122D01*
X32092Y12093D01*
X32035Y12036D01*
X32007Y11979D01*
X31978Y11865D01*
X31978Y11779D01*
X32007Y11665D01*
X32035Y11607D01*
X32092Y11550D01*
X32178Y11522D01*
X32235Y11522D01*
X32321Y11550D01*
X32350Y11579D01*
X32350Y11779D01*
X32235Y11779D01*
X32807Y11836D02*
X32892Y11807D01*
X32921Y11779D01*
X32950Y11722D01*
X32950Y11636D01*
X32921Y11579D01*
X32892Y11550D01*
X32835Y11522D01*
X32607Y11522D01*
X32607Y12122D01*
X32807Y12122D01*
X32864Y12093D01*
X32892Y12065D01*
X32921Y12007D01*
X32921Y11950D01*
X32892Y11893D01*
X32864Y11865D01*
X32807Y11836D01*
X32607Y11836D01*
X33492Y12122D02*
X33207Y12122D01*
X33178Y11836D01*
X33207Y11865D01*
X33264Y11893D01*
X33407Y11893D01*
X33464Y11865D01*
X33492Y11836D01*
X33521Y11779D01*
X33521Y11636D01*
X33492Y11579D01*
X33464Y11550D01*
X33407Y11522D01*
X33264Y11522D01*
X33207Y11550D01*
X33178Y11579D01*
X28852Y7322D02*
X29195Y7322D01*
X29024Y6722D02*
X29024Y7322D01*
X29681Y6722D02*
X29395Y6722D01*
X29395Y7322D01*
X30224Y6779D02*
X30195Y6750D01*
X30110Y6722D01*
X30052Y6722D01*
X29967Y6750D01*
X29910Y6807D01*
X29881Y6865D01*
X29852Y6979D01*
X29852Y7065D01*
X29881Y7179D01*
X29910Y7236D01*
X29967Y7293D01*
X30052Y7322D01*
X30110Y7322D01*
X30195Y7293D01*
X30224Y7265D01*
X30767Y7322D02*
X30481Y7322D01*
X30452Y7036D01*
X30481Y7065D01*
X30538Y7093D01*
X30681Y7093D01*
X30738Y7065D01*
X30767Y7036D01*
X30795Y6979D01*
X30795Y6836D01*
X30767Y6779D01*
X30738Y6750D01*
X30681Y6722D01*
X30538Y6722D01*
X30481Y6750D01*
X30452Y6779D01*
X31081Y6722D02*
X31195Y6722D01*
X31252Y6750D01*
X31281Y6779D01*
X31338Y6865D01*
X31367Y6979D01*
X31367Y7207D01*
X31338Y7265D01*
X31310Y7293D01*
X31252Y7322D01*
X31138Y7322D01*
X31081Y7293D01*
X31052Y7265D01*
X31024Y7207D01*
X31024Y7065D01*
X31052Y7007D01*
X31081Y6979D01*
X31138Y6950D01*
X31252Y6950D01*
X31310Y6979D01*
X31338Y7007D01*
X31367Y7065D01*
X31881Y7122D02*
X31881Y6722D01*
X31738Y7350D02*
X31595Y6922D01*
X31967Y6922D01*
X32310Y7322D02*
X32367Y7322D01*
X32424Y7293D01*
X32452Y7265D01*
X32481Y7207D01*
X32510Y7093D01*
X32510Y6950D01*
X32481Y6836D01*
X32452Y6779D01*
X32424Y6750D01*
X32367Y6722D01*
X32310Y6722D01*
X32252Y6750D01*
X32224Y6779D01*
X32195Y6836D01*
X32167Y6950D01*
X32167Y7093D01*
X32195Y7207D01*
X32224Y7265D01*
X32252Y7293D01*
X32310Y7322D01*
X8464Y4514D02*
X8435Y4485D01*
X8350Y4457D01*
X8292Y4457D01*
X8207Y4485D01*
X8150Y4542D01*
X8121Y4600D01*
X8092Y4714D01*
X8092Y4800D01*
X8121Y4914D01*
X8150Y4971D01*
X8207Y5028D01*
X8292Y5057D01*
X8350Y5057D01*
X8435Y5028D01*
X8464Y5000D01*
X9035Y4457D02*
X8692Y4457D01*
X8864Y4457D02*
X8864Y5057D01*
X8807Y4971D01*
X8750Y4914D01*
X8692Y4885D01*
X9264Y5000D02*
X9292Y5028D01*
X9350Y5057D01*
X9492Y5057D01*
X9550Y5028D01*
X9578Y5000D01*
X9607Y4942D01*
X9607Y4885D01*
X9578Y4800D01*
X9235Y4457D01*
X9607Y4457D01*
G54D12*
X11274Y3042D02*
X10988Y3042D01*
X11131Y3042D02*
X11131Y3542D01*
X11083Y3471D01*
X11036Y3423D01*
X10988Y3399D01*
X11583Y3542D02*
X11631Y3542D01*
X11679Y3518D01*
X11702Y3495D01*
X11726Y3447D01*
X11750Y3352D01*
X11750Y3233D01*
X11726Y3137D01*
X11702Y3090D01*
X11679Y3066D01*
X11631Y3042D01*
X11583Y3042D01*
X11536Y3066D01*
X11512Y3090D01*
X11488Y3137D01*
X11464Y3233D01*
X11464Y3352D01*
X11488Y3447D01*
X11512Y3495D01*
X11536Y3518D01*
X11583Y3542D01*
X12179Y3375D02*
X12179Y3042D01*
X11964Y3375D02*
X11964Y3114D01*
X11988Y3066D01*
X12036Y3042D01*
X12107Y3042D01*
X12155Y3066D01*
X12179Y3090D01*
X12583Y3304D02*
X12417Y3304D01*
X12417Y3042D02*
X12417Y3542D01*
X12655Y3542D01*
G54D14*
X8940Y691D02*
X8740Y691D01*
X8740Y377D02*
X8740Y977D01*
X9025Y977D01*
X9568Y377D02*
X9225Y377D01*
X9397Y377D02*
X9397Y977D01*
X9340Y891D01*
X9282Y834D01*
X9225Y805D01*
G54D12*
X11191Y2388D02*
X11000Y2388D01*
X10981Y2197D01*
X11000Y2216D01*
X11038Y2235D01*
X11134Y2235D01*
X11172Y2216D01*
X11191Y2197D01*
X11210Y2159D01*
X11210Y2064D01*
X11191Y2026D01*
X11172Y2007D01*
X11134Y1988D01*
X11038Y1988D01*
X11000Y2007D01*
X10981Y2026D01*
X11457Y2388D02*
X11495Y2388D01*
X11534Y2369D01*
X11553Y2350D01*
X11572Y2311D01*
X11591Y2235D01*
X11591Y2140D01*
X11572Y2064D01*
X11553Y2026D01*
X11534Y2007D01*
X11495Y1988D01*
X11457Y1988D01*
X11419Y2007D01*
X11400Y2026D01*
X11381Y2064D01*
X11362Y2140D01*
X11362Y2235D01*
X11381Y2311D01*
X11400Y2350D01*
X11419Y2369D01*
X11457Y2388D01*
X11838Y2388D02*
X11876Y2388D01*
X11915Y2369D01*
X11934Y2350D01*
X11953Y2311D01*
X11972Y2235D01*
X11972Y2140D01*
X11953Y2064D01*
X11934Y2026D01*
X11915Y2007D01*
X11876Y1988D01*
X11838Y1988D01*
X11800Y2007D01*
X11781Y2026D01*
X11762Y2064D01*
X11743Y2140D01*
X11743Y2235D01*
X11762Y2311D01*
X11781Y2350D01*
X11800Y2369D01*
X11838Y2388D01*
X12143Y1988D02*
X12143Y2254D01*
X12143Y2216D02*
X12162Y2235D01*
X12200Y2254D01*
X12257Y2254D01*
X12295Y2235D01*
X12315Y2197D01*
X12315Y1988D01*
X12315Y2197D02*
X12334Y2235D01*
X12372Y2254D01*
X12429Y2254D01*
X12467Y2235D01*
X12486Y2197D01*
X12486Y1988D01*
X12657Y2102D02*
X12848Y2102D01*
X12619Y1988D02*
X12753Y2388D01*
X12886Y1988D01*
G54D14*
X25570Y1079D02*
X25541Y1050D01*
X25455Y1022D01*
X25398Y1022D01*
X25312Y1050D01*
X25255Y1107D01*
X25227Y1165D01*
X25198Y1279D01*
X25198Y1365D01*
X25227Y1479D01*
X25255Y1536D01*
X25312Y1593D01*
X25398Y1622D01*
X25455Y1622D01*
X25541Y1593D01*
X25570Y1565D01*
X25798Y1565D02*
X25827Y1593D01*
X25884Y1622D01*
X26027Y1622D01*
X26084Y1593D01*
X26112Y1565D01*
X26141Y1507D01*
X26141Y1450D01*
X26112Y1365D01*
X25770Y1022D01*
X26141Y1022D01*
G54D15*
X26453Y2782D02*
X26467Y2796D01*
X26496Y2810D01*
X26567Y2810D01*
X26596Y2796D01*
X26610Y2782D01*
X26624Y2753D01*
X26624Y2724D01*
X26610Y2682D01*
X26438Y2510D01*
X26624Y2510D01*
X26738Y2782D02*
X26753Y2796D01*
X26781Y2810D01*
X26853Y2810D01*
X26881Y2796D01*
X26896Y2782D01*
X26910Y2753D01*
X26910Y2724D01*
X26896Y2682D01*
X26724Y2510D01*
X26910Y2510D01*
X27038Y2710D02*
X27038Y2410D01*
X27038Y2696D02*
X27067Y2710D01*
X27124Y2710D01*
X27153Y2696D01*
X27167Y2682D01*
X27181Y2653D01*
X27181Y2567D01*
X27167Y2539D01*
X27153Y2524D01*
X27124Y2510D01*
X27067Y2510D01*
X27038Y2524D01*
X27410Y2667D02*
X27310Y2667D01*
X27310Y2510D02*
X27310Y2810D01*
X27453Y2810D01*
G54D14*
X41639Y3754D02*
X41353Y3754D01*
X41353Y4354D01*
X41839Y4068D02*
X42039Y4068D01*
X42125Y3754D02*
X41839Y3754D01*
X41839Y4354D01*
X42125Y4354D01*
X42382Y3754D02*
X42382Y4354D01*
X42525Y4354D01*
X42611Y4325D01*
X42668Y4268D01*
X42696Y4211D01*
X42725Y4097D01*
X42725Y4011D01*
X42696Y3897D01*
X42668Y3839D01*
X42611Y3782D01*
X42525Y3754D01*
X42382Y3754D01*
X43296Y3754D02*
X42953Y3754D01*
X43125Y3754D02*
X43125Y4354D01*
X43068Y4268D01*
X43011Y4211D01*
X42953Y4182D01*
G54D12*
X43436Y4268D02*
X43436Y4668D01*
X43589Y4668D01*
X43627Y4649D01*
X43646Y4630D01*
X43665Y4591D01*
X43665Y4534D01*
X43646Y4496D01*
X43627Y4477D01*
X43589Y4458D01*
X43436Y4458D01*
X43798Y4668D02*
X43893Y4268D01*
X43970Y4553D01*
X44046Y4268D01*
X44141Y4668D01*
X44522Y4268D02*
X44389Y4458D01*
X44293Y4268D02*
X44293Y4668D01*
X44446Y4668D01*
X44484Y4649D01*
X44503Y4630D01*
X44522Y4591D01*
X44522Y4534D01*
X44503Y4496D01*
X44484Y4477D01*
X44446Y4458D01*
X44293Y4458D01*
G54D14*
X42290Y2847D02*
X42090Y3132D01*
X41947Y2847D02*
X41947Y3447D01*
X42175Y3447D01*
X42232Y3418D01*
X42261Y3390D01*
X42290Y3332D01*
X42290Y3247D01*
X42261Y3190D01*
X42232Y3161D01*
X42175Y3132D01*
X41947Y3132D01*
X42518Y3390D02*
X42547Y3418D01*
X42604Y3447D01*
X42747Y3447D01*
X42804Y3418D01*
X42832Y3390D01*
X42861Y3332D01*
X42861Y3275D01*
X42832Y3190D01*
X42490Y2847D01*
X42861Y2847D01*
G54D12*
X43455Y2793D02*
X43703Y2793D01*
X43570Y2640D01*
X43627Y2640D01*
X43665Y2621D01*
X43684Y2602D01*
X43703Y2564D01*
X43703Y2469D01*
X43684Y2431D01*
X43665Y2412D01*
X43627Y2393D01*
X43512Y2393D01*
X43474Y2412D01*
X43455Y2431D01*
X43836Y2793D02*
X44084Y2793D01*
X43950Y2640D01*
X44008Y2640D01*
X44046Y2621D01*
X44065Y2602D01*
X44084Y2564D01*
X44084Y2469D01*
X44065Y2431D01*
X44046Y2412D01*
X44008Y2393D01*
X43893Y2393D01*
X43855Y2412D01*
X43836Y2431D01*
X44331Y2793D02*
X44370Y2793D01*
X44408Y2774D01*
X44427Y2755D01*
X44446Y2716D01*
X44465Y2640D01*
X44465Y2545D01*
X44446Y2469D01*
X44427Y2431D01*
X44408Y2412D01*
X44370Y2393D01*
X44331Y2393D01*
X44293Y2412D01*
X44274Y2431D01*
X44255Y2469D01*
X44236Y2545D01*
X44236Y2640D01*
X44255Y2716D01*
X44274Y2755D01*
X44293Y2774D01*
X44331Y2793D01*
G54D14*
X14149Y6924D02*
X14120Y6895D01*
X14034Y6867D01*
X13977Y6867D01*
X13892Y6895D01*
X13834Y6952D01*
X13806Y7010D01*
X13777Y7124D01*
X13777Y7210D01*
X13806Y7324D01*
X13834Y7381D01*
X13892Y7438D01*
X13977Y7467D01*
X14034Y7467D01*
X14120Y7438D01*
X14149Y7410D01*
X14663Y7267D02*
X14663Y6867D01*
X14520Y7495D02*
X14377Y7067D01*
X14749Y7067D01*
G54D12*
X15642Y7308D02*
X15680Y7308D01*
X15719Y7289D01*
X15738Y7270D01*
X15757Y7231D01*
X15776Y7155D01*
X15776Y7060D01*
X15757Y6984D01*
X15738Y6946D01*
X15719Y6927D01*
X15680Y6908D01*
X15642Y6908D01*
X15604Y6927D01*
X15585Y6946D01*
X15566Y6984D01*
X15547Y7060D01*
X15547Y7155D01*
X15566Y7231D01*
X15585Y7270D01*
X15604Y7289D01*
X15642Y7308D01*
X15947Y6946D02*
X15966Y6927D01*
X15947Y6908D01*
X15928Y6927D01*
X15947Y6946D01*
X15947Y6908D01*
X16347Y6908D02*
X16119Y6908D01*
X16233Y6908D02*
X16233Y7308D01*
X16195Y7250D01*
X16157Y7212D01*
X16119Y7193D01*
X16690Y7174D02*
X16690Y6908D01*
X16519Y7174D02*
X16519Y6965D01*
X16538Y6927D01*
X16576Y6908D01*
X16633Y6908D01*
X16671Y6927D01*
X16690Y6946D01*
X17014Y7117D02*
X16880Y7117D01*
X16880Y6908D02*
X16880Y7308D01*
X17071Y7308D01*
G54D14*
X10950Y6054D02*
X10921Y6025D01*
X10835Y5997D01*
X10778Y5997D01*
X10692Y6025D01*
X10635Y6082D01*
X10607Y6140D01*
X10578Y6254D01*
X10578Y6340D01*
X10607Y6454D01*
X10635Y6511D01*
X10692Y6568D01*
X10778Y6597D01*
X10835Y6597D01*
X10921Y6568D01*
X10950Y6540D01*
X11150Y6597D02*
X11521Y6597D01*
X11321Y6368D01*
X11407Y6368D01*
X11464Y6340D01*
X11492Y6311D01*
X11521Y6254D01*
X11521Y6111D01*
X11492Y6054D01*
X11464Y6025D01*
X11407Y5997D01*
X11235Y5997D01*
X11178Y6025D01*
X11150Y6054D01*
G54D12*
X7982Y5928D02*
X8020Y5928D01*
X8058Y5909D01*
X8077Y5890D01*
X8096Y5851D01*
X8115Y5775D01*
X8115Y5680D01*
X8096Y5604D01*
X8077Y5566D01*
X8058Y5547D01*
X8020Y5528D01*
X7982Y5528D01*
X7944Y5547D01*
X7925Y5566D01*
X7906Y5604D01*
X7887Y5680D01*
X7887Y5775D01*
X7906Y5851D01*
X7925Y5890D01*
X7944Y5909D01*
X7982Y5928D01*
X8287Y5566D02*
X8306Y5547D01*
X8287Y5528D01*
X8268Y5547D01*
X8287Y5566D01*
X8287Y5528D01*
X8439Y5928D02*
X8687Y5928D01*
X8553Y5775D01*
X8610Y5775D01*
X8649Y5756D01*
X8668Y5737D01*
X8687Y5699D01*
X8687Y5604D01*
X8668Y5566D01*
X8649Y5547D01*
X8610Y5528D01*
X8496Y5528D01*
X8458Y5547D01*
X8439Y5566D01*
X8820Y5928D02*
X9068Y5928D01*
X8934Y5775D01*
X8991Y5775D01*
X9030Y5756D01*
X9049Y5737D01*
X9068Y5699D01*
X9068Y5604D01*
X9049Y5566D01*
X9030Y5547D01*
X8991Y5528D01*
X8877Y5528D01*
X8839Y5547D01*
X8820Y5566D01*
X9410Y5794D02*
X9410Y5528D01*
X9239Y5794D02*
X9239Y5585D01*
X9258Y5547D01*
X9296Y5528D01*
X9353Y5528D01*
X9391Y5547D01*
X9410Y5566D01*
X9734Y5737D02*
X9601Y5737D01*
X9601Y5528D02*
X9601Y5928D01*
X9791Y5928D01*
G54D14*
X33400Y4979D02*
X33371Y4950D01*
X33285Y4922D01*
X33228Y4922D01*
X33142Y4950D01*
X33085Y5007D01*
X33057Y5065D01*
X33028Y5179D01*
X33028Y5265D01*
X33057Y5379D01*
X33085Y5436D01*
X33142Y5493D01*
X33228Y5522D01*
X33285Y5522D01*
X33371Y5493D01*
X33400Y5465D01*
X33914Y5522D02*
X33800Y5522D01*
X33742Y5493D01*
X33714Y5465D01*
X33657Y5379D01*
X33628Y5265D01*
X33628Y5036D01*
X33657Y4979D01*
X33685Y4950D01*
X33742Y4922D01*
X33857Y4922D01*
X33914Y4950D01*
X33942Y4979D01*
X33971Y5036D01*
X33971Y5179D01*
X33942Y5236D01*
X33914Y5265D01*
X33857Y5293D01*
X33742Y5293D01*
X33685Y5265D01*
X33657Y5236D01*
X33628Y5179D01*
G54D12*
X33502Y3873D02*
X33540Y3873D01*
X33579Y3854D01*
X33598Y3835D01*
X33617Y3796D01*
X33636Y3720D01*
X33636Y3625D01*
X33617Y3549D01*
X33598Y3511D01*
X33579Y3492D01*
X33540Y3473D01*
X33502Y3473D01*
X33464Y3492D01*
X33445Y3511D01*
X33426Y3549D01*
X33407Y3625D01*
X33407Y3720D01*
X33426Y3796D01*
X33445Y3835D01*
X33464Y3854D01*
X33502Y3873D01*
X33807Y3511D02*
X33826Y3492D01*
X33807Y3473D01*
X33788Y3492D01*
X33807Y3511D01*
X33807Y3473D01*
X34207Y3473D02*
X33979Y3473D01*
X34093Y3473D02*
X34093Y3873D01*
X34055Y3815D01*
X34017Y3777D01*
X33979Y3758D01*
X34550Y3739D02*
X34550Y3473D01*
X34379Y3739D02*
X34379Y3530D01*
X34398Y3492D01*
X34436Y3473D01*
X34493Y3473D01*
X34531Y3492D01*
X34550Y3511D01*
X34874Y3682D02*
X34740Y3682D01*
X34740Y3473D02*
X34740Y3873D01*
X34931Y3873D01*
G54D14*
X30925Y2597D02*
X30725Y2882D01*
X30582Y2597D02*
X30582Y3197D01*
X30810Y3197D01*
X30867Y3168D01*
X30896Y3140D01*
X30925Y3082D01*
X30925Y2997D01*
X30896Y2940D01*
X30867Y2911D01*
X30810Y2882D01*
X30582Y2882D01*
X31467Y3197D02*
X31182Y3197D01*
X31153Y2911D01*
X31182Y2940D01*
X31239Y2968D01*
X31382Y2968D01*
X31439Y2940D01*
X31467Y2911D01*
X31496Y2854D01*
X31496Y2711D01*
X31467Y2654D01*
X31439Y2625D01*
X31382Y2597D01*
X31239Y2597D01*
X31182Y2625D01*
X31153Y2654D01*
G54D12*
X32170Y2379D02*
X31942Y2379D01*
X32056Y2379D02*
X32056Y2779D01*
X32018Y2721D01*
X31980Y2683D01*
X31942Y2664D01*
X32342Y2417D02*
X32361Y2398D01*
X32342Y2379D01*
X32323Y2398D01*
X32342Y2417D01*
X32342Y2379D01*
X32589Y2607D02*
X32551Y2626D01*
X32532Y2645D01*
X32513Y2683D01*
X32513Y2702D01*
X32532Y2741D01*
X32551Y2760D01*
X32589Y2779D01*
X32665Y2779D01*
X32704Y2760D01*
X32723Y2741D01*
X32742Y2702D01*
X32742Y2683D01*
X32723Y2645D01*
X32704Y2626D01*
X32665Y2607D01*
X32589Y2607D01*
X32551Y2588D01*
X32532Y2569D01*
X32513Y2531D01*
X32513Y2455D01*
X32532Y2417D01*
X32551Y2398D01*
X32589Y2379D01*
X32665Y2379D01*
X32704Y2398D01*
X32723Y2417D01*
X32742Y2455D01*
X32742Y2531D01*
X32723Y2569D01*
X32704Y2588D01*
X32665Y2607D01*
X32913Y2379D02*
X32913Y2779D01*
X32951Y2531D02*
X33065Y2379D01*
X33065Y2645D02*
X32913Y2493D01*
G54D14*
X24522Y604D02*
X24482Y604D01*
X24401Y644D01*
X24361Y685D01*
X24320Y766D01*
X24320Y846D01*
X24341Y907D01*
X24401Y1008D01*
X24462Y1069D01*
X24563Y1129D01*
X24623Y1149D01*
X24704Y1149D01*
X24785Y1109D01*
X24826Y1069D01*
X24866Y988D01*
X24866Y947D01*
X25290Y604D02*
X25088Y806D01*
X24866Y624D01*
X24906Y624D01*
X24967Y604D01*
X25068Y503D01*
X25088Y442D01*
X25088Y402D01*
X25068Y341D01*
X24967Y240D01*
X24906Y220D01*
X24866Y220D01*
X24805Y240D01*
X24704Y341D01*
X24684Y402D01*
X24684Y442D01*
G54D11*
X23567Y1084D02*
X23587Y1064D01*
X23598Y1034D01*
X23598Y1014D01*
X23587Y983D01*
X23557Y933D01*
X23507Y882D01*
X23456Y852D01*
X23426Y842D01*
X23406Y842D01*
X23375Y852D01*
X23355Y872D01*
X23345Y902D01*
X23345Y923D01*
X23355Y953D01*
X23385Y1003D01*
X23436Y1054D01*
X23486Y1084D01*
X23517Y1094D01*
X23537Y1094D01*
X23567Y1084D01*
X23537Y731D02*
X23537Y711D01*
X23517Y711D01*
X23517Y731D01*
X23537Y731D01*
X23517Y711D01*
X23729Y498D02*
X23608Y620D01*
X23668Y559D02*
X23880Y771D01*
X23830Y761D01*
X23790Y761D01*
X23759Y771D01*
X24052Y458D02*
X23911Y317D01*
X23961Y549D02*
X23850Y438D01*
X23840Y407D01*
X23850Y377D01*
X23880Y347D01*
X23911Y337D01*
X23931Y337D01*
X24194Y256D02*
X24123Y327D01*
X24012Y216D02*
X24224Y428D01*
X24325Y327D01*
G54D14*
X2575Y8770D02*
X2604Y8741D01*
X2632Y8655D01*
X2632Y8598D01*
X2604Y8512D01*
X2547Y8455D01*
X2490Y8427D01*
X2375Y8398D01*
X2290Y8398D01*
X2175Y8427D01*
X2118Y8455D01*
X2061Y8512D01*
X2032Y8598D01*
X2032Y8655D01*
X2061Y8741D01*
X2090Y8770D01*
X2290Y9112D02*
X2261Y9055D01*
X2232Y9027D01*
X2175Y8998D01*
X2147Y8998D01*
X2090Y9027D01*
X2061Y9055D01*
X2032Y9112D01*
X2032Y9227D01*
X2061Y9284D01*
X2090Y9312D01*
X2147Y9341D01*
X2175Y9341D01*
X2232Y9312D01*
X2261Y9284D01*
X2290Y9227D01*
X2290Y9112D01*
X2318Y9055D01*
X2347Y9027D01*
X2404Y8998D01*
X2518Y8998D01*
X2575Y9027D01*
X2604Y9055D01*
X2632Y9112D01*
X2632Y9227D01*
X2604Y9284D01*
X2575Y9312D01*
X2518Y9341D01*
X2404Y9341D01*
X2347Y9312D01*
X2318Y9284D01*
X2290Y9227D01*
G54D12*
X2811Y8527D02*
X2811Y8565D01*
X2830Y8604D01*
X2850Y8623D01*
X2888Y8642D01*
X2964Y8661D01*
X3059Y8661D01*
X3135Y8642D01*
X3173Y8623D01*
X3192Y8604D01*
X3211Y8565D01*
X3211Y8527D01*
X3192Y8489D01*
X3173Y8470D01*
X3135Y8451D01*
X3059Y8432D01*
X2964Y8432D01*
X2888Y8451D01*
X2850Y8470D01*
X2830Y8489D01*
X2811Y8527D01*
X3173Y8832D02*
X3192Y8851D01*
X3211Y8832D01*
X3192Y8813D01*
X3173Y8832D01*
X3211Y8832D01*
X3211Y9232D02*
X3211Y9004D01*
X3211Y9118D02*
X2811Y9118D01*
X2869Y9080D01*
X2907Y9042D01*
X2926Y9004D01*
X2945Y9575D02*
X3211Y9575D01*
X2945Y9404D02*
X3154Y9404D01*
X3192Y9423D01*
X3211Y9461D01*
X3211Y9518D01*
X3192Y9556D01*
X3173Y9575D01*
X3002Y9899D02*
X3002Y9765D01*
X3211Y9765D02*
X2811Y9765D01*
X2811Y9956D01*
G54D14*
X25690Y2954D02*
X25661Y2925D01*
X25575Y2897D01*
X25518Y2897D01*
X25432Y2925D01*
X25375Y2982D01*
X25347Y3040D01*
X25318Y3154D01*
X25318Y3240D01*
X25347Y3354D01*
X25375Y3411D01*
X25432Y3468D01*
X25518Y3497D01*
X25575Y3497D01*
X25661Y3468D01*
X25690Y3440D01*
X26261Y2897D02*
X25918Y2897D01*
X26090Y2897D02*
X26090Y3497D01*
X26032Y3411D01*
X25975Y3354D01*
X25918Y3325D01*
G54D15*
X26502Y1557D02*
X26516Y1571D01*
X26545Y1585D01*
X26616Y1585D01*
X26645Y1571D01*
X26659Y1557D01*
X26673Y1528D01*
X26673Y1499D01*
X26659Y1457D01*
X26487Y1285D01*
X26673Y1285D01*
X26787Y1557D02*
X26802Y1571D01*
X26830Y1585D01*
X26902Y1585D01*
X26930Y1571D01*
X26945Y1557D01*
X26959Y1528D01*
X26959Y1499D01*
X26945Y1457D01*
X26773Y1285D01*
X26959Y1285D01*
X27087Y1485D02*
X27087Y1185D01*
X27087Y1471D02*
X27116Y1485D01*
X27173Y1485D01*
X27202Y1471D01*
X27216Y1457D01*
X27230Y1428D01*
X27230Y1342D01*
X27216Y1314D01*
X27202Y1299D01*
X27173Y1285D01*
X27116Y1285D01*
X27087Y1299D01*
X27459Y1442D02*
X27359Y1442D01*
X27359Y1285D02*
X27359Y1585D01*
X27502Y1585D01*
G54D14*
X4482Y5736D02*
X4453Y5707D01*
X4368Y5679D01*
X4310Y5679D01*
X4225Y5707D01*
X4168Y5764D01*
X4139Y5822D01*
X4110Y5936D01*
X4110Y6022D01*
X4139Y6136D01*
X4168Y6193D01*
X4225Y6250D01*
X4310Y6279D01*
X4368Y6279D01*
X4453Y6250D01*
X4482Y6222D01*
X5053Y5679D02*
X4710Y5679D01*
X4882Y5679D02*
X4882Y6279D01*
X4825Y6193D01*
X4768Y6136D01*
X4710Y6107D01*
X5625Y5679D02*
X5282Y5679D01*
X5453Y5679D02*
X5453Y6279D01*
X5396Y6193D01*
X5339Y6136D01*
X5282Y6107D01*
G54D12*
X4218Y5412D02*
X4256Y5412D01*
X4294Y5393D01*
X4313Y5374D01*
X4332Y5335D01*
X4351Y5259D01*
X4351Y5164D01*
X4332Y5088D01*
X4313Y5050D01*
X4294Y5031D01*
X4256Y5012D01*
X4218Y5012D01*
X4180Y5031D01*
X4161Y5050D01*
X4142Y5088D01*
X4123Y5164D01*
X4123Y5259D01*
X4142Y5335D01*
X4161Y5374D01*
X4180Y5393D01*
X4218Y5412D01*
X4523Y5050D02*
X4542Y5031D01*
X4523Y5012D01*
X4504Y5031D01*
X4523Y5050D01*
X4523Y5012D01*
X4885Y5278D02*
X4885Y5012D01*
X4789Y5431D02*
X4694Y5145D01*
X4942Y5145D01*
X5056Y5412D02*
X5323Y5412D01*
X5151Y5012D01*
X5646Y5278D02*
X5646Y5012D01*
X5475Y5278D02*
X5475Y5069D01*
X5494Y5031D01*
X5532Y5012D01*
X5589Y5012D01*
X5627Y5031D01*
X5646Y5050D01*
X5970Y5221D02*
X5837Y5221D01*
X5837Y5012D02*
X5837Y5412D01*
X6027Y5412D01*
G54D14*
X19225Y1877D02*
X19025Y2162D01*
X18882Y1877D02*
X18882Y2477D01*
X19110Y2477D01*
X19167Y2448D01*
X19196Y2420D01*
X19225Y2362D01*
X19225Y2277D01*
X19196Y2220D01*
X19167Y2191D01*
X19110Y2162D01*
X18882Y2162D01*
X19796Y1877D02*
X19453Y1877D01*
X19625Y1877D02*
X19625Y2477D01*
X19567Y2391D01*
X19510Y2334D01*
X19453Y2305D01*
G54D12*
X19986Y713D02*
X19758Y713D01*
X19872Y713D02*
X19872Y1113D01*
X19834Y1055D01*
X19796Y1017D01*
X19758Y998D01*
X20234Y1113D02*
X20272Y1113D01*
X20310Y1094D01*
X20329Y1075D01*
X20348Y1036D01*
X20367Y960D01*
X20367Y865D01*
X20348Y789D01*
X20329Y751D01*
X20310Y732D01*
X20272Y713D01*
X20234Y713D01*
X20196Y732D01*
X20177Y751D01*
X20158Y789D01*
X20139Y865D01*
X20139Y960D01*
X20158Y1036D01*
X20177Y1075D01*
X20196Y1094D01*
X20234Y1113D01*
X20539Y713D02*
X20539Y1113D01*
X20577Y865D02*
X20691Y713D01*
X20691Y979D02*
X20539Y827D01*
G54D14*
X25030Y4997D02*
X24830Y5282D01*
X24687Y4997D02*
X24687Y5597D01*
X24915Y5597D01*
X24972Y5568D01*
X25001Y5540D01*
X25030Y5482D01*
X25030Y5397D01*
X25001Y5340D01*
X24972Y5311D01*
X24915Y5282D01*
X24687Y5282D01*
X25544Y5397D02*
X25544Y4997D01*
X25401Y5625D02*
X25258Y5197D01*
X25630Y5197D01*
G54D12*
X26046Y4448D02*
X25818Y4448D01*
X25932Y4448D02*
X25932Y4848D01*
X25894Y4790D01*
X25856Y4752D01*
X25818Y4733D01*
X26294Y4848D02*
X26332Y4848D01*
X26370Y4829D01*
X26389Y4810D01*
X26408Y4771D01*
X26427Y4695D01*
X26427Y4600D01*
X26408Y4524D01*
X26389Y4486D01*
X26370Y4467D01*
X26332Y4448D01*
X26294Y4448D01*
X26256Y4467D01*
X26237Y4486D01*
X26218Y4524D01*
X26199Y4600D01*
X26199Y4695D01*
X26218Y4771D01*
X26237Y4810D01*
X26256Y4829D01*
X26294Y4848D01*
X26599Y4448D02*
X26599Y4848D01*
X26637Y4600D02*
X26751Y4448D01*
X26751Y4714D02*
X26599Y4562D01*
G54D14*
X4149Y10844D02*
X4120Y10815D01*
X4035Y10787D01*
X3977Y10787D01*
X3892Y10815D01*
X3835Y10872D01*
X3806Y10930D01*
X3777Y11044D01*
X3777Y11130D01*
X3806Y11244D01*
X3835Y11301D01*
X3892Y11358D01*
X3977Y11387D01*
X4035Y11387D01*
X4120Y11358D01*
X4149Y11330D01*
X4720Y10787D02*
X4377Y10787D01*
X4549Y10787D02*
X4549Y11387D01*
X4492Y11301D01*
X4435Y11244D01*
X4377Y11215D01*
X5092Y11387D02*
X5149Y11387D01*
X5206Y11358D01*
X5235Y11330D01*
X5263Y11272D01*
X5292Y11158D01*
X5292Y11015D01*
X5263Y10901D01*
X5235Y10844D01*
X5206Y10815D01*
X5149Y10787D01*
X5092Y10787D01*
X5035Y10815D01*
X5006Y10844D01*
X4977Y10901D01*
X4949Y11015D01*
X4949Y11158D01*
X4977Y11272D01*
X5006Y11330D01*
X5035Y11358D01*
X5092Y11387D01*
G54D12*
X3912Y10533D02*
X3950Y10533D01*
X3988Y10514D01*
X4007Y10495D01*
X4026Y10456D01*
X4045Y10380D01*
X4045Y10285D01*
X4026Y10209D01*
X4007Y10171D01*
X3988Y10152D01*
X3950Y10133D01*
X3912Y10133D01*
X3874Y10152D01*
X3855Y10171D01*
X3836Y10209D01*
X3817Y10285D01*
X3817Y10380D01*
X3836Y10456D01*
X3855Y10495D01*
X3874Y10514D01*
X3912Y10533D01*
X4217Y10171D02*
X4236Y10152D01*
X4217Y10133D01*
X4198Y10152D01*
X4217Y10171D01*
X4217Y10133D01*
X4579Y10399D02*
X4579Y10133D01*
X4483Y10552D02*
X4388Y10266D01*
X4636Y10266D01*
X4750Y10533D02*
X5017Y10533D01*
X4845Y10133D01*
X5340Y10399D02*
X5340Y10133D01*
X5169Y10399D02*
X5169Y10190D01*
X5188Y10152D01*
X5226Y10133D01*
X5283Y10133D01*
X5321Y10152D01*
X5340Y10171D01*
X5664Y10342D02*
X5531Y10342D01*
X5531Y10133D02*
X5531Y10533D01*
X5721Y10533D01*
G54D14*
X2500Y7420D02*
X2529Y7391D01*
X2557Y7305D01*
X2557Y7248D01*
X2529Y7162D01*
X2472Y7105D01*
X2415Y7077D01*
X2300Y7048D01*
X2215Y7048D01*
X2100Y7077D01*
X2043Y7105D01*
X1986Y7162D01*
X1957Y7248D01*
X1957Y7305D01*
X1986Y7391D01*
X2015Y7420D01*
X2557Y7705D02*
X2557Y7820D01*
X2529Y7877D01*
X2500Y7905D01*
X2415Y7962D01*
X2300Y7991D01*
X2072Y7991D01*
X2015Y7962D01*
X1986Y7934D01*
X1957Y7877D01*
X1957Y7762D01*
X1986Y7705D01*
X2015Y7677D01*
X2072Y7648D01*
X2215Y7648D01*
X2272Y7677D01*
X2300Y7705D01*
X2329Y7762D01*
X2329Y7877D01*
X2300Y7934D01*
X2272Y7962D01*
X2215Y7991D01*
G54D12*
X2826Y6177D02*
X2826Y6215D01*
X2845Y6253D01*
X2865Y6272D01*
X2903Y6291D01*
X2979Y6310D01*
X3074Y6310D01*
X3150Y6291D01*
X3188Y6272D01*
X3207Y6253D01*
X3226Y6215D01*
X3226Y6177D01*
X3207Y6139D01*
X3188Y6120D01*
X3150Y6101D01*
X3074Y6082D01*
X2979Y6082D01*
X2903Y6101D01*
X2865Y6120D01*
X2845Y6139D01*
X2826Y6177D01*
X3188Y6482D02*
X3207Y6501D01*
X3226Y6482D01*
X3207Y6463D01*
X3188Y6482D01*
X3226Y6482D01*
X2960Y6844D02*
X3226Y6844D01*
X2807Y6748D02*
X3093Y6653D01*
X3093Y6901D01*
X2826Y7015D02*
X2826Y7282D01*
X3226Y7110D01*
X2960Y7605D02*
X3226Y7605D01*
X2960Y7434D02*
X3169Y7434D01*
X3207Y7453D01*
X3226Y7491D01*
X3226Y7548D01*
X3207Y7586D01*
X3188Y7605D01*
X3017Y7929D02*
X3017Y7796D01*
X3226Y7796D02*
X2826Y7796D01*
X2826Y7986D01*
G54D14*
X7960Y9824D02*
X7931Y9795D01*
X7845Y9767D01*
X7788Y9767D01*
X7702Y9795D01*
X7645Y9852D01*
X7617Y9910D01*
X7588Y10024D01*
X7588Y10110D01*
X7617Y10224D01*
X7645Y10281D01*
X7702Y10338D01*
X7788Y10367D01*
X7845Y10367D01*
X7931Y10338D01*
X7960Y10310D01*
X8160Y10367D02*
X8560Y10367D01*
X8302Y9767D01*
G54D12*
X7747Y10968D02*
X7785Y10968D01*
X7824Y10949D01*
X7843Y10930D01*
X7862Y10891D01*
X7881Y10815D01*
X7881Y10720D01*
X7862Y10644D01*
X7843Y10606D01*
X7824Y10587D01*
X7785Y10568D01*
X7747Y10568D01*
X7709Y10587D01*
X7690Y10606D01*
X7671Y10644D01*
X7652Y10720D01*
X7652Y10815D01*
X7671Y10891D01*
X7690Y10930D01*
X7709Y10949D01*
X7747Y10968D01*
X8052Y10606D02*
X8071Y10587D01*
X8052Y10568D01*
X8033Y10587D01*
X8052Y10606D01*
X8052Y10568D01*
X8452Y10568D02*
X8224Y10568D01*
X8338Y10568D02*
X8338Y10968D01*
X8300Y10910D01*
X8262Y10872D01*
X8224Y10853D01*
X8795Y10834D02*
X8795Y10568D01*
X8624Y10834D02*
X8624Y10625D01*
X8643Y10587D01*
X8681Y10568D01*
X8738Y10568D01*
X8776Y10587D01*
X8795Y10606D01*
X9119Y10777D02*
X8985Y10777D01*
X8985Y10568D02*
X8985Y10968D01*
X9176Y10968D01*
%LPC*%
G54D16*
X6852Y7314D03*
X6852Y7570D03*
X6852Y7826D03*
X6852Y8082D03*
X6852Y8338D03*
X6852Y8594D03*
X6852Y8850D03*
X6852Y9106D03*
X4588Y9106D03*
X4588Y8850D03*
X4588Y8594D03*
X4588Y8338D03*
X4588Y8082D03*
X4588Y7826D03*
X4588Y7570D03*
X4588Y7314D03*
G54D10*
G36*
X23239Y1161D02*
X23029Y951D01*
X22541Y1440D01*
X22751Y1650D01*
X23239Y1161D01*
X23239Y1161D01*
G37*
G36*
X23462Y1384D02*
X23252Y1174D01*
X22763Y1663D01*
X22973Y1873D01*
X23462Y1384D01*
X23462Y1384D01*
G37*
G36*
X23685Y1607D02*
X23475Y1397D01*
X22986Y1885D01*
X23196Y2096D01*
X23685Y1607D01*
X23685Y1607D01*
G37*
G36*
X23907Y1830D02*
X23697Y1620D01*
X23209Y2108D01*
X23419Y2318D01*
X23907Y1830D01*
X23907Y1830D01*
G37*
G36*
X24129Y2052D02*
X23919Y1842D01*
X23431Y2330D01*
X23641Y2540D01*
X24129Y2052D01*
X24129Y2052D01*
G37*
G36*
X24352Y2274D02*
X24142Y2064D01*
X23653Y2553D01*
X23864Y2763D01*
X24352Y2274D01*
X24352Y2274D01*
G37*
G36*
X24575Y2497D02*
X24365Y2287D01*
X23876Y2776D01*
X24086Y2986D01*
X24575Y2497D01*
X24575Y2497D01*
G37*
G36*
X24798Y2720D02*
X24588Y2510D01*
X24099Y2998D01*
X24309Y3208D01*
X24798Y2720D01*
X24798Y2720D01*
G37*
G36*
X24588Y3989D02*
X24798Y3779D01*
X24309Y3291D01*
X24099Y3501D01*
X24588Y3989D01*
X24588Y3989D01*
G37*
G36*
X24365Y4212D02*
X24575Y4002D01*
X24086Y3513D01*
X23876Y3723D01*
X24365Y4212D01*
X24365Y4212D01*
G37*
G36*
X24142Y4435D02*
X24352Y4225D01*
X23864Y3736D01*
X23653Y3946D01*
X24142Y4435D01*
X24142Y4435D01*
G37*
G36*
X23919Y4657D02*
X24129Y4447D01*
X23641Y3959D01*
X23431Y4169D01*
X23919Y4657D01*
X23919Y4657D01*
G37*
G36*
X23697Y4879D02*
X23907Y4669D01*
X23419Y4181D01*
X23209Y4391D01*
X23697Y4879D01*
X23697Y4879D01*
G37*
G36*
X23475Y5102D02*
X23685Y4892D01*
X23196Y4403D01*
X22986Y4614D01*
X23475Y5102D01*
X23475Y5102D01*
G37*
G36*
X23252Y5325D02*
X23462Y5115D01*
X22973Y4626D01*
X22763Y4836D01*
X23252Y5325D01*
X23252Y5325D01*
G37*
G36*
X23029Y5548D02*
X23239Y5338D01*
X22751Y4849D01*
X22541Y5059D01*
X23029Y5548D01*
X23029Y5548D01*
G37*
G36*
X21760Y5338D02*
X21970Y5548D01*
X22458Y5059D01*
X22248Y4849D01*
X21760Y5338D01*
X21760Y5338D01*
G37*
G36*
X21537Y5115D02*
X21747Y5325D01*
X22236Y4836D01*
X22026Y4626D01*
X21537Y5115D01*
X21537Y5115D01*
G37*
G36*
X21314Y4892D02*
X21524Y5102D01*
X22013Y4614D01*
X21803Y4403D01*
X21314Y4892D01*
X21314Y4892D01*
G37*
G36*
X21092Y4669D02*
X21302Y4879D01*
X21790Y4391D01*
X21580Y4181D01*
X21092Y4669D01*
X21092Y4669D01*
G37*
G36*
X20870Y4447D02*
X21080Y4657D01*
X21568Y4169D01*
X21358Y3959D01*
X20870Y4447D01*
X20870Y4447D01*
G37*
G36*
X20647Y4225D02*
X20857Y4435D01*
X21346Y3946D01*
X21135Y3736D01*
X20647Y4225D01*
X20647Y4225D01*
G37*
G36*
X20424Y4002D02*
X20634Y4212D01*
X21123Y3723D01*
X20913Y3513D01*
X20424Y4002D01*
X20424Y4002D01*
G37*
G36*
X20201Y3779D02*
X20411Y3989D01*
X20900Y3501D01*
X20690Y3291D01*
X20201Y3779D01*
X20201Y3779D01*
G37*
G36*
X20411Y2510D02*
X20201Y2720D01*
X20690Y3208D01*
X20900Y2998D01*
X20411Y2510D01*
X20411Y2510D01*
G37*
G36*
X20634Y2287D02*
X20424Y2497D01*
X20913Y2986D01*
X21123Y2776D01*
X20634Y2287D01*
X20634Y2287D01*
G37*
G36*
X20857Y2064D02*
X20647Y2274D01*
X21135Y2763D01*
X21346Y2553D01*
X20857Y2064D01*
X20857Y2064D01*
G37*
G36*
X21080Y1842D02*
X20870Y2052D01*
X21358Y2540D01*
X21568Y2330D01*
X21080Y1842D01*
X21080Y1842D01*
G37*
G36*
X21302Y1620D02*
X21092Y1830D01*
X21580Y2318D01*
X21790Y2108D01*
X21302Y1620D01*
X21302Y1620D01*
G37*
G36*
X21524Y1397D02*
X21314Y1607D01*
X21803Y2096D01*
X22013Y1885D01*
X21524Y1397D01*
X21524Y1397D01*
G37*
G36*
X21747Y1174D02*
X21537Y1384D01*
X22026Y1873D01*
X22236Y1663D01*
X21747Y1174D01*
X21747Y1174D01*
G37*
G36*
X21970Y951D02*
X21760Y1161D01*
X22248Y1650D01*
X22458Y1440D01*
X21970Y951D01*
X21970Y951D01*
G37*
G54D17*
X8750Y3750D03*
G54D18*
X8750Y2750D03*
X8750Y1750D03*
G54D19*
X34470Y4385D03*
X37029Y4385D03*
X34470Y2614D03*
X37029Y2614D03*
G54D20*
X20180Y5790D03*
G54D19*
X19180Y5790D03*
X18180Y5790D03*
X17180Y5790D03*
X16180Y5790D03*
X15180Y5790D03*
X14180Y5790D03*
X13180Y5790D03*
X12180Y5790D03*
G54D20*
X29250Y1250D03*
G54D19*
X30250Y1250D03*
X31250Y1250D03*
X32250Y1250D03*
X33250Y1250D03*
X34250Y1250D03*
X35250Y1250D03*
X36250Y1250D03*
X37250Y1250D03*
X38250Y1250D03*
X39250Y1250D03*
X40250Y1250D03*
G54D21*
X11722Y8417D03*
G54D22*
X12500Y8417D03*
G54D21*
X13278Y8417D03*
X13278Y10583D03*
G54D22*
X12500Y10583D03*
G54D21*
X11722Y10583D03*
X16722Y8417D03*
G54D22*
X17500Y8417D03*
G54D21*
X18278Y8417D03*
X18278Y10583D03*
G54D22*
X17500Y10583D03*
G54D21*
X16722Y10583D03*
X21722Y8417D03*
G54D22*
X22500Y8417D03*
G54D21*
X23278Y8417D03*
X23278Y10583D03*
G54D22*
X22500Y10583D03*
G54D21*
X21722Y10583D03*
X26722Y8417D03*
G54D22*
X27500Y8417D03*
G54D21*
X28278Y8417D03*
X28278Y10583D03*
G54D22*
X27500Y10583D03*
G54D21*
X26722Y10583D03*
X31722Y8417D03*
G54D22*
X32500Y8417D03*
G54D21*
X33278Y8417D03*
X33278Y10583D03*
G54D22*
X32500Y10583D03*
G54D21*
X31722Y10583D03*
G54D23*
X30758Y3938D03*
X31014Y3938D03*
X31270Y3938D03*
X31526Y3938D03*
X31782Y3938D03*
X32037Y3938D03*
X32293Y3938D03*
X30502Y3938D03*
X30246Y3938D03*
X29990Y3938D03*
X29734Y3938D03*
X29478Y3938D03*
X29223Y3938D03*
X28967Y3938D03*
X28967Y6142D03*
X29223Y6142D03*
X29478Y6142D03*
X29734Y6142D03*
X29990Y6142D03*
X30246Y6142D03*
X30502Y6142D03*
X32293Y6142D03*
X32037Y6142D03*
X31782Y6142D03*
X31526Y6142D03*
X31270Y6142D03*
X31014Y6142D03*
X30758Y6142D03*
G54D24*
X30630Y5040D03*
G54D25*
X26500Y3960D03*
X26500Y2039D03*
G54D20*
X11750Y4250D03*
G54D19*
X12750Y4250D03*
X14750Y4250D03*
X15750Y4250D03*
X16750Y4250D03*
X17750Y4250D03*
X18750Y4250D03*
X18750Y1250D03*
X17750Y1250D03*
X16750Y1250D03*
X15750Y1250D03*
X14750Y1250D03*
X13750Y1250D03*
X12750Y1250D03*
X11750Y1250D03*
X13750Y4250D03*
X35750Y10000D03*
X34750Y9500D03*
X35750Y9000D03*
X34750Y8500D03*
X35750Y8000D03*
X34750Y7500D03*
X35750Y7000D03*
X34750Y6500D03*
G54D26*
X38250Y10500D03*
X38250Y6000D03*
G54D19*
X9250Y6500D03*
X10250Y7000D03*
X9250Y7500D03*
X10250Y8000D03*
X9250Y8500D03*
X10250Y9000D03*
X9250Y9500D03*
X10250Y10000D03*
G54D26*
X6750Y6000D03*
X6750Y10500D03*
G54D27*
X38750Y4000D03*
G54D28*
X38750Y3000D03*
X39750Y4000D03*
X39750Y3000D03*
X40750Y4000D03*
X40750Y3000D03*
G54D29*
X10250Y4551D03*
X10250Y3448D03*
X10250Y1198D03*
X10250Y2301D03*
G54D30*
X25810Y2545D03*
X25810Y1994D03*
X44175Y3812D03*
X43624Y3812D03*
X44175Y3250D03*
X43624Y3250D03*
X15076Y7385D03*
X15076Y6834D03*
X10244Y5630D03*
X10795Y5630D03*
X33010Y3974D03*
X33010Y4525D03*
X32725Y3185D03*
X32174Y3185D03*
G54D10*
G36*
X23975Y859D02*
X23709Y1125D01*
X23975Y1390D01*
X24240Y1125D01*
X23975Y859D01*
X23975Y859D01*
G37*
G36*
X24364Y1249D02*
X24099Y1514D01*
X24364Y1780D01*
X24630Y1514D01*
X24364Y1249D01*
X24364Y1249D01*
G37*
G54D30*
X3670Y8474D03*
X3670Y9025D03*
X25150Y1994D03*
X25150Y2545D03*
X5054Y6650D03*
X5605Y6650D03*
X20235Y1520D03*
X19684Y1520D03*
X25480Y4655D03*
X25480Y4104D03*
X4954Y9730D03*
X5505Y9730D03*
X3670Y7895D03*
X3670Y7344D03*
X7670Y8854D03*
X7670Y9405D03*
G54D31*
X43250Y10750D03*
X1750Y10750D03*
X1750Y1750D03*
M02*
