M48
;DRILL file {Pcbnew (2013-mar-30)-stable} date Tue 14 May 2013 03:43:54 PM CDT
;FORMAT={2:4/ absolute / inch / keep zeros}
FMAT,2
INCH,TZ
T1C0.012
T2C0.020
T3C0.028
T4C0.035
T5C0.039
T6C0.040
T7C0.118
T8C0.126
%
G90
G05
M72
T1
X029095Y005552
X029095Y005040
X029095Y004528
X029606Y005552
X029606Y005040
X029606Y004528
X030118Y005552
X030118Y005040
X030118Y004528
X030630Y005552
X030630Y005040
X030630Y004528
X031142Y005552
X031142Y005040
X031142Y004528
X031654Y005552
X031654Y005040
X031693Y004528
X032165Y005552
X032165Y005040
X032165Y004528
T2
X005826Y008974
X006030Y008100
X008070Y007600
X008500Y011250
X010312Y011496
X014330Y011510
X015020Y010760
X015020Y008270
X019100Y008930
X019490Y009995
X019500Y009390
X019710Y001040
X021269Y005516
X021430Y003262
X021738Y002926
X022440Y002026
X022550Y004520
X022768Y002390
X022890Y004160
X023230Y000420
X023340Y005690
X023621Y002793
X023940Y005310
X024340Y004940
X024361Y001922
X024760Y004680
X024870Y004220
X024990Y005690
X025070Y009660
X025078Y003122
X025880Y005835
X026160Y001084
X026450Y005870
X027025Y005865
X027110Y001470
X027570Y005830
X027920Y002980
X028120Y005825
X028120Y001570
X028340Y001140
X028980Y008480
X028980Y007920
X029350Y008940
X030440Y010630
X030450Y002110
X030755Y009080
X030890Y010340
X031410Y003030
X031640Y007110
X032340Y007340
X032435Y009350
X032720Y007050
X033145Y006795
X033210Y009400
X033790Y003820
X037810Y002090
X037830Y000460
X038270Y007350
X041710Y003450
X041850Y002650
X043530Y005010
X043760Y002600
X044080Y005000
X044426Y005936
T3
X026500Y003961
X026500Y002039
T4
X009250Y009500
X009250Y008500
X009250Y007500
X009250Y006500
X010250Y010000
X010250Y009000
X010250Y008000
X010250Y007000
X011750Y004250
X011750Y001250
X012180Y005790
X012750Y004250
X012750Y001250
X013180Y005790
X013750Y004250
X013750Y001250
X014180Y005790
X014750Y004250
X014750Y001250
X015180Y005790
X015750Y004250
X015750Y001250
X016180Y005790
X016750Y004250
X016750Y001250
X017180Y005790
X017750Y004250
X017750Y001250
X018180Y005790
X018750Y004250
X018750Y001250
X019180Y005790
X020180Y005790
X029250Y001250
X030250Y001250
X031250Y001250
X032250Y001250
X033250Y001250
X034250Y001250
X034750Y009500
X034750Y008500
X034750Y007500
X034750Y006500
X035250Y001250
X035750Y010000
X035750Y009000
X035750Y008000
X035750Y007000
X036250Y001250
X037250Y001250
X038250Y001250
X038750Y004000
X038750Y003000
X039250Y001250
X039750Y004000
X039750Y003000
X040250Y001250
X040750Y004000
X040750Y003000
T5
X034470Y004386
X034470Y002614
X037030Y004386
X037030Y002614
T6
X008750Y003750
X008750Y002750
X008750Y001750
T7
X001750Y010750
X001750Y001750
X043250Y010750
T8
X006750Y010500
X006750Y006000
X038250Y010500
X038250Y006000
T0
M30
